<svg xmlns="http://www.w3.org/2000/svg" width="154.015" height="32.926" viewBox="0 0 154.015 32.926">
  <g id="logo" transform="translate(-13464 11923)">
    <g id="Group_325" transform="translate(13464 -11923)">
      <path id="Path_1013" d="M-2103.5-422.815a10.332,10.332,0,0,1,.866-4.332,8.573,8.573,0,0,1,2.166-3.249,10.666,10.666,0,0,1,3.249-2.166,11.389,11.389,0,0,1,8.448,0,8.571,8.571,0,0,1,3.25,2.166,8.564,8.564,0,0,1,2.166,3.249,11.385,11.385,0,0,1,0,8.448,8.564,8.564,0,0,1-2.166,3.249,10.668,10.668,0,0,1-3.25,2.166,11.389,11.389,0,0,1-8.448,0,8.571,8.571,0,0,1-3.249-2.166,8.573,8.573,0,0,1-2.166-3.249A8.251,8.251,0,0,1-2103.5-422.815Zm3.466,0A11.01,11.01,0,0,0-2099.6-420a6.55,6.55,0,0,0,3.683,3.9,6.905,6.905,0,0,0,5.849,0,6.547,6.547,0,0,0,3.682-3.9,9.016,9.016,0,0,0,0-5.849,6.547,6.547,0,0,0-3.682-3.9,6.905,6.905,0,0,0-5.849,0,6.55,6.55,0,0,0-3.683,3.9A17,17,0,0,0-2100.034-422.815Z" transform="translate(2135.343 444.91)" fill="#fff"/>
      <path id="Path_1014" d="M-2079.17-427.268h-5.848v11.7a4.026,4.026,0,0,0,.433,1.516,1.692,1.692,0,0,0,.866.866,4.082,4.082,0,0,0,1.733.433,3.688,3.688,0,0,0,1.516-.217c.433-.217,1.083-.217,1.516-.433l.217,3.033-1.95.65a6,6,0,0,1-1.949.217,12.683,12.683,0,0,1-2.816-.433,3.367,3.367,0,0,1-1.733-1.3,6.472,6.472,0,0,1-.866-2.166,12.3,12.3,0,0,1-.218-2.816v-10.831h-4.332v-2.816h4.332V-435.5h3.25v5.632h5.848Z" transform="translate(2148.054 442.432)" fill="#fff"/>
      <path id="Path_1015" d="M-2084.4-438.6h3.25v32.06h-3.25Z" transform="translate(2157.617 438.817)" fill="#fff"/>
      <path id="Path_1016" d="M-2080-435.317a2.462,2.462,0,0,1,.65-1.733,2.632,2.632,0,0,1,3.466,0h0a2.417,2.417,0,0,1,0,3.466,2.417,2.417,0,0,1-3.466,0,2.462,2.462,0,0,1-.65-1.733Zm.65,7.8h3.25v19.712h-3.25Z" transform="translate(2162.748 439.866)" fill="#fff"/>
      <path id="Path_1017" d="M-2075.1-428.1v-4.766h3.032v3.249h0a6.775,6.775,0,0,1,.866-1.3,9.412,9.412,0,0,1,1.516-1.3,7.7,7.7,0,0,1,1.949-.866,8.122,8.122,0,0,1,2.383-.217,9.814,9.814,0,0,1,3.466.65,6.15,6.15,0,0,1,2.383,1.733,4.944,4.944,0,0,1,1.3,2.6,16.725,16.725,0,0,1,.433,3.249v12.131h-3.249v-11.914a6.284,6.284,0,0,0-1.083-3.9,4.311,4.311,0,0,0-3.466-1.516,6.674,6.674,0,0,0-2.816.65,6.739,6.739,0,0,0-1.949,1.516,8,8,0,0,0-1.083,2.383,14.6,14.6,0,0,0-.433,3.033v9.531h-3.25Z" transform="translate(2168.462 444.997)" fill="#fff"/>
      <path id="Path_1018" d="M-2045.954-416.62a14.187,14.187,0,0,1-3.9,3.249,12.709,12.709,0,0,1-4.982.866,8.788,8.788,0,0,1-4.115-.866,10.662,10.662,0,0,1-3.25-2.166,10,10,0,0,1-1.949-3.249,12.615,12.615,0,0,1-.65-4.116,8.8,8.8,0,0,1,.866-4.116,8.571,8.571,0,0,1,2.166-3.249,8.568,8.568,0,0,1,3.25-2.166,12.665,12.665,0,0,1,4.115-.866,12.268,12.268,0,0,1,3.9.65,9.085,9.085,0,0,1,3.032,1.95,8.16,8.16,0,0,1,1.949,3.249,15.014,15.014,0,0,1,.65,4.332v1.083h-16.03a8.622,8.622,0,0,0,1.949,4.549,5.121,5.121,0,0,0,1.949,1.3,5.5,5.5,0,0,0,2.6.433,7.121,7.121,0,0,0,3.683-.866,8.671,8.671,0,0,0,2.6-2.166Zm-2.815-8.015a5.918,5.918,0,0,0-1.733-4.116,6.244,6.244,0,0,0-4.332-1.516,6.063,6.063,0,0,0-6.5,5.632Z" transform="translate(2180.474 444.997)" fill="#fff"/>
      <path id="Path_1019" d="M-2052.033-418.02a6.146,6.146,0,0,0,2.166,1.95,4.834,4.834,0,0,0,3.032.65,3.685,3.685,0,0,0,1.516-.217,2.339,2.339,0,0,0,1.516-.65c.433-.217.65-.65,1.083-.866a3.073,3.073,0,0,0,.433-1.3,3.079,3.079,0,0,0-.433-1.3c-.217-.433-.65-.65-.866-.866l-1.3-.65c-.434-.217-1.083-.217-1.517-.433l-2.6-.65a6.778,6.778,0,0,1-2.166-1.083,5.047,5.047,0,0,1-1.516-1.516,5.771,5.771,0,0,1-.65-2.6,5.771,5.771,0,0,1,.65-2.6,6.584,6.584,0,0,1,1.733-1.733,8.006,8.006,0,0,1,2.383-1.083,10.875,10.875,0,0,1,2.6-.433,8.5,8.5,0,0,1,3.9.866,5.926,5.926,0,0,1,2.816,2.816l-2.816,1.733a6.59,6.59,0,0,0-1.733-1.733,5.769,5.769,0,0,0-2.6-.65,2.75,2.75,0,0,0-1.3.217,3.084,3.084,0,0,0-1.3.433,1.69,1.69,0,0,0-.866.866,3.076,3.076,0,0,0-.433,1.3,1.656,1.656,0,0,0,.433,1.083,2.164,2.164,0,0,0,1.083.866c.433.217,1.083.433,1.516.65.65.217,1.3.217,1.949.433l2.6.65a10.121,10.121,0,0,1,2.167,1.083,3.368,3.368,0,0,1,1.3,1.733,5.5,5.5,0,0,1,.433,2.6,6,6,0,0,1-.65,2.816,5.114,5.114,0,0,1-1.733,1.95,13.245,13.245,0,0,1-2.6,1.083,12.673,12.673,0,0,1-2.816.433,9.7,9.7,0,0,1-4.332-.866,8.315,8.315,0,0,1-3.25-2.816Z" transform="translate(2192.836 444.881)" fill="#fff"/>
      <path id="Path_1020" d="M-2101.336-438.7v14.947h0a9.585,9.585,0,0,0-3.249-2.6,8.79,8.79,0,0,0-4.115-.866,12.265,12.265,0,0,0-3.9.65,16.472,16.472,0,0,1,4.115,2.6h.217a6,6,0,0,1,2.816.65,6.551,6.551,0,0,1,3.683,3.9,9.016,9.016,0,0,1,0,5.849,6.551,6.551,0,0,1-3.683,3.9,6.67,6.67,0,0,1-2.816.65h-.433a15.336,15.336,0,0,1-3.9,2.6,9.811,9.811,0,0,0,3.466.65,11.8,11.8,0,0,0,4.765-1.083,7.643,7.643,0,0,0,3.033-2.816h0v3.466h3.466v-32.06h-3.466Z" transform="translate(2124.73 438.7)" fill="#fff"/>
      <circle id="Ellipse_28" cx="8.448" cy="8.448" r="8.448" transform="translate(0 13.647)" fill="#8d4097"/>
    </g>
  </g>
</svg>
