<svg id="audra-logo" xmlns="http://www.w3.org/2000/svg" width="110.171" height="23.036" viewBox="0 0 110.171 23.036">
  <path id="Path_1" data-name="Path 1" d="M12.3,19.4a14.022,14.022,0,0,1-3.769-2.847.473.473,0,0,1,.638-.7,13.571,13.571,0,0,0,4.465,2.033,14.434,14.434,0,0,0,7.538-.058,20.5,20.5,0,0,0,2.261-.813L16.181,4.527c-1.913-3.37-5.1-3.37-7.016,0L6.5,9.175A14.575,14.575,0,0,1,13.05,10.8a14.019,14.019,0,0,1,3.769,2.847.473.473,0,0,1-.638.7,13.573,13.573,0,0,0-4.465-2.033,14.788,14.788,0,0,0-7.132-.058L.815,18.935c-1.913,3.37-.348,6.1,3.537,6.1H20.935c3.537,0,5.161-2.324,3.943-5.229a14.335,14.335,0,0,1-5.276,1.22A14.228,14.228,0,0,1,12.3,19.4Z" transform="translate(0 -2)" fill="#fff"/>
  <path id="Path_2" data-name="Path 2" d="M51.432,19.562a7.19,7.19,0,0,1-12.35-5.054A6.931,6.931,0,0,1,41.169,9.4a7.27,7.27,0,0,1,10.205,0,6.931,6.931,0,0,1,2.087,5.113v6.158a1.225,1.225,0,0,1-.29.755,1.1,1.1,0,0,1-.754.291,1.22,1.22,0,0,1-.754-.291.893.893,0,0,1-.29-.755v-1.1ZM46.33,9.4a5.078,5.078,0,0,0-3.653,1.511,5,5,0,0,0-1.508,3.66,5.1,5.1,0,0,0,1.508,3.66,4.983,4.983,0,0,0,3.653,1.511,5.078,5.078,0,0,0,3.653-1.511,5,5,0,0,0,1.508-3.66,5.1,5.1,0,0,0-1.508-3.66A4.854,4.854,0,0,0,46.33,9.4Z" transform="translate(-7.188 -2.975)" fill="#fff"/>
  <path id="Path_3" data-name="Path 3" d="M74.289,20.724a1.225,1.225,0,0,1-.29.755,1.1,1.1,0,0,1-.754.291,1.22,1.22,0,0,1-.754-.291.893.893,0,0,1-.29-.755v-.871a6.524,6.524,0,0,1-4.639,1.859,6.214,6.214,0,0,1-4.7-1.975,6.419,6.419,0,0,1-1.971-4.706V8.349a1.225,1.225,0,0,1,.29-.755,1.1,1.1,0,0,1,.754-.29,1.22,1.22,0,0,1,.754.29,1.106,1.106,0,0,1,.29.755v6.681a4.477,4.477,0,0,0,1.334,3.253,4.329,4.329,0,0,0,3.247,1.336,4.459,4.459,0,0,0,3.247-1.336,4.346,4.346,0,0,0,1.334-3.253V8.349a1.225,1.225,0,0,1,.29-.755,1.1,1.1,0,0,1,.754-.29,1.22,1.22,0,0,1,.754.29,1.105,1.105,0,0,1,.29.755V20.724Z" transform="translate(-11.2 -2.975)" fill="#fff"/>
  <path id="Path_4" data-name="Path 4" d="M93.72,3.153a1.225,1.225,0,0,1,.29-.755,1.1,1.1,0,0,1,.754-.29,1.22,1.22,0,0,1,.754.29.893.893,0,0,1,.29.755V13.61a7.023,7.023,0,0,1-2.087,5.113,6.9,6.9,0,0,1-5.1,2.092,7.135,7.135,0,0,1-7.19-7.2A6.931,6.931,0,0,1,83.515,8.5a6.9,6.9,0,0,1,5.1-2.092A7,7,0,0,1,93.72,8.5l.058.058v-5.4Zm0,10.458a5.1,5.1,0,0,0-1.508-3.66,4.73,4.73,0,0,0-3.595-1.511A5.078,5.078,0,0,0,84.965,9.95a5,5,0,0,0-1.508,3.66,5.1,5.1,0,0,0,1.508,3.66,4.983,4.983,0,0,0,3.653,1.51,5.078,5.078,0,0,0,3.653-1.51A5.14,5.14,0,0,0,93.72,13.61Z" transform="translate(-14.976 -2.02)" fill="#fff"/>
  <path id="Path_5" data-name="Path 5" d="M103.156,8.349a1.222,1.222,0,0,1,.291-.755,1.1,1.1,0,0,1,.753-.29,1.221,1.221,0,0,1,.754.29,1.106,1.106,0,0,1,.29.755V9.511a6.955,6.955,0,0,1,5.161-2.15,7.412,7.412,0,0,1,2.783.523,1.039,1.039,0,0,1,.406.29,1.127,1.127,0,0,1,0,1.511,1.1,1.1,0,0,1-.753.29,1.367,1.367,0,0,1-.464-.116,5.484,5.484,0,0,0-2.029-.407,5.078,5.078,0,0,0-3.654,1.511,5,5,0,0,0-1.507,3.66v6.158a1.226,1.226,0,0,1-.29.755,1.1,1.1,0,0,1-.754.29,1.218,1.218,0,0,1-.753-.29.892.892,0,0,1-.291-.755V8.349Z" transform="translate(-18.962 -2.975)" fill="#fff"/>
  <path id="Path_6" data-name="Path 6" d="M129.73,19.562a7.19,7.19,0,0,1-12.35-5.054A6.931,6.931,0,0,1,119.467,9.4a6.9,6.9,0,0,1,5.1-2.092,7.135,7.135,0,0,1,7.19,7.2v6.158a1.226,1.226,0,0,1-.29.755,1.1,1.1,0,0,1-.754.291,1.223,1.223,0,0,1-.754-.291,1.106,1.106,0,0,1-.29-.755v-1.1ZM124.57,9.4a5.078,5.078,0,0,0-3.653,1.511,5,5,0,0,0-1.508,3.66,5.1,5.1,0,0,0,1.508,3.66,4.981,4.981,0,0,0,3.653,1.511,5.078,5.078,0,0,0,3.653-1.511,5,5,0,0,0,1.507-3.66,5.1,5.1,0,0,0-1.507-3.66A4.983,4.983,0,0,0,124.57,9.4Z" transform="translate(-21.588 -2.975)" fill="#fff"/>
</svg>
