<svg xmlns="http://www.w3.org/2000/svg" width="104.174" height="74.789" viewBox="0 0 104.174 74.789">
  <g id="Group_3414" data-name="Group 3414" transform="translate(5335.174 9791.789)">
    <g id="axiata" transform="translate(-20365.223 -8533.449)">
      <g id="Group_3249" data-name="Group 3249" transform="translate(15030.049 -1258.339)">
        <g id="Group_3248" data-name="Group 3248" transform="translate(0)">
          <path id="Path_1224" data-name="Path 1224" d="M537.76-655.615l13.725-7.924-13.725-7.926Z" transform="translate(-447.311 679.391)" fill="#fff"/>
          <path id="Path_1225" data-name="Path 1225" d="M537.76-629.3l13.725,7.926v-15.849h0Z" transform="translate(-447.311 653.076)" fill="#fff"/>
          <path id="Path_1226" data-name="Path 1226" d="M331.4,110.631l13.73,7.927V102.7Z" transform="translate(-254.682 -78.929)" fill="#fff"/>
          <path id="Path_1227" data-name="Path 1227" d="M331.4,0V15.849l13.73-7.924Z" transform="translate(-254.682)" fill="#fff"/>
          <path id="Path_1228" data-name="Path 1228" d="M345.131,34.235,331.4,42.159l13.73,7.926Z" transform="translate(-254.683 -26.31)" fill="#fff"/>
          <path id="Path_1229" data-name="Path 1229" d="M537.76-587.144l13.725-7.927L537.76-603Z" transform="translate(-447.311 626.772)" fill="#fff"/>
          <path id="Path_1230" data-name="Path 1230" d="M158.482-527.3c0,1.084-1.745,2.406-3.572,2.406s-2.8-.89-2.8-2.085c0-1.777,1.156-2.73,3.749-2.73a5.881,5.881,0,0,1,2.621.45ZM155.4-540.219c-4.3,0-6.394,1.455-6.394,2.884v2.445a16.608,16.608,0,0,1,5.53-1.023c2.865,0,3.945,1.184,3.945,2.39v1.037a9.459,9.459,0,0,0-3.466-.457c-5.3,0-7.967,2.419-7.967,5.965,0,3.837,3.075,5.662,6.964,5.662a7.2,7.2,0,0,0,4.469-1.163v.735h4.8v-11.389c0-3.493-1.51-7.086-7.881-7.086M202.924-527.3c0,1.084-1.745,2.406-3.573,2.406s-2.8-.89-2.8-2.085c0-1.777,1.156-2.73,3.749-2.73a5.881,5.881,0,0,1,2.621.45Zm-3.081-12.921c-4.3,0-6.394,1.455-6.394,2.884v2.445a16.607,16.607,0,0,1,5.529-1.023c2.865,0,3.945,1.184,3.945,2.39v1.037a9.459,9.459,0,0,0-3.466-.457c-5.3,0-7.967,2.419-7.967,5.965,0,3.837,3.075,5.662,6.964,5.662a7.2,7.2,0,0,0,4.469-1.163v.735h4.8v-11.389c0-3.493-1.51-7.086-7.882-7.086M233.085-527.3c0,1.084-1.745,2.406-3.572,2.406s-2.8-.89-2.8-2.085c0-1.777,1.157-2.73,3.749-2.73a5.881,5.881,0,0,1,2.621.45ZM230-540.219c-4.3,0-6.394,1.455-6.394,2.884v2.445a16.6,16.6,0,0,1,5.529-1.023c2.865,0,3.945,1.184,3.945,2.39v1.037a9.461,9.461,0,0,0-3.466-.457c-5.3,0-7.968,2.419-7.968,5.965,0,3.837,3.075,5.662,6.965,5.662a7.2,7.2,0,0,0,4.469-1.163v.735h4.8v-11.389c0-3.493-1.511-7.086-7.882-7.086m-49.559.078a5.6,5.6,0,0,0-4.506,2.338l-2.031,2.886-3.563-5.225h-6.109l6.737,9.4-6.336,9h5.522l3.59-5.131,3.679,5.131h5.464l-6.285-9.215,6.425-9.182Zm34.9,12.651v-8.532h4.037l2.311-4.119h-6.349V-547l-2.538,1.248a3.615,3.615,0,0,0-2.227,3.131v16.048c0,2.23.887,5.258,5.093,5.258,2.447,0,4.122-.907,4.122-1.461v-3.159c-2.628,1.157-4.451.8-4.451-1.555m-31.112-9.031v14.777h5.079v-18.838a12.914,12.914,0,0,0-2.853.987,3.542,3.542,0,0,0-2.227,3.074" transform="translate(-147.049 583.739)" fill="#fff"/>
        </g>
      </g>
    </g>
    <rect id="Rectangle_58" data-name="Rectangle 58" width="83" height="12" transform="translate(-5328 -9729)" fill="none"/>
  </g>
</svg>
