<svg id="business-insider" xmlns="http://www.w3.org/2000/svg" width="116.695" height="36.227" viewBox="0 0 116.695 36.227">
  <g id="Group_4" data-name="Group 4" transform="translate(0 0)">
    <path id="Path_28" data-name="Path 28" d="M121.442,126.776c0-.759,0-1.518,0-2.277q0-5.955,0-11.91V112.3c.092,0,.165-.012.238-.012q2.655,0,5.311,0a7.7,7.7,0,0,1,3.608.807,6.038,6.038,0,0,1,3.069,3.647,8.561,8.561,0,0,1-.258,6.225,6.132,6.132,0,0,1-4.585,3.617c-.391.085-.792.126-1.188.188Zm2.483-2.165c1.288-.024,2.555.031,3.805-.088a3.951,3.951,0,0,0,3.62-2.958,7.109,7.109,0,0,0,.188-3.286,4.664,4.664,0,0,0-1.014-2.351,4.121,4.121,0,0,0-3.108-1.443c-1.107-.047-2.217-.02-3.326-.024a1.4,1.4,0,0,0-.166.019Z" transform="translate(-58.133 -90.549)" fill="#fff"/>
    <path id="Path_29" data-name="Path 29" d="M179.105,126.776c.006-.106.017-.211.017-.316q0-6.924,0-13.847v-.306c.086-.006.152-.015.217-.015q2.473,0,4.946,0a6.034,6.034,0,0,1,2.4.445,3.76,3.76,0,0,1,2.35,3.213,6.038,6.038,0,0,1-.1,2.082,3.391,3.391,0,0,1-2.888,2.727l-.254.055c.1.122.189.224.276.326l4.629,5.423c.059.069.112.142.168.214h-2.736a2.1,2.1,0,0,0-.125-.185c-1.5-1.791-3.009-3.578-4.5-5.376a.735.735,0,0,0-.683-.325c-.427.031-.859.008-1.3.008v5.878Zm2.421-7.9c1.116-.025,2.219.009,3.31-.09a1.985,1.985,0,0,0,1.864-1.935,2.059,2.059,0,0,0-1.4-2.265,2.931,2.931,0,0,0-.846-.154c-.933-.022-1.867-.014-2.8-.016a.793.793,0,0,0-.131.021Z" transform="translate(-82.333 -90.549)" fill="#fff"/>
    <path id="Path_30" data-name="Path 30" d="M151.059,126.787c0-.1.008-.2.008-.3q0-6.935,0-13.869v-.305H160.1v2.145h-6.533v3.486h5.854v2.145h-5.86v4.5h6.572v2.194Z" transform="translate(-70.562 -90.56)" fill="#fff"/>
    <path id="Path_31" data-name="Path 31" d="M206.269,86.408c-.039.2-.07.4-.118.6a3.9,3.9,0,0,1-2.668,2.813,7.869,7.869,0,0,1-4.269.211,7.357,7.357,0,0,1-2.553-.991.354.354,0,0,1-.194-.344c.01-.789,0-1.578,0-2.4.076.051.131.083.181.122a7.163,7.163,0,0,0,4.1,1.569,4.477,4.477,0,0,0,2.011-.289,1.8,1.8,0,0,0,.295-3.185,10.236,10.236,0,0,0-1.351-.647c-.954-.389-1.928-.732-2.875-1.138a4.912,4.912,0,0,1-1.076-.674,4.013,4.013,0,0,1,1.418-6.877,7.467,7.467,0,0,1,6.177.786.32.32,0,0,1,.148.221c.01.782.005,1.563,0,2.346a.408.408,0,0,1-.025.085l-.391-.28a6.272,6.272,0,0,0-4.273-1.26,2.736,2.736,0,0,0-1.448.487,1.651,1.651,0,0,0-.089,2.545,4,4,0,0,0,1.025.575c1.089.441,2.206.817,3.282,1.285a6.02,6.02,0,0,1,1.427.918,3.545,3.545,0,0,1,1.212,2.447,1.141,1.141,0,0,0,.043.172Z" transform="translate(-89.574 -74.826)" fill="#fff"/>
    <path id="Path_32" data-name="Path 32" d="M80.353,126.777c-.5-.076-1.007-.133-1.5-.233a7.393,7.393,0,0,1-2.268-.854.39.39,0,0,1-.23-.392c.013-.727.005-1.454.005-2.234.1.069.164.113.227.158a7.4,7.4,0,0,0,4.6,1.452,4,4,0,0,0,1.739-.394,1.631,1.631,0,0,0,.185-2.778,9.128,9.128,0,0,0-1.453-.692c-.953-.372-1.935-.673-2.876-1.071a5.98,5.98,0,0,1-1.365-.848,3.639,3.639,0,0,1,.83-5.963,6.49,6.49,0,0,1,3.068-.633,8.239,8.239,0,0,1,3.886,1,.378.378,0,0,1,.226.391c-.013.638,0,1.276,0,1.913v.268l-.364-.249a6.618,6.618,0,0,0-4.293-1.229,2.93,2.93,0,0,0-1.5.463,1.492,1.492,0,0,0-.077,2.4,4.21,4.21,0,0,0,1.042.544c1.092.415,2.206.77,3.288,1.208a5.612,5.612,0,0,1,1.378.827,3.823,3.823,0,0,1-1.385,6.518,13.647,13.647,0,0,1-1.726.385l-.2.042Z" transform="translate(-39.155 -90.55)" fill="#fff"/>
    <path id="Path_33" data-name="Path 33" d="M27.879,126.787c.007-.105.02-.21.02-.316q0-6.924,0-13.848v-.306h2.715v14.47Z" transform="translate(-18.866 -90.56)" fill="#fff"/>
    <path id="Path_34" data-name="Path 34" d="M104.317,126.787V112.318H107c0,.073.013.145.013.218q0,7.035,0,14.07c0,.06-.008.121-.011.181Z" transform="translate(-50.946 -90.56)" fill="#fff"/>
    <path id="Path_35" data-name="Path 35" d="M12.348,75.306c.054-.006.1-.015.141-.015,1.838,0,3.676-.009,5.514.024a5.086,5.086,0,0,1,2.642.75,3.524,3.524,0,0,1,1.666,2.993,3.708,3.708,0,0,1-.768,2.624,2.693,2.693,0,0,1-1.052.787,8.349,8.349,0,0,1,.887.54,3.522,3.522,0,0,1,1.4,2.79,3.889,3.889,0,0,1-1.45,3.4,4.672,4.672,0,0,1-2.374.906,11.214,11.214,0,0,1-1.272.07c-1.679.008-3.358,0-5.036,0h-.3ZM14.727,88c1.112,0,2.2,0,3.283,0a3.1,3.1,0,0,0,.633-.074A1.953,1.953,0,0,0,20.289,86.5a2.151,2.151,0,0,0-.528-2.252,2.391,2.391,0,0,0-1.677-.6c-1.064-.019-2.127-.009-3.191-.011a1.621,1.621,0,0,0-.166.017Zm0-10.511v4.049c1.028,0,2.038.013,3.047-.008a3.385,3.385,0,0,0,.913-.171,1.651,1.651,0,0,0,1.181-1.186,2.606,2.606,0,0,0,.007-1.35,1.434,1.434,0,0,0-.852-1.032,3.611,3.611,0,0,0-1.137-.286c-1-.046-2-.03-3.006-.038A1,1,0,0,0,14.731,77.486Z" transform="translate(-12.348 -75.021)" fill="#fff"/>
    <path id="Path_36" data-name="Path 36" d="M123.446,75.108H125.8V90.226l-9.845-9.917-.091.055v9.615h-2.346V74.894l9.929,9.719Z" transform="translate(-54.807 -74.854)" fill="#fff"/>
    <path id="Path_37" data-name="Path 37" d="M57.729,126.773l-10.21-9.333v9.117H45.106V112.335l10.214,9.174v-8.964h2.408Z" transform="translate(-26.096 -90.567)" fill="#fff"/>
    <path id="Path_38" data-name="Path 38" d="M48.589,75.313h2.452v.257q0,4.3,0,8.609a7.956,7.956,0,0,1-.49,2.946,4.859,4.859,0,0,1-3.338,3.038,7.055,7.055,0,0,1-3.848.03,4.942,4.942,0,0,1-3.7-3.921,8.786,8.786,0,0,1-.226-1.915c-.024-2.945-.011-5.891-.01-8.837,0-.066.007-.133.011-.207h2.442V75.6q0,4.179,0,8.358a6.5,6.5,0,0,0,.328,2.24,2.8,2.8,0,0,0,2.683,1.964,5.426,5.426,0,0,0,1.4-.117,2.783,2.783,0,0,0,2.071-2.173,7.221,7.221,0,0,0,.229-1.96q0-4.157,0-8.313Z" transform="translate(-23.711 -75.03)" fill="#fff"/>
    <path id="Path_39" data-name="Path 39" d="M148.45,83.319v4.618h6.336v2.245h-8.738V75.319h8.743v2.206h-6.334v3.583h5.68v2.211Z" transform="translate(-68.459 -75.033)" fill="#fff"/>
    <path id="Path_40" data-name="Path 40" d="M170.9,86.278a7.465,7.465,0,0,0,2.989,1.521,5.819,5.819,0,0,0,2.951.022,1.806,1.806,0,0,0,1.4-1.26,1.747,1.747,0,0,0-.833-2.093,17,17,0,0,0-1.761-.786c-.922-.388-1.886-.692-2.764-1.159a4.035,4.035,0,0,1-1.661-5.467,3.978,3.978,0,0,1,2.668-1.972,7.622,7.622,0,0,1,5.859.851.322.322,0,0,1,.186.322c-.01.713,0,1.427,0,2.14,0,.066-.005.131-.01.225-.231-.162-.438-.312-.649-.453a6.173,6.173,0,0,0-4.049-1.1,2.856,2.856,0,0,0-1.314.405,1.652,1.652,0,0,0-.142,2.683,4.039,4.039,0,0,0,.955.517c1.09.437,2.2.827,3.284,1.281a5.451,5.451,0,0,1,1.222.738,3.929,3.929,0,0,1,1.446,3.6,3.8,3.8,0,0,1-2.971,3.583,8.144,8.144,0,0,1-6.565-.806.423.423,0,0,1-.243-.432c.014-.7.005-1.4.005-2.094Z" transform="translate(-78.822 -74.831)" fill="#fff"/>
    <path id="Path_41" data-name="Path 41" d="M69.322,86.3c.167.124.292.218.419.309a7.043,7.043,0,0,0,4.389,1.393,3.879,3.879,0,0,0,1.508-.305,1.669,1.669,0,0,0,1.081-1.407,1.649,1.649,0,0,0-.786-1.742,17.85,17.85,0,0,0-1.9-.866c-.79-.33-1.609-.6-2.382-.962a5.3,5.3,0,0,1-1.292-.877,4.021,4.021,0,0,1,1.971-6.753,7.6,7.6,0,0,1,5.858.866.306.306,0,0,1,.173.308c-.008.721,0,1.443,0,2.164v.211c-.084-.056-.14-.088-.191-.127a6.774,6.774,0,0,0-3.017-1.367,5.027,5.027,0,0,0-2.213.073,1.691,1.691,0,0,0-1.28,2.2,1.547,1.547,0,0,0,.863.979c.541.255,1.1.465,1.657.689.878.356,1.789.646,2.631,1.074a4.239,4.239,0,0,1,1.739,5.955,4.165,4.165,0,0,1-2.681,1.861A8.328,8.328,0,0,1,69.58,89.1a.456.456,0,0,1-.265-.467c.019-.682.007-1.366.007-2.05Z" transform="translate(-36.207 -74.836)" fill="#fff"/>
    <path id="Path_42" data-name="Path 42" d="M97.2,75.313h2.427v14.86H97.2Z" transform="translate(-47.958 -75.03)" fill="#fff"/>
  </g>
</svg>
