<svg id="carnival-internet" xmlns="http://www.w3.org/2000/svg" xmlns:xlink="http://www.w3.org/1999/xlink" width="96.628" height="41.788" viewBox="0 0 96.628 41.788">
  <defs>
    <clipPath id="clip-path">
      <path id="Path_312" data-name="Path 312" d="M25.614,2.885a18.551,18.551,0,0,1,4.276,1.486A8.442,8.442,0,0,1,32.952,6.8a5.338,5.338,0,0,1,1.216,3.242,6.134,6.134,0,0,1-.63,2.522,7.5,7.5,0,0,1-1.756,2.026,9.187,9.187,0,0,1-2.206,1.4,6.6,6.6,0,0,1-2.206.541,10.523,10.523,0,0,1-1.756-.18c-.541-.18-1.126-.27-1.666-.45a10.357,10.357,0,0,0-1.576-.45,4.959,4.959,0,0,0-1.756-.225,4.983,4.983,0,0,0-2.792.721,7.911,7.911,0,0,0-2.206,1.846,9.858,9.858,0,0,0-1.486,2.7,9.666,9.666,0,0,0-.541,3.152,8.284,8.284,0,0,0,.63,3.332,8.06,8.06,0,0,0,1.666,2.612A12.3,12.3,0,0,0,18,31.253a4.7,4.7,0,0,0,2.206.541,4.915,4.915,0,0,0,1.936-.36c.63-.27,1.306-.45,1.936-.721s1.306-.541,1.846-.721a4.228,4.228,0,0,1,1.846-.36,6.433,6.433,0,0,1,2.206.45,12.371,12.371,0,0,1,2.341,1.4A7.5,7.5,0,0,1,34.079,33.5a4.72,4.72,0,0,1,.721,2.522,4.582,4.582,0,0,1-1.216,3.152,11.026,11.026,0,0,1-3.062,2.7,16.4,16.4,0,0,1-4.278,1.846,46.625,46.625,0,0,1-5,.36,22.673,22.673,0,0,1-7.97-1.4,22.1,22.1,0,0,1-6.889-4.007A18.846,18.846,0,0,1,1.66,32.2,24.273,24.273,0,0,1-.006,23.463,21.566,21.566,0,0,1,1.75,14.457,19.363,19.363,0,0,1,6.388,7.793a21.139,21.139,0,0,1,6.664-4.1,22.18,22.18,0,0,1,7.88-1.4,18.286,18.286,0,0,1,4.683.585Z" transform="translate(0.011 -2.299)" fill="#fff"/>
    </clipPath>
  </defs>
  <g id="Group_12" transform="translate(0 0)">
    <g id="Group_1222" data-name="Group 1222">
      <g id="Group_1221" data-name="Group 1221">
        <g id="Group_11" clip-path="url(#clip-path)">
          <g id="Group_10" transform="translate(-16.274 -2.308)">
            <path id="Path_1" d="M74.525,58.574c4.458-1.4,7.339,5.493,4.638,7.88C76.461,68.8,70.067,59.97,74.525,58.574Z" transform="translate(-31.749 -31.948)" fill="#fff" opacity="0.8"/>
            <path id="Path_2" d="M60.945,11.663c-.18.09-.541,0-.63.18-.18.721,1.126.63,1.4,1.306.27.63-1.036,1.306-.63,1.846.09.09.36.09.36.27,0,.27-.36.09-.63.36-.18.18.36.09.09.45-.45.856-2.026.45-1.936,1.4,0,.27.36.63.09.721-.27.18-.45-.36-.63-.45-.541-.45-.541.541-1.306.541a2.736,2.736,0,0,1-1.126-.27c-.541-.18-.721-.63-1.216-.541-.18,0-.18.27-.36.27-.36,0,.18-.541-.09-.63-.27-.18-.856.09-.945-.27a1.471,1.471,0,0,0,0-.63c-.09-.45-.856.09-1.4-.36-.63-.45-1.486-.541-1.486-1.216a.959.959,0,0,0-.36-.945c-.63-.45-.36-1.306,0-1.846.27-.36.18-1.036.541-1.4.36-.27.945-.27,1.486-.63.36-.27.541.45,1.486.09.36-.18.721.45,1.216.27.541-.36-.721-1.486-.09-1.486s.541,1.486,1.216,1.306c0,.18,0-.09.18-.18s.36.27.541.18c.45-.27-.09-1.306.541-1.4.36,0,.18.36.541.541.45.27.36,1.666.945,1.126.18-.18.18-1.036.541-.856s-.18.945-.18,1.216c.36.856.945.36,1.666.45a.287.287,0,0,1,.27.27.486.486,0,0,1-.092.314Zm-1.8,2.206c-.45,0-.45.36-.45.541s.45.27.63.18C59.819,14.636,59.549,13.869,59.144,13.869Z" transform="translate(-18.98 -4.578)" fill="#fff" opacity="0.85"/>
            <path id="Path_3" d="M31.806,16.4c-.36-.09-.45-.27-.721-.36a.516.516,0,0,0-.541.721c.09.18.541.18.45.36-.09.09-.36-.09-.541,0-.945.36.856.856.856,1.4,0,.09-.36.27-.721.09-.45-.27-.27-.63-.721-.856-.541-.18-.541.721-.27,1.4.18.541.27.45.36,1.036,0,.18,0,.36-.18.45-.36.18-.27-.945-.721-1.306-.27,0-.36.18-.541.18s-.09-.18-.36-.18c-.09,0-.09.18-.09.27.09.27.36.721-.09.856-.856.27-1.756-1.756-1.846-.63,0,.09-.09.18-.18.27-.36.09-.27-.541-.541-.63-.856-.27-1.936-.18-2.206-.721a2.124,2.124,0,0,0-1.4-1.306c-.27-.09.27-.541.09-.63-.541-.45-.36-1.126-.856-1.756-.63-.856,1.306-.45,1.126-1.306.09-.18-.27-.36-.18-.541.09-.27.27,0,.63,0s.63-.09.63-.45c0-.18-.36-.63-.09-.856.27-.18,1.126.27,1.036-.09a.555.555,0,0,1,.18-.63c.27.09.36.721.541.45.09-.18-.27-.45.09-.63.27-.18.36.18.63.18.541,0,.36.27.856.27a2.05,2.05,0,0,1,1.486.09c.18.09.09.45.36.541.18-.09.45-.27.541-.18.27.09-.09.27.09.27.27,0,.18-.945.63-1.126a1.406,1.406,0,0,1,1.216-.09c.36.09.36-.36.541-.27a1.376,1.376,0,0,0,.856.09c.18,0,0,.36.27.45.18.09.541-.18.63,0,.09.09-.18.09-.36.18,0-.18.45-.09.721-.09.36,0,1.036.45.721.721-.09.09-.27.09-.27.18s.27.09.36.18c.09.18-.27.18-.09.36.09.09.36,0,.27.18-.09.09-.27.09-.27.27s.856.45.541.721c-.18.09-.36-.18-.45-.18-.45.09.18.63,0,.721-.27.18.18.27-.36.45C33.292,15.189,33.021,16.674,31.806,16.4Zm-3.827,3.422c-.09-.09-.27.45-.09.36S28.068,20.006,27.978,19.826ZM29.1,16.314c.09-.36-.36-.45-.541-.27C28.473,16.314,28.923,16.674,29.1,16.314Z" transform="translate(-3.123 -5.718)" fill="#fff" opacity="0.8"/>
            <path id="Path_4" d="M44.758,78.025c.18.09.18-.18.36-.18a.278.278,0,0,0,.09.18c.09.09.27-.09.36-.09.721,0,.18-.856.63-.945.36-.09.45.541.721.856.36.36.945-.18,1.486-.36a1.889,1.889,0,0,1,1.216.09c.27.18.36.45.721.63.18,0,.18-.18.27-.09s.09.45.36.45c.63,0,1.126,0,1.4.63.09.18-.09.45,0,.541s.27.18.36.36c-.09.36-.45.27-.63.541,0,.27.721.18.945.541.18.27-.27.63,0,.945.09.09.18,0,.36.09.63.36-.09.856-.541.18-.09-.09-.27.09-.45.18-.45.36-.27.63-.541.945-.09.09.09.27.09.36-.09.09-.541.09-.541.18-.09.36-.18.18-.45.36-.18.09.18.18.27.36.27.36-.63.541-.63.27,0-.18.09-.36-.09-.36-.856.09-.45,1.036-1.126,1.126-.36,0-1.576-.856-1.846-.541-.36.27-.36.63-.721.45-.18-.18,0-.541-.09-.541-.27,0-.09.945-.45.856-.315-.046.135-.5.046-.81,0-.09-.18-.09-.18,0-.09.36-.36.541-.45.18-.18-.856-.09-.36-.63-.36-.09,0-.18-.18-.18-.27s.09-.18.09-.27c.09-.27-.09-.18-.27,0-.09.09.09.541-.09.63-.27.09-.27-.36-.541-.36-.18,0-.09-.09-.09-.27,0-.09-.18.09-.18,0v-.09c0-.18.27,0,.27-.09,0-.18-.36-.27-.27-.45.09-.09.27.09.45,0s.18-.45-.27-.27c-.09,0-.36.09-.36,0-.09-.18.18-.541.36-.541.36-.18-.18-.541-.09-.945,0-.18.18-.27.27-.45a5.739,5.739,0,0,0,.18-.63c0-.18.18-.18,0-.36-.09-.09-.27.09-.36,0a.661.661,0,0,1,.09-.945.469.469,0,0,1,.721.09c.27.18.36,0,.09-.18-.09-.09-.18,0-.36-.09-.09-.09.18-.27.09-.36-.09-.18-.63.18-.721-.09-.09-.18-.45-.09-.541-.36C43.092,78.025,44.668,77.889,44.758,78.025Z" transform="translate(-15.445 -42.168)" fill="#fff" opacity="0.8"/>
            <path id="Path_5" d="M31.831,80.42a2.119,2.119,0,0,1,1.126-.63c1.846-.721,1.036-2.432,3.152-1.576.63.27,1.486.18,2.026.45s.63.856,1.306.945c2.026.45,1.576,4.007.856,5.493-1.306,2.612-5.179,2.882-7.34,1.216a3.827,3.827,0,0,1-1.306-4.278A6.583,6.583,0,0,0,31.831,80.42Z" transform="translate(-8.912 -42.717)" fill="#fff" opacity="0.8"/>
            <path id="Path_6" d="M69.692,77.567c-.18-.18-.36,0-.45-.27v-.27c.09-.945-1.216-2.116-1.486-2.972-.09-.18.09-.45.18-.541.45-.541,1.306.721,2.026.541a2.445,2.445,0,0,1,1.126.09l.09-.09h0c-.63-.63-1.936-.63-2.206-1.4-.18-.45.18-.856.63-1.306.36-.36,1.306.09,1.846.18.945.09,2.792.945,2.972,0,.09-.18-.27-.27-.63-.36-1.216-.18-3.152.541-4.007-.541-.45-.63,0-1.486.27-2.026.09-.18.18-.945-.18-.945-.27,0-.36.18-.63.18-.541,0-.27-.36-.63-.856-.36-.45,1.216-1.576.541-1.666-.45-.09-.63,1.126-1.036.945-.45-.18.09-.945.27-1.486.36-1.036,1.306-2.432.45-3.242-.18-.18-.36-.45-.45-.36s-.09.36-.18.63v.36c.18.721.45,1.666-.18,2.026-.09.09-.18-.36-.27-.18-.27.45-.27,2.432-1.036,1.936-.541-.36.36-1.126.27-1.936,0-.18.09-.856-.09-.63-.18.18,0,.63-.27.63-.18,0-.09-.36-.27-.18-.18.45-.18,2.116-.63,1.576-.36-.36.36-1.4-.09-1.4-.36,0,.09,1.216-.27,1.126s-.856-.721-.541-1.036a1.884,1.884,0,0,1-.541-.36c.09.856.945,1.486.36,2.116-.27.27-.541,0-1.216,0-.36,0-.63.36-.945.18a8.908,8.908,0,0,1-1.666-1.486c-.18-.18-.18-1.036-.63-.856-.36.09.18.721.36.945.45.721,1.666,1.036,1.4,1.846-.09.45-.63.721-1.4.63a9.617,9.617,0,0,1-2.88-1.036c-.09.09-.18.27-.27.27a8.608,8.608,0,0,1,2.7,1.036c.27.18-.09.945,0,1.126,0,.27.45.18.45.36,0,.27-.18.18-.27.36s.36.36.36.63a5.668,5.668,0,0,1-.18,1.216c0,.09-.18.45-.09.63.18.09.45-.09.63.27a5.411,5.411,0,0,0,1.306,2.026c.09.18-.541.63-.36.63s0,.18.18.18.36-.856.541-.856c.27,0,.18.27.36.27.721,0,.945.721,1.486.721s.63-.36,1.036-.45c.541-.18.721-.721,1.216-.721,1.126,0,1.576,1.4,1.486,2.206,0,.27-.09.27,0,.45.541,1.4.541,3.242,2.026,3.152h.18C71.539,79.5,70.323,78.2,69.692,77.567Z" transform="translate(-23.179 -33.471)" fill="#fff" opacity="0.8"/>
            <path id="Path_7" d="M26.819,82.985c.45-1.036,1.4-1.486.856-2.026-.63-.63.18-1.216-.721-2.026-.09-.09.27-.27.18-.45-.18-.27-.45,0-.63-.09-.18-.18.18-.541.09-.721-.18-.27-.63.18-.856,0-.09-.09-.09-.27-.18-.45-.27-.36-.36-.45-.945-.27-.18.09-.63.27-.63.09-.09-.27-.09-.36-.36-.36a7.273,7.273,0,0,1-1.4-.09c-.36-.09-1.036.721-1.576,1.4-.18.27-1.036.09-1.126.36-.09.36.18.541.09.721-.09.27-.945.09-.945.36-.09.856-.63,1.486-.36,1.666.36.27.09.63.18,1.4.09.63.541.36.856.856.45.63.36,1.036.63,1.216.18.18.541-.36.721-.27s0,.36.18.45.36-.09.63-.09.09.36.36.45c.45.18,1.036-.63,1.4-.45.18.09.18.63.45.541s.27-.541.36-.721a.468.468,0,0,1,.36-.18c.27,0,.36.541.541.27C25.784,83.616,26.414,83.841,26.819,82.985Z" transform="translate(-1.649 -41.95)" fill="#fff" opacity="0.8"/>
            <path id="Path_8" d="M45.361,17.491a3.351,3.351,0,0,1,1.036-.63c1.666-.63.945-2.206,2.882-1.486.541.27,1.4.27,1.756.45.541.27.541.721,1.216.945,1.846.36,1.486,3.6.721,5-1.216,2.432-4.728,2.612-6.664,1.126a3.575,3.575,0,0,1-1.216-3.918A6.517,6.517,0,0,0,45.361,17.491Z" transform="translate(-16.318 -8.2)" fill="#fff" opacity="0.95"/>
            <path id="Path_9" d="M53.071,11.115c.36.541,1.486-.45,1.126-.856C53.746,9.809,52.89,10.8,53.071,11.115Z" transform="translate(-20.786 -5.426)" fill="#fff" opacity="0.95"/>
            <path id="Path_10" d="M59.661,8.679a.433.433,0,0,0,.18.541c.27.18.63-.18.541-.45C60.426,8.362,59.84,8.274,59.661,8.679Z" transform="translate(-24.404 -4.476)" fill="#fff" opacity="0.95"/>
            <path id="Path_11" d="M55.3,14.422c-.63.36.09.541.45.45S55.746,14.149,55.3,14.422Z" transform="translate(-21.885 -7.74)" fill="#fff" opacity="0.95"/>
            <path id="Path_12" d="M72.25,12.624a.519.519,0,0,0,.721-.721C72.61,11.408,71.62,12.174,72.25,12.624Z" transform="translate(-31.23 -6.305)" fill="#fff" opacity="0.95"/>
            <path id="Path_13" d="M85.272,19.28c.18.18.945-.18.856-.45C85.992,18.6,85.091,19.1,85.272,19.28Z" transform="translate(-38.488 -10.169)" fill="#fff" opacity="0.95"/>
            <path id="Path_14" d="M84.517,21.144c-.945,1.666.541.18.63-.09C85.147,20.694,84.607,20.874,84.517,21.144Z" transform="translate(-37.914 -11.313)" fill="#fff" opacity="0.95"/>
            <path id="Path_15" d="M101.94,28.623c.18-.36-.27-.541-.45-.45C100.814,28.307,101.67,29.253,101.94,28.623Z" transform="translate(-47.277 -15.324)" fill="#fff" opacity="0.95"/>
            <path id="Path_16" d="M57.448,7.887c.36.09.27-.27.18-.36C57.134,6.941,56.772,7.661,57.448,7.887Z" transform="translate(-23.001 -3.864)" fill="#fff" opacity="0.95"/>
            <path id="Path_17" d="M100.864,18.52c.45,0,.541-.945,0-1.126C100.279,17.3,100.279,18.52,100.864,18.52Z" transform="translate(-46.831 -9.409)" fill="#fff" opacity="0.95"/>
            <path id="Path_18" d="M78.456.692c-.541.09-.721.27-.856,1.126a.968.968,0,0,0,.63.856h.09c.541,0,1.216-.45.856-.856-.18-.27-.63.18-.63-.09C78.636,1.458,79.312.6,78.456.692Z" transform="translate(-34.283 -0.227)" fill="#fff" opacity="0.95"/>
            <path id="Path_19" d="M68.352,16.113c-.27.18.856.63,1.126.541C69.747,16.381,68.621,15.841,68.352,16.113Z" transform="translate(-29.177 -8.667)" fill="#fff" opacity="0.95"/>
            <path id="Path_20" d="M97.856,14.374c.27.45,1.036-.18.856-.36C98.486,13.834,97.63,14.016,97.856,14.374Z" transform="translate(-45.398 -7.515)" fill="#fff" opacity="0.95"/>
            <path id="Path_21" d="M72.675,3.6c-.63.09-.36,1.666.45,1.4C73.711,4.906,73.035,3.6,72.675,3.6Z" transform="translate(-31.385 -1.828)" fill="#fff" opacity="0.95"/>
            <path id="Path_22" d="M15.941,24.929c0-.09,0-.18-.09-.18-.09-.18-.45.27-.45.36a.286.286,0,0,0,.541-.18Z" transform="translate(-0.091 -13.431)" fill="#fff" opacity="0.95"/>
            <path id="Path_23" d="M9.971,20.147c.18-.09.18-.36.27-.45s.18.18.27.27c.27.27.18-1.216,0-1.306C10.2,18.346,9.43,20.508,9.971,20.147Z" transform="translate(2.997 -10.091)" fill="#fff" opacity="0.95"/>
            <path id="Path_24" d="M13.863,19.655a.331.331,0,0,0,.09-.27c-.09-.18-.36-.09-.36.18C13.547,19.655,13.773,19.746,13.863,19.655Z" transform="translate(0.906 -10.455)" fill="#fff" opacity="0.95"/>
            <path id="Path_25" d="M9.708,16.68c.541-.45-.09-1.126-.45-.856C8.763,16.41,9.3,16.95,9.708,16.68Z" transform="translate(3.395 -8.515)" fill="#fff" opacity="0.95"/>
            <path id="Path_26" d="M46.817,25.38a.542.542,0,0,0-.09-.36C45.872,23.983,46.682,26.865,46.817,25.38Z" transform="translate(-17.099 -13.477)" fill="#fff" opacity="0.95"/>
            <path id="Path_27" d="M50.834,24.6c.36-.27.45-1.126.09-1.216C50.34,23.207,49.888,25.413,50.834,24.6Z" transform="translate(-19.27 -12.7)" fill="#fff" opacity="0.95"/>
            <path id="Path_28" d="M14.742,10.7c.09.18.27.09.36-.09.09-.09,0-.27,0-.36C14.921,9.893,14.561,10.434,14.742,10.7Z" transform="translate(0.298 -5.42)" fill="#fff" opacity="0.95"/>
            <path id="Path_29" d="M14.36,8.118a.435.435,0,0,0-.09-.63A.331.331,0,0,0,14,7.4C13.234,7.351,14,8.838,14.36,8.118Z" transform="translate(0.86 -3.915)" fill="#fff" opacity="0.95"/>
            <path id="Path_30" d="M18.424,8.992c.45-.541-.36-1.486-.721-1.036C17.208,8.541,17.974,9.533,18.424,8.992Z" transform="translate(-1.269 -4.158)" fill="#fff" opacity="0.95"/>
            <path id="Path_31" d="M11.772,6.35c.09.18.27-.09.27-.27a.194.194,0,0,0-.18-.18h-.09C11.59,5.99,11.683,6.26,11.772,6.35Z" transform="translate(1.961 -3.093)" fill="#fff" opacity="0.95"/>
            <path id="Path_32" d="M40.166,12.464a.608.608,0,0,0,.36-.541C40.707,10.888,39.131,12.824,40.166,12.464Z" transform="translate(-13.51 -6.235)" fill="#fff" opacity="0.95"/>
            <path id="Path_33" d="M26.439,5.135c.27-.45,0-1.036-.36-.945-.09.09-.27.18-.27.27C25.313,4.954,26.124,5.585,26.439,5.135Z" transform="translate(-5.727 -2.147)" fill="#fff" opacity="0.95"/>
            <path id="Path_34" d="M43.665,10.976c.45-.541-.27-.945-.45-.45C42.989,10.887,43.349,11.382,43.665,10.976Z" transform="translate(-15.342 -5.513)" fill="#fff" opacity="0.95"/>
            <path id="Path_35" d="M13.923.323c.27-.09.18-.541,0-.63S13.518.5,13.923.323Z" transform="translate(0.846 0.323)" fill="#fff" opacity="0.95"/>
            <path id="Path_36" d="M35.961,6.828a.223.223,0,0,0,.36.09c.27-.18.09-.721-.18-.63a.433.433,0,0,0-.18.54Z" transform="translate(-11.375 -3.301)" fill="#fff" opacity="0.95"/>
            <path id="Path_37" d="M45.12,4.544c.27.36.63.18.856-.27C46.336,3.058,44.445,3.689,45.12,4.544Z" transform="translate(-16.348 -1.827)" fill="#fff" opacity="0.95"/>
            <path id="Path_38" d="M35,4.828c.09.27.36-.541.09-.36a.932.932,0,0,0-.09.36Z" transform="translate(-10.865 -2.291)" fill="#fff" opacity="0.95"/>
            <path id="Path_39" d="M50.121,6.7c-.18-.72-1.126-.09-1.126.361C48.905,7.736,50.391,7.647,50.121,6.7Z" transform="translate(-18.557 -3.354)" fill="#fff" opacity="0.95"/>
            <path id="Path_40" d="M33.89,29.2c.27,0,.27.63-.09.541C33.89,29.56,33.754,29.47,33.89,29.2Z" transform="translate(-10.206 -15.902)" fill="#fff" opacity="0.95"/>
            <path id="Path_41" d="M41.168,25.438c.856-.856-.36-2.206-1.126-1.486C39.322,24.807,40.627,26.113,41.168,25.438Z" transform="translate(-13.521 -12.904)" fill="#fff" opacity="0.95"/>
            <g id="Group_1" transform="translate(13.46 30.674)" opacity="0.8">
              <path id="Path_42" d="M7.072,39.95l.18-.18a2.061,2.061,0,0,0-1.036-2.7c-.09,0-.18-.09-.27-.09-.36-.09-.721.09-1.036-.18-.09-.09,0-.36-.09-.45a4.328,4.328,0,0,0-.63-.945c-.945-.856-2.972-.945-3.512.18a5.434,5.434,0,0,0-.36.856c0,.18-.09.36-.09.541-1.216-.18-2.522.45-1.846,1.576.09.18.36.27.27.36s-.18,0-.27,0c-.09.09,0,.18-.09.36-.09.27-.36.27-.721.36-1.846.945,0,4.007,2.026,4.278a3.174,3.174,0,0,0,1.576-.18c.09,0,0-.09.18-.18.45-.18.541-.09.721-.45,0,0,.09-.36.27-.36.541.18.27,1.126.63,1.4a2.164,2.164,0,0,0,2.612-.27c.09-.18.36-.27.541-.45.45-.45-.09-1.216-.27-1.486-.09-.09-.36-.18-.45-.36,0-.27.27-.541.36-.856.09-.18.45.09.541-.09.09-.09.27-.27.36-.18.18.541.856.856,1.036.09C7.838,40.22,7.657,39.95,7.072,39.95Z" transform="translate(3.19 -34.749)" fill="#fff"/>
            </g>
            <path id="Path_43" d="M3.208,60.156c.45-1.036,1.4-1.486.721-2.116-.63-.63.18-1.216-.721-2.116-.18-.09.27-.27.18-.45-.18-.27-.45,0-.63-.09-.18-.18.18-.541.09-.721-.18-.27-.63.18-.856,0-.09-.09-.09-.36-.18-.45-.27-.36-.36-.45-.945-.27-.18.09-.63.27-.63.09-.09-.36-.09-.45-.405-.45a7.273,7.273,0,0,1-1.4-.09c-.361-.093-1.036.72-1.576,1.4-.18.27-1.036.09-1.126.36-.09.36.18.541.09.721-.09.27-.945.09-.945.36,0,.856-.541,1.486-.27,1.756.36.27.09.63.18,1.4.09.63.541.36.945.856.45.63.36,1.036.63,1.216.18.18.541-.36.856-.27.18.09,0,.36.18.45s.36-.09.63-.09.09.36.36.45c.45.27,1.036-.63,1.4-.45.18.09.18.63.541.541.27-.09.27-.541.36-.721a.468.468,0,0,1,.36-.18c.27,0,.36.541.541.27C2.082,60.831,2.8,61.011,3.208,60.156Z" transform="translate(11.381 -29.251)" fill="#fff" opacity="0.95"/>
            <g id="Group_2" transform="translate(21.886 32.441)" opacity="0.8">
              <path id="Path_44" d="M59.746,56.6c-.09-.09-.18-.09-.27-.18-.541-.36-.945-1.036-1.4-.721-.09.09-.18.18-.18.27,0,.18.36.45.541.721a2.952,2.952,0,0,0,1.306,1.126V56.6Z" transform="translate(-34.753 -47.149)" fill="#fff"/>
              <path id="Path_45" d="M6.543,47.3c-.18-.18.18-.09.36-.27s.63.09,1.036,0c0,0-.18-.09-.09-.09a.879.879,0,0,1,1.036.09c.09.09-.18,0-.18,0C7.8,46.989,6.9,47.575,6.543,47.3Z" transform="translate(-6.494 -42.31)" fill="#fff"/>
              <path id="Path_46" d="M15.567,65.276c-.18-.36.541-1.306,1.126-.945a.675.675,0,0,0,.45.09c.721-.18.721-1.036,1.486-1.306.18-.09.27,0,.541-.09.09,0,.09.09.18.09.18,0,.36-.27.45-.09.18.27-.541.36-.856.541-1.126.541-1.306,2.116-2.792,2.116C15.837,65.636,15.657,65.546,15.567,65.276Z" transform="translate(-11.467 -51.186)" fill="#fff"/>
              <path id="Path_47" d="M16.663,41.373c-.18-.09.45-.18.721,0C17.743,41.553,16.842,41.553,16.663,41.373Z" transform="translate(-12.067 -39.261)" fill="#fff"/>
              <path id="Path_48" d="M22.758,41.935c-.18-.18.36-.18.45,0C23.432,42.025,22.937,42.025,22.758,41.935Z" transform="translate(-15.414 -39.553)" fill="#fff"/>
              <path id="Path_49" d="M24.1,42.19h0a.088.088,0,0,1,.09-.09v.09Z" transform="translate(-16.172 -39.717)" fill="#fff"/>
              <path id="Path_50" d="M21.122,53.878a.169.169,0,0,1,0-.27h0c.27-.27.63.27.36.36C21.39,54.058,21.3,53.968,21.122,53.878Z" transform="translate(-14.498 -46.003)" fill="#fff"/>
              <path id="Path_51" d="M36.35,44.78c-.09.09-.27-.18-.18-.18S36.486,44.69,36.35,44.78Z" transform="translate(-22.794 -41.092)" fill="#fff"/>
              <path id="Path_52" d="M48.571,38.246c-.09-.09.09-.541.09-.541s.629-1.126,1.576-.854c.63.09,1.486,0,1.576.856,0,.541.63,1.4-.27,1.756-1.486.541-1.126-.541-2.341-.945C49.2,38.425,48.66,38.336,48.571,38.246Z" transform="translate(-29.611 -36.809)" fill="#fff"/>
              <path id="Path_53" d="M50.333,59.722a1.388,1.388,0,0,1,.856,0c.721.36,1.4,1.486.721,1.756-.541.27-1.036-.63-1.486-1.126C50.333,60.215,50.018,59.81,50.333,59.722Z" transform="translate(-30.518 -49.367)" fill="#fff"/>
              <path id="Path_54" d="M43.187,60.357c0,.27-.27.27-.45.36a1.3,1.3,0,0,1-1.036-.09c-.27-.36.18-.856.721-.856a.6.6,0,0,1,.765.586Z" transform="translate(-25.804 -49.42)" fill="#fff"/>
              <path id="Path_55" d="M55.035,65.4c.18,0,.36.09.63.09.18.18.541.27.63.45.18.36-.63,1.216-1.486.856-.541-.45,0-.856.09-1.126C54.945,65.67,55.035,65.4,55.035,65.4Z" transform="translate(-32.924 -52.526)" fill="#fff"/>
              <path id="Path_56" d="M12.724,46.875c-.45-.09.27,0,.63-.09.45-.09-.45.36-.541.27S12.815,46.875,12.724,46.875Z" transform="translate(-9.84 -42.287)" fill="#fff"/>
              <path id="Path_57" d="M10.536,39.72c-.27.541-2.206.27-2.341-.36-.09-.45,1.126,0,1.666.09C10.221,39.54,10.626,39.45,10.536,39.72Z" transform="translate(-7.426 -38.103)" fill="#fff"/>
              <path id="Path_58" d="M19.679,47.1a1.142,1.142,0,0,1,.541-.09c.27-.09.945-.36,1.126-.18.63.541-.45.45-.856.541-.18,0-.36.09-.541.09a.812.812,0,0,1-.45-.09C19.5,47.276,19.59,47.186,19.679,47.1Z" transform="translate(-13.643 -42.282)" fill="#fff"/>
              <path id="Path_59" d="M21.061,42.228c-.27.27-.945,0-1.306-.18s-.721,0-.856-.27c0-.27.63.09.945.09.27.09.856,0,1.126.18C20.971,42.137,21.151,42.137,21.061,42.228Z" transform="translate(-13.314 -39.485)" fill="#fff"/>
              <path id="Path_60" d="M24.288,42.786c-.09-.18.45.09.45-.09a.278.278,0,0,1-.18-.09c-.18-.18.27,0,.45.09.36.27,1.216.27,1.126.541C26.044,43.552,24.558,43.146,24.288,42.786Z" transform="translate(-16.27 -39.953)" fill="#fff"/>
              <path id="Path_61" d="M37.39,43.255a.088.088,0,0,0-.09.09c0,.09.09.09.18,0S37.48,43.163,37.39,43.255Z" transform="translate(-23.429 -40.331)" fill="#fff"/>
              <path id="Path_62" d="M37.7,43.836v.09h0c.27.09.541.36.45.18C38.15,43.97,37.88,43.655,37.7,43.836Z" transform="translate(-23.649 -40.642)" fill="#fff"/>
              <path id="Path_63" d="M40.775,43.83c-.945.09-1.846.18-2.792.36-.36.09-.721.45-1.126.45-.541-.09-.36-.721-.856-1.126a3.214,3.214,0,0,0-2.026-.45c-.36-.09-1.216-.541-1.486.36,0,0,.18.09.18.18s-.27.09-.36.09h-.18s.09.18-.09.18c-.09,0-.18-.27-.18-.09-.09.18,0,.36-.27.36-.18,0,.09-.36-.09-.27-.27.09-.541-.09-.63,0-.27.18.09.541.36.541.09,0,0,.09.09.09s.18,0,.09.09h-.18a.088.088,0,0,1-.09-.09c-.18-.27-.36-.721-.541-.541s.36.27.27.45c-.09.09-.09.09-.27.09-.856-.09-1.036-.856-1.666-.721-.18,0-.27-.09-.45-.09-.45-.18-1.036-.45-1.126-.09-.09.541,1.666.27,2.206.63.18.09.36.541.45.721.09.09-.36.09-.27.18.18.18.856,0,.541.18-.09.09-.541.09-.63.09-1.036.45,0,.63.09,1.126,0,.09.36.09.36.27h0c-.09.18-1.216-.63-1.306-.36s.856.36.856.541-.27-.09-.45-.09c-.09,0-.09.09-.18.09-.18.27.63.09.36.36-.09.09-.45-.36-.63-.18s.45.09.18.27c-.18.09-1.126-.27-1.4-.18-.856.45-2.432,0-2.341.541.18.721,3.242-.541,3.827.18a.749.749,0,0,1,.09.945h0c-.18.18-.09,0-.18.18a14.644,14.644,0,0,1-2.792,1.756c-.45.27-1.306.45-.945.63,1.486,1.036,2.792-2.882,4.908-2.116a.6.6,0,0,1,.36.63c0,.09-.18,0-.18.09-.09.36-1.306.63-1.036,1.036,0,.09.18.09.09.09-.27.09-.45.541-.721.63-.856.27,0,1.306-.856,1.846-.09,0-.18.18-.18.36s.36.09.541,0c.45-.36.45-.945.856-1.486.27-.45.18-.945.541-1.4a8.908,8.908,0,0,1,1.666-1.486c.18-.09.541-.541.945-.45.36.09.63.721.945.63.27-.09,0-.721.27-.945a2.376,2.376,0,0,1,1.756-.09c.541.18.721,1.936,1.756,1.216.541-.36-2.206-.856-.36-2.116.63-.45.36-1.486,1.126-2.026a1.557,1.557,0,0,1,.945-.18c.63,0,1.666.27,1.666-.27,0-.36-1.216,0-1.666,0a.812.812,0,0,1-.45-.09c-.09-.09-.36-.18-.27-.27a1.969,1.969,0,0,1,.45-.27,21.375,21.375,0,0,1,2.432-.63c.09,0,0-.09.09-.09H41C40.775,43.92,40.775,43.92,40.775,43.83Zm-10.942,3.6h-.09a.314.314,0,0,1,.18-.09c.09,0-.09,0-.09.09Zm.36-.99c-.09.09-.18,0-.27-.09s.18-.18.27-.09v.18Zm.09-.585a.541.541,0,0,1-.36-.09c-.09-.18.36-.18.45,0C30.42,45.767,30.42,45.857,30.283,45.857Zm.315-.9a.314.314,0,0,1,.18-.09C30.778,44.956,30.6,44.956,30.6,44.956Z" transform="translate(-16.727 -40.142)" fill="#fff"/>
              <path id="Path_64" d="M41.2,44.4Z" transform="translate(-25.573 -40.982)" fill="#fff"/>
            </g>
            <path id="Path_65" d="M77.8,66.093c.27.09.18.721-.09.856C77.392,66.9,77.62,66,77.8,66.093Z" transform="translate(-34.256 -36.179)" fill="#fff" opacity="0.8"/>
            <path id="Path_66" d="M79.336,64.4c-.09.09-.18.18-.18.27-.18.18-.18.721.18.45l.09-.09V64.4Z" transform="translate(-35.074 -35.252)" fill="#fff" opacity="0.8"/>
            <path id="Path_67" d="M85.831,67.736c1.036.45,1.306,1.036,1.036,2.882a1.581,1.581,0,0,1-1.756,1.4h-.272c-1.126-.36-2.161-1.666-1.261-2.432.541-.36,1.126.721,1.306.27C85.156,69.4,84.345,67.015,85.831,67.736Z" transform="translate(-37.382 -37.012)" fill="#fff" opacity="0.8"/>
            <path id="Path_68" d="M102.156,64.791c1.306.36-.18,2.972-1.126,2.882C100.31,67.672,101.525,64.611,102.156,64.791Z" transform="translate(-47.042 -35.463)" fill="#fff" opacity="0.8"/>
            <path id="Path_69" d="M72.393,69.373c.18-.27.36,1.936-.18,1.306C71.762,70.183,72.034,69.733,72.393,69.373Z" transform="translate(-31.192 -37.973)" fill="#fff" opacity="0.8"/>
            <path id="Path_70" d="M76.37,66.763c.18.27-1.036.541-1.216.27C74.884,66.763,76.145,66.493,76.37,66.763Z" transform="translate(-32.918 -36.49)" fill="#fff" opacity="0.8"/>
            <path id="Path_71" d="M64.8,79.611c-.36-.36.541-.541,1.126-.27C66.738,79.882,65.162,79.971,64.8,79.611Z" transform="translate(-27.204 -43.394)" fill="#fff" opacity="0.8"/>
            <path id="Path_72" d="M98.076,78.177c1.306.541-.27,3.918-1.666,2.972C95.329,80.518,97.265,77.907,98.076,78.177Z" transform="translate(-44.448 -42.815)" fill="#fff" opacity="0.8"/>
            <path id="Path_73" d="M70.578,54.41c4.548-.856,4.368,5.673,0,5a2.463,2.463,0,0,1-2.206-2.794,2.787,2.787,0,0,1,2.206-2.2Zm1.756,1.936c-.18.18,0,.45.18.541.09.09.45.09.63.09.27.09.18-.45.18-.63-.046-.363-.585-.271-.99,0Z" transform="translate(-29.198 -29.718)" fill="#fff"/>
            <path id="Path_74" d="M75.54,66.878a4.277,4.277,0,0,1,.856.721c1.036,1.306,2.432.36,2.116,2.206-.09.541.09,1.306,0,1.666-.18.541-.63.63-.63,1.306,0,1.756-3.332,2.026-4.908,1.756A3.949,3.949,0,0,1,70,69.895a4.032,4.032,0,0,1,.36-1.036,3.712,3.712,0,0,1,3.692-1.846C74.685,67.057,75.36,66.785,75.54,66.878Z" transform="translate(-30.062 -36.603)" fill="#fff" opacity="0.8"/>
            <path id="Path_75" d="M68.629,33.527c.856.36,2.341.36,2.882.856a4.637,4.637,0,0,1,1.126,1.486,3.351,3.351,0,0,1,.09,2.792c-1.036,1.936-3.242.63-4.187,1.756-.45.541-.45,1.576-.945,1.846a3.17,3.17,0,0,1-2.206.27,2.181,2.181,0,0,1-1.576-2.522,2.552,2.552,0,0,1,.541-1.036c.18-.18.36-.18.541-.36s0-.541-.18-.721c-.945-.945-3.242-.856-3.918-1.576a4.165,4.165,0,0,1-.721-3.827A4.674,4.674,0,0,1,64.261,29.7a5.6,5.6,0,0,1,1.756.45,6.225,6.225,0,0,1,1.756,1.666C68.27,32.447,68,33.347,68.629,33.527Zm-4.1-2.656a.307.307,0,0,1,.09-.541C64.937,30.2,66.107,31.231,64.531,30.871Z" transform="translate(-24.547 -16.177)" fill="#fff" opacity="0.8"/>
            <path id="Path_76" d="M-17.755,41.042c.27-.27.63.63.36,1.036a.608.608,0,0,1-.541.36.7.7,0,0,1-.27-.63C-18.115,41.4-18.025,41.131-17.755,41.042Z" transform="translate(18.385 -22.384)" fill="#fff" opacity="0.8"/>
            <path id="Path_77" d="M-.522,33.66c.541-.27.856,1.126.27,1.126a.6.6,0,0,1-.63-.36C-1.242,34.109-.882,33.839-.522,33.66Z" transform="translate(8.942 -18.334)" fill="#fff" opacity="0.8"/>
            <path id="Path_78" d="M-8.21,33.011c.63-.45.856,1.216.36,1.576-.27.18-.45.09-.721-.09-.18-.09,0-.18-.18-.45C-8.931,33.64-8.481,33.279-8.21,33.011Z" transform="translate(13.209 -17.954)" fill="#fff" opacity="0.8"/>
            <path id="Path_79" d="M3.122,40.072c.18-.18.09.721-.09.721C2.762,40.612,2.943,40.252,3.122,40.072Z" transform="translate(6.784 -21.865)" fill="#fff" opacity="0.8"/>
            <path id="Path_80" d="M55.965,2.833A2.551,2.551,0,0,0,57,2.293c.63-1.4.63-2.792-.27-2.611C55.693-.049,55.6,2.2,55.965,2.833Z" transform="translate(-22.285 0.334)" fill="#fff" opacity="0.8"/>
            <path id="Path_81" d="M5.913,42.8c.765.09-.27.99-.45.541a.4.4,0,0,1,.27-.541Z" transform="translate(5.388 -23.378)" fill="#fff" opacity="0.8"/>
            <path id="Path_82" d="M-7.854,38.191c-.63-.36-.09-1.216.27-1.576C-6.008,35.219-6.458,38.956-7.854,38.191Z" transform="translate(12.852 -19.804)" fill="#fff" opacity="0.8"/>
            <path id="Path_83" d="M9.521,57.921c.09-.09.09-.09.18,0s.09.18,0,.18-.09.09-.18,0S9.428,57.921,9.521,57.921Z" transform="translate(3.179 -31.653)" fill="#fff" opacity="0.8"/>
            <path id="Path_84" d="M5.653,61.022a.274.274,0,0,1,.36,0,.169.169,0,0,1,0,.27h0a.274.274,0,0,1-.36,0S5.563,61.2,5.653,61.022Z" transform="translate(5.289 -33.358)" fill="#fff" opacity="0.8"/>
            <path id="Path_85" d="M6.5,67.17c.09-.18.18-.27.36-.27s.27.18.18.27h0c-.09.18-.18.27-.36.27C6.59,67.441,6.5,67.261,6.5,67.17Z" transform="translate(4.802 -36.626)" fill="#fff" opacity="0.8"/>
            <path id="Path_86" d="M-.114,76.625c.36.45,0,.541-.36,1.216-.18.362-.633-.27-.54-.54C-1.061,76.9-.519,76.175-.114,76.625Z" transform="translate(8.94 -41.894)" fill="#fff" opacity="0.8"/>
            <path id="Path_87" d="M10.13,82.391c-.27-.27.45-.63.63-.45C11.164,82.211,10.444,82.661,10.13,82.391Z" transform="translate(2.839 -44.868)" fill="#fff" opacity="0.8"/>
            <path id="Path_88" d="M3.2,93.156a1.257,1.257,0,0,1,.541-1.126c1.846-1.666.541,4.187-.36,1.846A2.407,2.407,0,0,1,3.2,93.156Z" transform="translate(6.62 -50.274)" fill="#fff" opacity="0.8"/>
            <path id="Path_89" d="M8.061,59.518c.45.27-.856,1.4-1.216.856C6.576,59.878,7.611,59.023,8.061,59.518Z" transform="translate(4.636 -32.486)" fill="#fff" opacity="0.8"/>
            <path id="Path_90" d="M-18.15,91.858c.09-.09-.36-.09-.45-.27,0-.09,0-.27.09-.27s.09-.09.18-.09c.18-.18.541.09.63.27.18.27-.18.36-.45.63C-18.24,92.218-18.15,91.948-18.15,91.858Z" transform="translate(18.6 -49.967)" fill="#fff" opacity="0.8"/>
            <path id="Path_91" d="M-6.567,89.09c.27-.36.63.45.45.721-.18.18-.18-.541-.45-.45C-6.793,89.36-6.7,89.18-6.567,89.09Z" transform="translate(12.061 -48.775)" fill="#fff" opacity="0.8"/>
            <g id="Group_3" transform="translate(1.75 9.198)" opacity="0.8">
              <path id="Path_92" d="M7.4,17.536h-.09c-.27-.36-.18-1.936.27-1.936s.45,1.306.27,1.756c-.09.09-.36.45-.45.36a.125.125,0,0,1,0-.18Z" transform="translate(3.542 -13.155)" fill="#fff"/>
              <path id="Path_93" d="M18.065,30.188c.18,0,.09.45,0,.63-.09.09-.36.18-.45,0C17.389,30.638,17.749,30.1,18.065,30.188Z" transform="translate(-2.165 -21.168)" fill="#fff"/>
              <path id="Path_94" d="M24.643,40.9a.744.744,0,0,1-.856,0c-.09-.18.45-.856.721-.721C24.733,40.133,24.823,40.809,24.643,40.9Z" transform="translate(-5.592 -26.656)" fill="#fff"/>
              <path id="Path_95" d="M-7.2,35.02c0,.18-.27.541-.45.541s-.36-.36-.45-.541c0-.09.09-.18.18-.27C-7.65,34.615-7.2,34.84-7.2,35.02Z" transform="translate(11.932 -23.659)" fill="#fff"/>
              <path id="Path_96" d="M.751,49.986c.18-.09,0,.36.09.541.27.856-.36,1.756-.541,2.612-.09.27,0,1.036-.27.856C-1.141,53.318-.554,50.616.751,49.986Z" transform="translate(7.809 -32.051)" fill="#fff"/>
              <path id="Path_97" d="M-16.516,47.8c-.09,0-.09-.09-.09-.18-.09-.45,1.216-1.126,1.4-.63v.09C-15.12,47.528-15.975,47.8-16.516,47.8Z" transform="translate(16.611 -30.314)" fill="#fff"/>
              <path id="Path_98" d="M-2.711,49.2c.45,0-.36.721-.45,1.216-.09.27-.45.945-.63.63A1.354,1.354,0,0,1-3.7,49.961a1.354,1.354,0,0,1,.858-.67C-2.936,49.29-2.846,49.2-2.711,49.2Z" transform="translate(9.605 -31.625)" fill="#fff"/>
              <path id="Path_99" d="M-.18,62.8c.09,0,.09.18,0,.27S-.272,62.8-.18,62.8Z" transform="translate(7.616 -39.102)" fill="#fff"/>
              <path id="Path_100" d="M-.831,63.4c.27,0,0,1.126-.18,1.036C-1.507,64.345-1.19,63.4-.831,63.4Z" transform="translate(8.176 -39.431)" fill="#fff"/>
              <path id="Path_101" d="M1.725,28.464a.6.6,0,0,1,.45-.36c.09,0,.945.36,1.036-.09a.912.912,0,0,0-.27-.945c-.09,0-.36.18-.45.09s0-.541.09-.721.63-.45.63-.36c.09.09-.27.36-.18.45.18.18.856.09,1.126-.09a.858.858,0,0,0,.18-.63,1.4,1.4,0,0,0-.721-.541c-.27,0-.721.36-.945.27-.18-.09-.541-.36-.541-.45s.36,0,.45-.09-.18-.27-.27-.45.541-.721.45-.856c-.36-.541-.945.45-1.126.36-.09,0-.09-.09-.09-.18A2.332,2.332,0,0,1,2.939,22.3c.09,0,.27.27.36.27.27-.09.36-.63.541-.856.18-.27,1.216-.63,1.036-.945-.178-.27-.854.72-1.214.72-.09,0-.27-.27-.36-.27-.27.09-.45.63-.63.721-.36.36-1.306,1.216-1.756,1.126-.09,0-.09-.09-.09-.18.09-.36.945-.63,1.216-.945.09-.18.36-.45.36-.63a.669.669,0,0,0-.541-.541c-.27,0-.63.45-.63.721,0,.09.18.18.09.27-.09.27-.63.945-.945.856-.18-.09-.09-.541,0-.721s.541-.09.541-.36-.721-.36-.945-.27c-.09.09-.09.36-.18.45s-.09.089-.182.089c-.27-.09-.36-.45-.541-.63s.36-1.036.18-1.306c-.09-.18-1.4-.63-1.4-.721.09-.63.721-.45.856-1.036a2.552,2.552,0,0,1,.541-1.036c.27-.27.541-.63.856-.945.27-.27.45-.541.721-.856a13.7,13.7,0,0,1,1.756-1.216c1.036-.18-.27-.63-.45-.45a11.414,11.414,0,0,0-1.4,1.666c-.18.27-.945.45-1.126.721s-.09.63-.36.945c-.45.541-.945,1.666-1.576,1.756-.45.09-.856-.63-1.126-1.126-.27-.541.18-2.7-.541-2.612s.27,2.432-.09,3.062c-.09.09-.18.18-.27.18a1.532,1.532,0,0,1-.63-.09A5.109,5.109,0,0,1-6.11,16.8c-.09-.36-.27-.856-.36-1.306-.09-.27-.27-1.036-.36-1.306a2.354,2.354,0,0,1-.271-.72c0-.36-.18-.63-.09-.945,0-.09-.09-.09,0-.18,0-.09.27-.09.27-.18.27-.36.541-1.4.27-1.666a1.822,1.822,0,0,0-2.206.09,2.512,2.512,0,0,0-.45,1.936c.09.18.63.27.856.45.27.18.45.856.63,1.126.09.09.18.09.27.18A11.785,11.785,0,0,1-6.515,16.8c0,.09.09.36.09.45s.27.27.27.36v.27c0,.18.18.541.18.721a1.833,1.833,0,0,1-.63.541c-.18.18-.721.541-.945.45-.09,0-.09-.45-.18-.45-.18,0-.63.541-.541.721s.63-.18.721-.09c.18.18-.18.721-.27.945-.09.18-.18.541-.36.63s-.721-.18-.856-.09a.169.169,0,0,0-.068.135.169.169,0,0,0,.068.135c.09.18.63,0,.721.09.09.18-.18.63-.18.945,0,.27.18.945.09,1.126-.09.09-.18.27-.36.27a.4.4,0,0,1,.45,0c.18.09-.18.63-.27.945a1.937,1.937,0,0,1-.36.5c-.27.18-.63.36-.945.541-.36.27-1.036.541-1.036.856-1.126.27-3.242,1.4-2.612,2.206.72.946,2.115-1.4,3.242-2.114.856-.63,1.846-2.116,2.432-1.756.585.27-.99,1.936-.225,2.522.36.27.45-1.036,1.216-1.036.18,0,.27-.36.45-.27.36.27-.45,1.4,0,1.4.27,0,.18-1.216.63-1.126a6.206,6.206,0,0,1,.721.27,1.085,1.085,0,0,1,.45.45v.18c-.451.358-.722.943-.181.943.45,0,.18-.721.63-.541.63.27.27,1.306,1.306,1.4.27,0,.18.63.541.541.45-.18.63.09,1.036.18.27.09.63-.09,1.126-.09.18,0,.27-.45.45-.45.63.09.27-.18.45-.45.27-.36,1.666,1.126,2.026.856C2.939,29.77,1.635,28.644,1.725,28.464Z" transform="translate(14.985 -10.169)" fill="#fff"/>
              <path id="Path_102" d="M-3.33,41.6c-.09,0-.18.09-.27.09A.331.331,0,0,1-3.33,41.6Z" transform="translate(9.458 -27.444)" fill="#fff"/>
              <path id="Path_103" d="M23.253,52.62a4.674,4.674,0,0,0-1.576-.541c-.45-.09-1.486-.856-1.576-.63v.09c.721.856.541.541,1.486.856.63.18,1.216,1.216,1.846.63C23.522,52.8,23.253,52.71,23.253,52.62Z" transform="translate(-3.571 -32.839)" fill="#fff"/>
              <path id="Path_104" d="M-10.677,43.466c.45,1.036,2.116-1.036,3.152-1.666C-8.742,42.341-11.174,42.43-10.677,43.466Z" transform="translate(13.385 -27.557)" fill="#fff"/>
              <path id="Path_105" d="M-5.894,29.792a1.481,1.481,0,0,1-.27.856,1.874,1.874,0,0,1-1.216,0,1.391,1.391,0,0,1-.72-1.036c0-.945,1.216-1.038,1.306-.945a1.5,1.5,0,0,1,.9,1.125Z" transform="translate(11.932 -20.323)" fill="#fff"/>
              <path id="Path_106" d="M.068,59.1c.27,0,.09,1.036-.18,1.036C-.472,60.181-.2,59.1.068,59.1Z" transform="translate(7.636 -37.068)" fill="#fff"/>
              <path id="Path_107" d="M11.345,58.387c-.45.36-1.666-.63-1.756-1.126C9.5,56.9,10.129,56,10.49,56,11.163,56,11.886,57.936,11.345,58.387Z" transform="translate(2.213 -35.364)" fill="#fff"/>
            </g>
            <path id="Path_108" d="M29.467,70.516a2.07,2.07,0,1,1-2.252-1.035A2.38,2.38,0,0,1,29.467,70.516ZM28.342,72.5c-.18-.09-.36.18-.36.27s.09.36.09.45c0,.27.45,0,.541,0,.361-.18.089-.541-.271-.721Z" transform="translate(-5.693 -38.036)" fill="#fff" opacity="0.8"/>
            <path id="Path_109" d="M11.032,65.717a2.377,2.377,0,0,1,0,1.126c-.27,1.666,1.486,2.116-.27,3.152-.45.27-.856.945-1.306,1.126-.45.27-.945,0-1.4.36-1.306,1.126-3.918-1.216-4.818-2.7a3.968,3.968,0,0,1,1.4-5.4,4.277,4.277,0,0,1,1.216-.448,4.161,4.161,0,0,1,4.1,1.666C10.266,65.221,10.851,65.491,11.032,65.717Z" transform="translate(6.89 -34.407)" fill="#fff" opacity="0.8"/>
            <g id="Group_4" transform="translate(3.425 6.739)" opacity="0.8">
              <path id="Path_110" d="M-1.987,79.763c-.09-.27-.721-.18-.721-.541a.541.541,0,0,1,.09-.36A5.363,5.363,0,0,1-.095,75.621c.45-.18.856-.721,1.216-.721.09,0,.18.09.27.18.63.63-.541,1.216-1.126,1.846-.36.45-.856.945-1.036,1.216-.27.36,0,.541.18,1.126.269.631-1.037,1.036-1.125,1.666a10.517,10.517,0,0,1-.722,2.2.772.772,0,0,1-.63.541c-.18,0-.27-.09-.36-.27C-3.7,81.969-1.446,81.339-1.987,79.763Z" transform="translate(8.516 -44.513)" fill="#fff"/>
              <path id="Path_111" d="M19.824,7.5c.27-.27.09.18.45.45s-.09.945,0,1.306c0,.09.09-.18.18-.09a.929.929,0,0,1-.09,1.306.088.088,0,0,0-.09.09c-.18.09,0-.18,0-.27C20.275,9.164,19.329,7.949,19.824,7.5Z" transform="translate(-4.2 -7.415)" fill="#fff"/>
              <path id="Path_112" d="M-14.115,19.447c.63-.27,2.116.721,1.576,1.4a.534.534,0,0,0-.09.63c.36.945,1.666.945,2.206,1.846.18.27.09.36.18.721,0,.09-.18.09-.18.18,0,.27.45.45.18.63-.45.27-.541-.721-.945-1.126-.945-1.4-3.422-1.666-3.512-3.6A.74.74,0,0,1-14.115,19.447Z" transform="translate(14.701 -14.004)" fill="#fff"/>
              <path id="Path_113" d="M30.345,20.67c.18-.18.27.63.09,1.036C30.164,22.155,30.164,20.985,30.345,20.67Z" transform="translate(-9.992 -14.688)" fill="#fff"/>
              <path id="Path_114" d="M29.434,28.93c.27-.27.27.45,0,.63C29.253,29.649,29.253,29.019,29.434,28.93Z" transform="translate(-9.486 -19.209)" fill="#fff"/>
              <path id="Path_115" d="M29.09,30.6h.09v.18H29A.278.278,0,0,0,29.09,30.6Z" transform="translate(-9.322 -20.16)" fill="#fff"/>
              <path id="Path_116" d="M9.15,26.82a.4.4,0,0,1,.45,0c.36.27-.45.856-.63.45C8.877,27.088,9.059,27,9.15,26.82Z" transform="translate(1.702 -18.044)" fill="#fff"/>
              <path id="Path_117" d="M25.051,46.65c-.18-.09.27-.27.36-.18S25.14,46.74,25.051,46.65Z" transform="translate(-7.129 -28.871)" fill="#fff"/>
              <path id="Path_118" d="M30.787,62.379c.18-.09,1.036.18,1.036.18s1.756.856,1.486,2.116c-.18.856,0,1.936-1.4,2.026-1.036.09-2.341.856-2.972-.27-1.036-1.936.945-1.4,1.576-3.062C30.472,63.279,30.562,62.468,30.787,62.379Z" transform="translate(-9.129 -37.62)" fill="#fff"/>
              <path id="Path_119" d="M-2.93,64.919a1.239,1.239,0,0,1,0,1.126c-.541.945-2.432,1.846-2.972,1.036-.45-.721,1.036-1.4,1.756-1.846C-3.785,64.831-3.11,64.6-2.93,64.919Z" transform="translate(9.91 -38.945)" fill="#fff"/>
              <path id="Path_120" d="M-2.306,55.857c-.36-.09-.36-.36-.541-.63-.181-.451-.181-1.126.18-1.3a1.094,1.094,0,0,1,1.3.448.812.812,0,0,1,.09.45,1.047,1.047,0,0,1-1.034,1.036Z" transform="translate(8.25 -32.945)" fill="#fff"/>
              <path id="Path_121" d="M-11.555,71.291a3.237,3.237,0,0,1-.18.856c-.27.27-.45.63-.721.856-.541.18-2.026-.856-1.486-1.936.856-.63,1.4,0,1.846.18C-12.006,71.2-11.555,71.2-11.555,71.291Z" transform="translate(14.348 -42.255)" fill="#fff"/>
              <path id="Path_122" d="M20.951,15.6c.18-.541,0,.36.09.856.18.541-.541-.541-.45-.721C20.771,15.6,20.951,15.866,20.951,15.6Z" transform="translate(-4.695 -11.82)" fill="#fff"/>
              <path id="Path_123" d="M31.559,12.767C30.7,12.5,31.2,9.885,32.1,9.8c.721-.09.09,1.4-.09,2.206C31.829,12.5,32.144,12.947,31.559,12.767Z" transform="translate(-10.486 -8.721)" fill="#fff"/>
              <path id="Path_124" d="M19.775,24.85a1.7,1.7,0,0,1,.18.721c.09.36.63,1.216.36,1.486-.945.856-.721-.63-.945-1.126a1.719,1.719,0,0,1-.27-.721.965.965,0,0,1,.18-.541C19.5,24.577,19.775,24.759,19.775,24.85Z" transform="translate(-3.88 -16.886)" fill="#fff"/>
              <path id="Path_125" d="M28.015,26.7c-.36-.36,0-1.216.27-1.666s0-1.036.54-1.036c.36,0-.18.945-.18,1.216-.09.36,0,1.126-.27,1.4C28.2,26.612,28.1,26.792,28.015,26.7Z" transform="translate(-8.698 -16.532)" fill="#fff"/>
              <path id="Path_126" d="M26.89,30.79c.27-.09-.09.541.18.541.09,0,0-.09.18-.18.27-.18.09.36-.09.541-.45.541-.36,1.576-.856,1.486C25.944,33.131,26.217,31.1,26.89,30.79Z" transform="translate(-7.753 -20.26)" fill="#fff"/>
              <path id="Path_127" d="M27.653,48.09c0-.09-.18-.09-.18-.09-.18,0-.09.09,0,.27S27.653,48.18,27.653,48.09Z" transform="translate(-8.426 -29.726)" fill="#fff"/>
              <path id="Path_128" d="M26.332,48.121c-.09-.09-.18-.09-.18,0-.18.36-.541.63-.27.63S26.6,48.48,26.332,48.121Z" transform="translate(-7.555 -29.755)" fill="#fff"/>
              <path id="Path_129" d="M18.763,81.218c.18.09.36,0,.541-.18l.27-.541c.36-1.036-.63-2.612-.945-3.6-.18-.45.09-1.4-.36-1.4C17.457,75.546,17.1,80.272,18.763,81.218Z" transform="translate(-3.048 -44.843)" fill="#fff"/>
              <path id="Path_130" d="M27.41,92.622c-.09,0,.09-.27.09-.27,0-.09-.18-.27-.18-.36l.09.09c.18-.721,0-2.612-.541-2.7a.088.088,0,0,0-.09.09c-.09-.09-.18-.18-.18-.27.09.27.09.541.18.856.45,1.846-.721,4.818,1.036,5.673.45.27.63-.856.45-1.216-.18-.63-.36-1.306-.541-1.846" transform="translate(-8.003 -52.374)" fill="#fff"/>
              <path id="Path_131" d="M5.119,41.754c-.09,0-.18.18-.27.18s-.09-.36-.09-.45h0a.331.331,0,0,0-.09-.27c-.09,0-.27.09-.36-.09,0-.18.45-.27.18-.27-.36-.09-.63,0-.63-.36,0-.27.541.09.45-.09-.18-.36.18-.721,0-.856-.27-.27-.856.18-.856.45,0,.18-.09,0-.18.09,0,0,0,.27-.09.18v-.18l.09-.09c.18-.27.945-.541.721-.721-.27-.18-.45.45-.856.27-.18-.09-.09-.18-.09-.36.18-1.036,1.306-1.4,1.216-2.206,0-.27.09-.27.18-.541.27-.541.721-1.4.18-1.486-.945-.09-.45,2.206-1.036,2.972-.18.27-.945.45-1.306.63-.18.09-.09-.541-.27-.36-.27.27-.09,1.126-.27.721-.09-.18-.09-.721-.18-.945-.856-1.306-1.036,0-1.756.18-.18,0-.18.45-.45.541h-.09c-.36-.18,1.126-1.576.541-1.666-.36-.09-.63,1.126-.945,1.126-.27,0,.18-.27.18-.63a.194.194,0,0,0-.18-.18c-.36-.27-.18.856-.541.541-.27-.27.45-.856.27-1.036-.36-.27-.18.63-.45.27-.27-.27.45-1.486.18-1.846-.856-1.126,0-3.242-.856-2.972-1.306.27.945,4.278-.18,5a1.437,1.437,0,0,1-1.576.09c-.271-.178,0-.09-.271-.271a19.46,19.46,0,0,1-2.882-3.6c-.45-.63-.721-1.666-1.126-1.306-1.666,2.026,4.728,3.6,3.6,6.394A1.061,1.061,0,0,1-6,39.142c-.09,0,0-.27-.18-.27-.628-.09-1.124-1.663-1.665-1.305-.09,0-.09.27-.09.18-.18-.36-.945-.541-1.126-.945-.541-1.126-2.116,0-3.062-1.036-.09-.09-.36-.27-.541-.18s-.18.541,0,.721c.675.721,1.62.63,2.476,1.081.721.36,1.576.18,2.341.721a9.158,9.158,0,0,1,2.432,2.116c.18.27.945.721.721,1.126-.18.36-1.306.541-1.126.945.18.36,1.216,0,1.486.27a2.632,2.632,0,0,1,.27,2.341c-.269.72-3.241,1.035-2.024,2.341.63.721,1.306-2.882,3.512-.541.856.856,2.522.45,3.422,1.4a1.856,1.856,0,0,1,.36,1.216c-.09.856-.36,2.206.45,2.206.541,0-.09-1.486,0-2.206a1.142,1.142,0,0,1,.09-.541c.18-.18.27-.45.45-.27a1.884,1.884,0,0,1,.36.541c.36.945.721,2.341,1.126,3.152,0,.09.18.09.18.09a4.568,4.568,0,0,1,.09,1.126A7.3,7.3,0,0,0,4.9,58.054c-.45-2.792-.36-6.394-1.216-9.006-.18-.45-.856-.945-.721-1.4.09-.721,1.216-.45,1.846-1.126.856-.721.63-1.936.856-2.7C5.749,43.15,6.605,42.025,5.119,41.754ZM-1.5,38.242c-.09.09-.18,0-.18-.09a.278.278,0,0,1,.09-.18s.18.18.09.27Zm1.756.45h-.27c-.09-.09,0-.27.18-.27.089-.18.224.18.089.27Zm.856.18a.331.331,0,0,1-.27-.09c-.09-.09,0-.45.18-.45.269-.18.269.45.089.543Zm1.486.5c-.09.09-.27-.18-.18-.18S2.689,39.278,2.6,39.368Z" transform="translate(13.658 -21.004)" fill="#fff"/>
              <path id="Path_132" d="M26.1,52.9Z" transform="translate(-7.728 -32.419)" fill="#fff"/>
            </g>
            <path id="Path_133" d="M14.925,26.061a2.715,2.715,0,0,0-.18.945c-2.792,2.206-7.52,1.126-8.645-2.117,0-.18.18-.36.36-.63-.541-1.126,0-2.522,1.036-4.007.541-.541,1.216-.63,1.756-1.486,1.936-1.035,6.752-.63,6.891,2.207.09.18.63.27.541.45a5.383,5.383,0,0,1-.541,4.007C15.871,25.745,15.106,25.835,14.925,26.061Z" transform="translate(5.022 -9.88)" fill="#fff" opacity="0.8"/>
            <path id="Path_134" d="M3.064,23.516c1.036.09,1.666.856,2.432.721,1.756-.18,2.026-.63,3.332-.27,1.756.541.856-1.036,2.026-.18.63.45,1.126.36,1.486-.09s-1.486-.18-2.026-.945a.879.879,0,0,1-.09-1.036c.541-.541,1.576.36,2.116.27.36,0,1.036-.721,1.486-.36,2.432,1.576.721-.541.45-1.216-.18-.36.856-.09.27-.63-.27-.135-.27-.9-.27-1.171A2,2,0,0,1,15.312,17.3c1.666-.945,2.972,1.036,3.512,2.882.09.27.36-.27,1.126.18.945.541.45,3.512,1.486,2.972,1.576-.856,2.612-.27,2.432,1.306,0,.36-.541.541-.45,1.036.27,1.4-.45,1.666-.18,2.432.45,1.036,1.216,1.306,1.126,2.522S26.3,31.846,27.244,32.3c.541.27.541.63.945,1.216.27.36,1.126.63.856,1.036-.36.45-.945.18-1.576-.18-.45-.27-.27.18-1.036,0A8.277,8.277,0,0,1,24,32.522c-.27-.27-1.036-.541-2.116.45-.63.541.09,1.036-.09,1.756-.18.63,1.126.721,1.306,1.666a.987.987,0,0,1,0,.721.824.824,0,0,1-.945.541,1.969,1.969,0,0,1-.45-.27c-.18-.27,0-.36-.18-.541-.09-.09-.18.09-.45.09-.36,0-.18-.63-.541-1.216-.27-.36-.45-.721-.945-.721-.27,0-.36-.721-.856-.856-1.666-.18-1.4,1.4-2.522,2.432-.36.36-1.666-.541-2.026-.18a2.912,2.912,0,0,1-4.1-.27,1.965,1.965,0,0,0-.36-.45c-1.4-2.341.27-3.422,3.332-3.062.36.09.63-.09.856-.45.09-.36.721-.721,0-1.216-.27-.18-.945.09-1.216,0-.63-.18-.945-.721-1.4-.63-1.126.18-2.792,1.666-2.612.856.09-.45-.18-.541-.45-.541-.856-.18-.945.45-1.666.36-.36-.09-1.306.27-1.576-.36-.18-.541,1.306-1.486,1.936-1.216a3.159,3.159,0,0,0,2.026.18c1.216-.27,2.026-.27,2.612-1.126.36-.541-.945-1.216-2.206-.945-.721.18,0-.541-.721-.541-.27,0-.27.45-.856.27a3,3,0,0,1-.541-.27c-.63-.36-1.126,0-2.116.18a1.983,1.983,0,0,1-.721-.089c-.45-.27-.721-.63-1.126-.856-.856-.45-1.306.856-1.846.09-.27-.36.721-1.126.36-1.486C1.218,23.831,2.028,23.425,3.064,23.516ZM22.2,27.433c.18.09.27-.27.18-.36C22.2,26.893,22.11,27.344,22.2,27.433Zm3.872,5.673c.09-.09-.09-.18-.18-.18C25.622,32.792,25.8,33.377,26.072,33.107Z" transform="translate(7.608 -9.227)" fill="#fff" opacity="0.8"/>
            <path id="Path_135" d="M57.036,43.313c.18-.18.27,0,.36.18.18.27-.63,1.036-.856.63C56.361,43.761,56.721,43.581,57.036,43.313Z" transform="translate(-22.68 -23.619)" fill="#fff" opacity="0.8"/>
            <path id="Path_136" d="M32.34,45.675c.27-.18.27.856-.18.45C31.89,45.945,32.16,45.855,32.34,45.675Z" transform="translate(-9.241 -24.947)" fill="#fff" opacity="0.8"/>
            <path id="Path_137" d="M28.857,47.657c-.09.18-.541.18-.541,0a.274.274,0,0,1,0-.36C28.5,46.937,29.038,47.209,28.857,47.657Z" transform="translate(-7.154 -25.758)" fill="#fff" opacity="0.8"/>
            <path id="Path_138" d="M34.216,52.479c.09-.09.36.18.18.36a.274.274,0,0,1-.36,0C33.721,52.749,34.036,52.659,34.216,52.479Z" transform="translate(-10.262 -28.689)" fill="#fff" opacity="0.8"/>
            <path id="Path_139" d="M36.909,55.192c-.09.09-.09.18-.18.18-.27.18-.541-.36-.45-.541C36.5,54.517,37.179,54.786,36.909,55.192Z" transform="translate(-11.558 -29.916)" fill="#fff" opacity="0.8"/>
            <path id="Path_140" d="M26.926,57.11c.18.18.09.36.27.541s.36-.18.541-.18c.45-.18-.27,1.306-.63,1.4C26.431,59.044,26.341,56.567,26.926,57.11Z" transform="translate(-6.214 -31.201)" fill="#fff" opacity="0.8"/>
            <path id="Path_141" d="M31.4,60.255a.274.274,0,0,1,0,.36c-.18.18-.541,0-.36-.27C31.13,60.255,31.31,60.163,31.4,60.255Z" transform="translate(-8.661 -32.952)" fill="#fff" opacity="0.8"/>
            <path id="Path_142" d="M24.609,61.5c.541.63-.63,1.216-.945.721C23.213,61.587,24.249,61.047,24.609,61.5Z" transform="translate(-4.572 -33.565)" fill="#fff" opacity="0.8"/>
            <path id="Path_143" d="M79.51,63.6c0,.18-.18.27-.27.36C77.664,64.817,80.1,62.024,79.51,63.6Z" transform="translate(-34.888 -34.541)" fill="#fff" opacity="0.8"/>
            <path id="Path_144" d="M28.641,69.913c.27-.18.36,0,.45.18.09.09-.09.27-.18.36C28.552,70.812,28.371,70.092,28.641,69.913Z" transform="translate(-7.298 -38.242)" fill="#fff" opacity="0.8"/>
            <path id="Path_145" d="M27.115,72.257c.18.45-.36.856-.856.721C25.179,72.708,26.845,71.222,27.115,72.257Z" transform="translate(-5.862 -39.372)" fill="#fff" opacity="0.8"/>
            <path id="Path_146" d="M33.209,71.931c.36.63-1.216,1.486-1.576.856S32.85,71.3,33.209,71.931Z" transform="translate(-8.986 -39.27)" fill="#fff" opacity="0.8"/>
            <path id="Path_147" d="M22.459,73.879c.18-.09.36.18.27.36s-.27.18-.45.18h0C22.009,74.149,22.37,73.969,22.459,73.879Z" transform="translate(-3.818 -40.453)" fill="#fff" opacity="0.8"/>
            <path id="Path_148" d="M64.957,75.374a.6.6,0,0,1,.36.63C64.957,77.265,63.562,74.744,64.957,75.374Z" transform="translate(-27 -41.228)" fill="#fff" opacity="0.8"/>
            <path id="Path_149" d="M42.452,78.968a.713.713,0,0,1-.45.856c-.18.09-.36,0-.541,0-.18-.09-.27-.18-.27-.36C40.741,78.833,42.137,78.383,42.452,78.968Z" transform="translate(-14.22 -43.111)" fill="#fff" opacity="0.8"/>
            <path id="Path_150" d="M68.752,78.2c.36.721-.856.856-.856.36C67.851,78.109,68.572,77.837,68.752,78.2Z" transform="translate(-28.948 -42.745)" fill="#fff" opacity="0.8"/>
            <path id="Path_151" d="M23.036,80.645c.27.18.09.721-.27.721S22.586,80.374,23.036,80.645Z" transform="translate(-4.034 -44.156)" fill="#fff" opacity="0.8"/>
            <path id="Path_152" d="M56.434,80.382a.339.339,0,0,1,.541.09c.27.27-.09.856-.541.63C56.253,81.012,56.253,80.472,56.434,80.382Z" transform="translate(-22.573 -43.984)" fill="#fff" opacity="0.8"/>
            <path id="Path_153" d="M57.81,82.428a.637.637,0,0,1,1.036.541C58.8,84.364,56.5,83.058,57.81,82.428Z" transform="translate(-23.184 -45.085)" fill="#fff" opacity="0.8"/>
            <path id="Path_154" d="M54.2,82.741c.27-.27.27.63,0,.36Z" transform="translate(-21.42 -45.306)" fill="#fff" opacity="0.8"/>
            <path id="Path_155" d="M54.885,84.863c.09.18,0,.27-.09.36-.09.18-.36,0-.45-.09C54.119,84.863,54.794,84.593,54.885,84.863Z" transform="translate(-21.474 -46.44)" fill="#fff" opacity="0.8"/>
            <path id="Path_156" d="M55.737,86.671c.36.721-.721.856-.856.36C54.746,86.491,55.557,86.311,55.737,86.671Z" transform="translate(-21.786 -47.392)" fill="#fff" opacity="0.8"/>
            <path id="Path_157" d="M76.189,84.577c-.541.721-1.486-.18-1.4-.721C74.973,83.091,76.909,83.631,76.189,84.577Z" transform="translate(-32.737 -45.748)" fill="#fff" opacity="0.8"/>
            <path id="Path_158" d="M56.094,91.924a.675.675,0,0,1-.721-.45C55.1,90.168,57.581,91.744,56.094,91.924Z" transform="translate(-22.054 -49.853)" fill="#fff" opacity="0.8"/>
            <path id="Path_159" d="M43.451,50.775c-.18.27.27,1.216.36,1.576,0,.45-.45.45-.45.945.09.541.36.18.945.36a1.238,1.238,0,0,1,.721.45c.45.63-.45.63-1.036.721-.63.18,0,.945-.09,1.576-.18.63-.18,1.216.27,1.216.541,0,.945,0,1.216.45a1.029,1.029,0,0,1-.27,1.306.74.74,0,0,1-.63.09c-.36,0-1.126.63-1.756.541-.36,0-.45-.721-.945-.856-.675-.135-.225,1.351-1.306,2.071-.18.09-.27.721-.721.541-.63-.27-.541.45-.945.45-.45,0-.18.721-.541.721-1.036,0-1.576-1.126-2.972-1.306-2.116-.18-3.422-2.206-4.818-3.827-.18-.18-.721-.09-.856-.36-.27-.541.09-.945.09-1.486,0-.27-.63-.09-.721-.36-.27-.541.18-.856.36-1.486.09-.27.721-.27.856-.541.27-.541-.36-.856,0-1.216a3.626,3.626,0,0,0,.945-1.306c.45-1.036,2.432-.541,2.792-1.756.09-.27-.09-.63,0-1.036.18-.541.856-1.036,1.216-.63a2.737,2.737,0,0,1,.452.628c.45.721,1.036.09,1.036-.45,0-.945.27-1.216.945-1.126.856.09,1.036,1.576.36,1.756a.463.463,0,0,0-.27.63h0c.27.45,1.666.63,2.026-.18.18-.36-.09-.36-.18-.63-.27-.541.63-1.4.856-.945.09.18.63-.18,1.036.27.09.18.18.63.36.721C42.5,49.064,43.808,50.19,43.451,50.775Z" transform="translate(-7.518 -25.499)" fill="#fff" opacity="0.8"/>
            <path id="Path_160" d="M63.365,56.331c.27.09.63-.63.18-.541a.447.447,0,0,0-.18.541Z" transform="translate(-26.442 -30.514)" fill="#fff" opacity="0.8"/>
            <path id="Path_161" d="M16.042,51.362c.18.721-1.756.945-1.846.27C14.106,51,15.952,50.731,16.042,51.362Z" transform="translate(0.573 -27.887)" fill="#fff" opacity="0.8"/>
            <path id="Path_162" d="M72.283,60.921c.856,1.216-1.576,2.206-2.206,1.306C69.221,61.012,71.609,60.111,72.283,60.921Z" transform="translate(-30.047 -33.169)" fill="#fff" opacity="0.8"/>
            <path id="Path_163" d="M38.833,90.769c.63.856-.721,1.936-1.4,1.576C36.673,91.984,38.159,89.958,38.833,90.769Z" transform="translate(-12.088 -49.643)" fill="#fff" opacity="0.8"/>
            <g id="Group_5" transform="translate(18.566 10.154)" opacity="0.8">
              <path id="Path_164" d="M17.01,71.3l.09.09c-.09.721-1.666,2.432-2.206,1.846-.45-.45.945-1.936,1.486-2.206.18-.09.856-.09.856.09C17.279,71.208,17.1,71.208,17.01,71.3Z" transform="translate(-9.258 -44.101)" fill="#fff"/>
              <path id="Path_165" d="M19.286,47.321c-.09-.18.36-.721.63-.721.18,0,.541.27.541.45C20.277,47.41,19.376,47.59,19.286,47.321Z" transform="translate(-11.714 -30.705)" fill="#fff"/>
              <path id="Path_166" d="M22.664,27.6c.27,0,.856.63.721.945-.18.36-1.306.36-1.486.09A1.138,1.138,0,0,1,22.664,27.6Z" transform="translate(-13.156 -20.261)" fill="#fff"/>
              <path id="Path_167" d="M48.243,68.975a.9.9,0,0,1,.945-.09,1.07,1.07,0,0,1-.09,1.036c-.09.09-.27.18-.36.09C48.422,70.01,48.062,69.245,48.243,68.975Z" transform="translate(-27.612 -42.904)" fill="#fff"/>
              <path id="Path_168" d="M54.614,39.217c-.27-.09.27-.36.45-.63.541-1.216,2.116-1.576,3.152-2.341.36-.27,1.036-1.126,1.126-.63C59.655,37.552,56.368,39.983,54.614,39.217Z" transform="translate(-31.1 -24.584)" fill="#fff"/>
              <path id="Path_169" d="M69.175,64.248c.09.09,0,.27-.09.36-.36.63-2.341-.09-2.026-.856,0-.09.09-.09.09-.18C67.509,63.032,68.633,63.8,69.175,64.248Z" transform="translate(-37.963 -39.933)" fill="#fff"/>
              <path id="Path_170" d="M57.3,47.455c-.45-.45,1.036-.45,1.666-.856.36-.18,1.4-.45,1.216,0C59.91,47.725,58.154,48.49,57.3,47.455Z" transform="translate(-32.571 -30.569)" fill="#fff"/>
              <path id="Path_171" d="M69.571,32.17c-.09-.09.09-.27.18-.27C69.931,31.9,69.661,32.17,69.571,32.17Z" transform="translate(-39.35 -22.624)" fill="#fff"/>
              <path id="Path_172" d="M70.16,30.647c-.27-.36,1.126-1.306,1.306-.945C71.733,30.377,70.519,31.008,70.16,30.647Z" transform="translate(-39.668 -21.372)" fill="#fff"/>
              <path id="Path_173" d="M18.3,19.825a.983.983,0,0,1-.856-.18c-.09-.09-.541-1.4-1.126-1.036a1.345,1.345,0,0,0-.63,1.306c.09.18.541.18.541.36,0,.27-.541.63-.856.63a1.884,1.884,0,0,1-1.126-.27c0-.27.63-.09.63-.36.09-.36-.721-1.036-1.126-1.126a1.191,1.191,0,0,0-.856.541,1.333,1.333,0,0,0,.27,1.4c.27.27,1.126.45,1.216.721s.18,1.036,0,1.126-.45-.36-.541-.36-.09.63-.18.856c-.09.18-1.306.18-1.306.36-.18,1.036,1.4.45,1.486.721a.331.331,0,0,1-.09.27,2.981,2.981,0,0,1-2.882.18c-.09-.09,0-.63-.18-.721-.36-.18-1.126.27-1.4.27-.45,0-1.846-.541-1.936-.09s1.576.09,1.846.36c.09.09,0,.541.09.63.27.18,1.036-.18,1.4-.18.721,0,2.432,0,2.792.63a.331.331,0,0,1-.09.27c-.45.27-1.576-.27-2.026-.27-.27,0-.856.09-1.036.36a1.446,1.446,0,0,0-.09,1.216,1.31,1.31,0,0,0,1.4-.09c.09-.09.09-.45.18-.45.36-.27,1.576-.27,1.756.09.18.27-.45.721-.721.856-.27.09-.63-.45-.856-.27-.27.27.36,1.306.63,1.306.18,0,.36-.27.541-.27s.18,0,.27.09c.18.36-.09.856-.09,1.306s-1.306.721-1.486,1.126c-.089.36.632,2.339.54,2.432-.721.541-1.216-.27-1.846.18a2.57,2.57,0,0,1-1.576.541c-.541,0-1.216.09-1.756.09a3.014,3.014,0,0,1-1.486.36C4.7,34.55,3.8,34.37,2.85,34.189c-.856-.18,0,1.576.45,1.666a17.745,17.745,0,0,0,3.062-.36c.45-.09,1.306.45,1.756.45.541-.09.721-.63,1.216-.63,1.036-.09,2.522-.856,3.242-.27.541.45.27,1.666,0,2.341-.36.945-2.792,2.792-2.026,3.422.856.721,2.026-2.972,3.062-3.242a.675.675,0,0,1,.45.09,1.961,1.961,0,0,1,.45.721,8.917,8.917,0,0,1-.18,2.7,7.284,7.284,0,0,1-.856,1.936c-.18.45-.721,1.486-.945,1.936a4.2,4.2,0,0,1-.45,1.126c-.36.36-.45.856-.856,1.216-.09,0-.09.18-.09.27-.09,0-.36-.18-.45-.09-.541.09-1.936.945-1.936,1.576a2.743,2.743,0,0,0,2.206,2.116A3.434,3.434,0,0,0,13.385,49.5c.09-.36-.36-1.036-.36-1.4,0-.45.45-1.4.45-1.936,0-.09-.09-.36-.09-.45a18.545,18.545,0,0,1,1.489-3.92,2.8,2.8,0,0,1,.36-.541c.09-.18,0-.541.09-.721.09-.09.18-.27.27-.36.18-.18.27-.856.541-.945a3.19,3.19,0,0,1,1.306,0c.36.09,1.216.18,1.4.541.09.18-.36.541-.27.721.18.27,1.216.09,1.306-.18s-.856-.45-.856-.721c0-.36.945-.63,1.216-.721.18-.09.721-.36.945-.27.27.09.45,1.036.856,1.036a.406.406,0,0,0,.27-.27c0-.27-.63-.63-.63-1.036.09-.36.856-.541,1.036-.856.27-.27.63-1.216,1.126-1.306.18-.09.45,0,.63,0-.27-.09-.36-.27-.45-.541,0-.36.856-.541,1.126-.721a1.755,1.755,0,0,1,.722-.087,7.96,7.96,0,0,1,1.4.36c.721.09,1.486.45,1.756.18,1.4.945,4.548,2.026,4.638.36.18-1.846-3.422-.856-5.268-1.126-1.4-.27-3.918.36-4.187-.721-.27-.945,2.882-1.126,2.7-2.432-.09-.721-1.4.63-2.116-.18-.18-.18-.63.18-.721-.18-.09-.721,1.756-1.126,1.4-1.486-.27-.27-1.4,1.126-1.666.45a4.277,4.277,0,0,1-.45-1.216,2,2,0,0,1,0-1.036c0-.09.09-.09.18-.09.721.09,1.666-.09,1.036-.856-.36-.45-.945.541-1.216-.09-.36-.945,1.036-1.756.18-2.972-.27-.36.541-.945,0-1.216-.541-.36-.541-.856-.721-1.4-.18-.45-.721-.63-1.216-1.126-.18-.18-.721.27-.945,0-.541-.721-.541-.09-.945,0-.63.09-.541-3.062-1.126-3.152C18.386,16.852,18.476,19.645,18.3,19.825Z" transform="translate(-2.484 -14.377)" fill="#fff"/>
              <path id="Path_174" d="M51.4,59.3a.541.541,0,0,0,.36.09C51.58,59.39,51.49,59.3,51.4,59.3Z" transform="translate(-29.374 -37.687)" fill="#fff"/>
              <path id="Path_175" d="M34.485,11.841a8.811,8.811,0,0,0,.945,2.341c.27.63.63,2.522.945,2.522.09,0,.09-.09.09-.18.09-1.666-.09-1.306-.63-2.522-.45-.945,0-2.612-1.126-2.7C34.393,11.3,34.485,11.66,34.485,11.841Z" transform="translate(-20.069 -11.3)" fill="#fff"/>
              <path id="Path_176" d="M56.863,61.076C57.4,59.5,53.8,59.95,52,59.5,53.8,60.265,56.278,62.652,56.863,61.076Z" transform="translate(-29.704 -37.797)" fill="#fff"/>
              <path id="Path_177" d="M40.946,70.03a1.666,1.666,0,0,1,1.126-.63A2.671,2.671,0,0,1,43.2,70.706a3.637,3.637,0,0,1-.27,1.936c-.945,1.036-2.116-.18-2.206-.36A4.123,4.123,0,0,1,40.946,70.03Z" transform="translate(-23.467 -43.239)" fill="#fff"/>
              <path id="Path_178" d="M65.152,34.481c-.27-.27.856-1.306,1.216-1.036C66.725,33.851,65.556,34.841,65.152,34.481Z" transform="translate(-36.911 -23.449)" fill="#fff"/>
              <path id="Path_179" d="M52.548,19.291c.721.09,1.036,2.432.541,3.062-.27.45-1.846.945-2.206.45C50.432,22.082,51.647,19.11,52.548,19.291Z" transform="translate(-29.036 -15.688)" fill="#fff"/>
            </g>
            <g id="Group_6" transform="translate(34.54 5.618)" opacity="0.8">
              <path id="Path_180" d="M34.67,80.5v.18c-.09,0-.09.09-.18.09l-.09-.046c0-.09.18-.09,0-.18A.571.571,0,0,1,34.67,80.5Z" transform="translate(-28.259 -46.986)" fill="#fff"/>
              <path id="Path_181" d="M28.507,15.96a.088.088,0,0,1,.09.09.468.468,0,0,1-.18.36c-.18.09-.27,0-.36-.09v-.09C27.922,15.96,28.192,15.867,28.507,15.96Z" transform="translate(-24.752 -11.489)" fill="#fff"/>
              <path id="Path_182" d="M21.274,31.9c.18,0,.36.09.36.27,0,.09-.09-.09,0,.09.27.27-1.036.18-.856-.09A.782.782,0,0,1,21.274,31.9Z" transform="translate(-20.761 -20.271)" fill="#fff"/>
              <path id="Path_183" d="M59.085,32.013c.18-.27.541.27.36.36l-.18.18C59,32.641,58.905,32.191,59.085,32.013Z" transform="translate(-41.777 -20.292)" fill="#fff"/>
              <path id="Path_184" d="M30.005,46.2c0,.18-.721.09-.541-.18a.4.4,0,0,1,.45,0C30.005,46.106,30.005,46.106,30.005,46.2Z" transform="translate(-25.53 -27.993)" fill="#fff"/>
              <path id="Path_185" d="M25.142,48.552c.27-.18.856.27.541.45-.09.09-.27,0-.45,0a.338.338,0,0,1-.09-.45Z" transform="translate(-23.142 -29.402)" fill="#fff"/>
              <path id="Path_186" d="M24.579,54.583c.27-.09.63.27.45.45a.274.274,0,0,1-.36,0C24.489,54.943,24.4,54.583,24.579,54.583Z" transform="translate(-22.806 -32.733)" fill="#fff"/>
              <path id="Path_187" d="M23.271,54.751c.18-.18.45.27.27.27S23.179,54.93,23.271,54.751ZM23.451,54.931Z" transform="translate(-22.127 -32.81)" fill="#fff"/>
              <path id="Path_188" d="M58.376,62.986c.36-.09.27.36.36.721s-.09,1.036-.63.721C57.611,64.2,57.971,63.076,58.376,62.986Zm0,1.126h-.09C58.376,64.112,58.376,64.2,58.376,64.112Z" transform="translate(-41.159 -37.354)" fill="#fff"/>
              <path id="Path_189" d="M23.357,26.9c.09,0,0,.27-.09.27a.331.331,0,0,1-.27.09C22.727,27.305,23.177,27.035,23.357,26.9Z" transform="translate(-21.944 -17.523)" fill="#fff"/>
              <path id="Path_190" d="M45.112,64.284c-.18.27-.856.18-.856-.09a1.257,1.257,0,0,1,.36-1.215C44.931,62.8,45.382,64.014,45.112,64.284Z" transform="translate(-33.657 -37.346)" fill="#fff"/>
              <path id="Path_191" d="M45.741,18.741v.09A7.888,7.888,0,0,0,45.2,16.4a9.867,9.867,0,0,0,.541,2.341Z" transform="translate(-34.196 -11.751)" fill="#fff"/>
              <path id="Path_192" d="M43.862,10.093c0-.09.18-.18.18-.36a4.146,4.146,0,0,0-.27-2.432l-.27-.27c0-.18.36-.63,0-.945-.09-.09-.09.36-.18.27-.36-.18-.541.45-.45,1.036a11.1,11.1,0,0,0,1.036,3.332A2.973,2.973,0,0,1,43.862,10.093Z" transform="translate(-32.903 -6.074)" fill="#fff"/>
              <path id="Path_193" d="M30.431,49.556a.424.424,0,0,0,.09.541c.18.18.541-.09.856-.18.27-.18.36-.45.541-.63.36-.36.27-.63.63-1.126A.9.9,0,0,1,33,47.8C32.1,48.251,30.879,48.7,30.431,49.556Z" transform="translate(-26.044 -29.013)" fill="#fff"/>
              <path id="Path_194" d="M40.4,52.241a2.388,2.388,0,0,0,.45-.541A2.387,2.387,0,0,0,40.4,52.241Z" transform="translate(-31.557 -31.156)" fill="#fff"/>
              <path id="Path_195" d="M40.38,30.468c-.09-.27-.36,0-.45-.09-.18-.18.27.09.18-.18v-.18c0-.09-.18.09-.18,0,0-.721-1.306-.721-2.026-1.4-.36-.27.09-.541-.18-.856-.18-.18-.36.36-.45.36h-.18c-.09.09,0,.18-.09.27s-.36.09-.36.09c0,.09.18.09.18.27a1.114,1.114,0,0,1-.945,1.125c-.45.09.45-1.486.45-1.486,0-.09.09-.09.09-.18h0c.27-.18.541-.27.45-.45s.27-.27.27-.63v-.36c.09-.09.36.18.36.18.09-.09,0-.18,0-.27,0-.18.27-.36.18-.63-.09-.09-.18,0-.18-.09-.09-.45.45-.945.45-1.486,0-.09-.09-.18-.18-.27-.18-.18-.36.18-.541.09-.541-.36,0-1.126-.27-1.666-.27-.45-.945-.45-1.036-.856-.27-1.126,1.486-1.756,1.756-2.612.09-.18.18-.541,0-.541-.63,0-.541,1.4-1.216,1.666-.09,0-.18-.09-.18,0-1.036.856-1.756,1.306-1.936.36a5.1,5.1,0,0,1,.54-3.24.574.574,0,0,0,0-.541c-.18-.27-.36-.27-.63-.27-.36,0-.09.856-.18,1.306-.09.63.18,2.341-.45,2.7-.45.27-.721-.18-.856-.541a4.208,4.208,0,0,0-.09-1.036,5.944,5.944,0,0,1-.27,1.756c-.541,1.216-2.7.541-3.6-1.036-.45-.945-1.036-2.522-2.026-2.116H26.6c-1.036.541.541,1.756,1.306,2.341.945.63,2.341,1.306,2.432,2.432.27,1.846-2.7,0-3.692-.45a5.513,5.513,0,0,1-2.522-2.025c-.27-.36-.945-.45-1.036-.945,0-.09-.09-.36-.09-.45-.45-.36-2.206.09-.945,1.036a.683.683,0,0,1,.36.18,6.3,6.3,0,0,0,1.846,1.306,4.9,4.9,0,0,0,1.126.45,9.769,9.769,0,0,1,3.692,2.116,1.615,1.615,0,0,1,.45.63c.09.721-.541,1.126-.36,1.846.09.18.36.27.36.63s-.541.18-.541.63c0,.36,1.036.09.856.541-.45,1.126-3.6,1.126-3.062,2.116.45.945,2.612-2.341,2.972-1.216a.762.762,0,0,1,0,.63c.36-.541.856-1.306,1.306-.721.09,0,.09.09.09.18.18,1.486-2.612,2.116-1.756,3.152.36.45,1.4-1.486,1.666-.63a1.424,1.424,0,0,1-.36,1.216h0c.18-.09.18-.18.27-.18s.36-.09.45.09c0,.27-.45,1.126-.09.945.45-.18.36-1.576.856-1.126.09,0,.09.09.09.18V34.3c0,.45-.541.721-.541,1.216,0,.36.27,1.306.541,1.4,1.216.36.721-2.116.945-3.242.09-.63.541-1.666.18-2.341-.09-.09-.18-.18-.18-.27.09-.18,0-.45.36-.36.63.18.541,1.216.856,1.756a4.473,4.473,0,0,1,.541,1.4A3.209,3.209,0,0,0,34.708,32c-.09-.18-.36-.541-.27-.856,0-.09.18.09.18,0,0-.36.09-1.576.45-1.216.18.18.36.18.36.36.09,1.4.945,2.522,1.126,3.827a2.533,2.533,0,0,0,.63,1.306c.09.09.09.45.27.36.27-.09-.09-.63.18-.856.18-.09.45-.09.45-.27s-.09-.27-.18-.45c-.18-.27-.36.27-.541.27-.63-.09-1.036-1.486-.63-1.756.945-.63,2.522.721,3.152,0a2.855,2.855,0,0,0,.629-1.218A4.823,4.823,0,0,0,40.38,30.468Z" transform="translate(-21.225 -11.86)" fill="#fff"/>
              <path id="Path_196" d="M36.3,46.316c.63-.36,1.306-.721,1.4-1.216l-.27.27C37.11,45.73,36.66,45.91,36.3,46.316Z" transform="translate(-29.303 -27.528)" fill="#fff"/>
              <path id="Path_197" d="M51.68,60.276c-.18,1.216-.36,2.7.36,3.6.09.18.27.45.45.36.09-.09,0-.09,0-.18a3.2,3.2,0,0,0,.18-.945c-.09-.45-.09-1.036-.36-1.036-.09,0,0,.27-.09.18s.09-.27.09-.36c-.09-.36,0-.36-.18-.63a1.28,1.28,0,0,1-.18-.541h-.09V60.1a4.165,4.165,0,0,0-.18-.856,1.28,1.28,0,0,0-.18-.54c0,.45.09.945.09,1.4C51.59,60.1,51.68,60.1,51.68,60.276Z" transform="translate(-37.659 -35.004)" fill="#fff"/>
              <path id="Path_198" d="M51.1,54.6h0c0,.27.09.541.09.721A1.983,1.983,0,0,0,51.1,54.6Z" transform="translate(-37.439 -32.749)" fill="#fff"/>
              <path id="Path_199" d="M35.959,55.782c.63.45.945-1.306,1.4-1.936a2.638,2.638,0,0,0,.45-.945C36.679,54.026,35.013,54.971,35.959,55.782Z" transform="translate(-28.962 -31.816)" fill="#fff"/>
              <path id="Path_200" d="M51.387,57.436c0-.36-.09-.721-.09-1.036a3.532,3.532,0,0,0,.09.945Z" transform="translate(-37.546 -33.74)" fill="#fff"/>
            </g>
            <path id="Path_201" d="M93.48,47.28c0-.09.09-.09.09-.18-.09.09-.18.09-.27.18C93.39,47.37,93.48,47.37,93.48,47.28Z" transform="translate(-42.914 -25.742)" fill="#fff" opacity="0.8"/>
            <path id="Path_202" d="M65.35,62.8c-.18.09-.27.09-.45.18,0,.09.09.18.09.27C65.08,63.07,65.26,62.98,65.35,62.8Z" transform="translate(-27.302 -34.372)" fill="#fff" opacity="0.8"/>
            <path id="Path_203" d="M80.446,76.4c-.27.09-.45.18-.45.45-.09,1.306,1.576,3.332,2.882,2.341.18-.18.27-.36.18-.541A3.283,3.283,0,0,1,80.446,76.4Z" transform="translate(-35.599 -41.849)" fill="#fff" opacity="0.8"/>
            <path id="Path_204" d="M64.88,65.7c-.09.09-.09.27-.18.36h.36A.468.468,0,0,1,64.88,65.7Z" transform="translate(-27.192 -35.966)" fill="#fff" opacity="0.8"/>
            <g id="Group_7" transform="translate(35.449 4.122)" opacity="0.8">
              <path id="Path_205" d="M40.542,36.167h0c.36.27.45,1.306.18,1.4-.36,0-.541-.945-.45-1.216,0-.09.18-.36.27-.27Z" transform="translate(-31.99 -21.804)" fill="#fff"/>
              <path id="Path_206" d="M31.644,29.741c-.09,0-.18-.36-.09-.45l.27-.09C31.959,29.335,31.779,29.741,31.644,29.741Z" transform="translate(-27.19 -18.033)" fill="#fff"/>
              <path id="Path_207" d="M24.958,22.944c.09-.09.45-.18.541-.09.09.18-.18.541-.36.541C24.958,23.44,24.865,23.034,24.958,22.944Z" transform="translate(-23.564 -14.524)" fill="#fff"/>
              <path id="Path_208" d="M48.3,24.16c0-.09.09-.36.27-.36a.4.4,0,0,1,.36.27c0,.09,0,.18-.09.18C48.705,24.341,48.3,24.25,48.3,24.16Z" transform="translate(-36.416 -15.065)" fill="#fff"/>
              <path id="Path_209" d="M40.043,11.825c-.09.09-.09-.18-.09-.36-.27-.541,0-1.216,0-1.846,0-.18-.09-.721.09-.63C40.9,9.393,40.9,11.284,40.043,11.825Z" transform="translate(-31.761 -6.917)" fill="#fff"/>
              <path id="Path_210" d="M52.444,14.3c.09,0,.09.09.09.18.18.27-.63.856-.945.541v-.09C51.5,14.57,52.084,14.39,52.444,14.3Z" transform="translate(-38.219 -9.842)" fill="#fff"/>
              <path id="Path_211" d="M42.879,13.855c-.27,0,.09-.541.18-.856,0-.18.18-.63.36-.45a.89.89,0,0,1-.27,1.216A.331.331,0,0,1,42.879,13.855Z" transform="translate(-33.382 -8.856)" fill="#fff"/>
              <path id="Path_212" d="M40.19,6.18c-.09,0-.09-.09-.09-.18Z" transform="translate(-31.908 -5.279)" fill="#fff"/>
              <path id="Path_213" d="M39.935,5.121c-.18,0-.18-.721,0-.721C40.3,4.49,40.206,5.121,39.935,5.121Z" transform="translate(-31.744 -4.4)" fill="#fff"/>
              <path id="Path_214" d="M25.631,14.226a.287.287,0,0,1-.27.27c-.09,0-.721-.18-.721.18a.68.68,0,0,0,.36.63c0-.09.18-.18.27-.18a.566.566,0,0,1,0,.541,1.2,1.2,0,0,1-.45.27c-.09-.09.09-.27,0-.36a1.018,1.018,0,0,0-.72.089v.541a.818.818,0,0,0,.63.27c.18,0,.45-.27.63-.27.09,0,.45.18.45.27s-.27.09-.27.09.18.18.18.27a4.39,4.39,0,0,1-.27.63c.36.36.541-.36.721-.36l.09.09a2.114,2.114,0,0,1-.721,1.216c-.09,0-.27-.18-.27-.09-.27.09-.27.45-.36.541-.09.18-.721.541-.541.721s.451-.54.721-.633c.09,0,.18.18.27.09.18-.09.18-.45.27-.541.18-.27.721-.945,1.036-.945l.09.09c0,.27-.541.541-.721.721,0,.18-.18.45-.09.541s.27.36.45.36.36-.36.36-.541c0-.09-.18-.18-.18-.18,0-.18.36-.63.541-.63s.18.36.09.541-.36.09-.27.18c0,.18.541.18.721.09.09-.09,0-.27.09-.27s0-.09,0-.09c.18,0,.27.27.45.36s-.09.721,0,.856c.09.18,1.126.36,1.126.36,0,.45-.45.36-.45.721a1.023,1.023,0,0,1-.27.721c-.18.27-.27.45-.45.721-.18.18-.27.45-.45.63l-1.036,1.036c-.27.27.63.36.721.27a6.08,6.08,0,0,0,.721-1.306c.09-.18.541-.36.63-.541s0-.45.09-.63c.27-.36.36-1.216.856-1.4.36-.09.721.36.945.63.27.36.27,1.846.721,1.666.541-.18-.541-1.576-.36-2.026,0-.09.09-.09.18-.18h.45a2.151,2.151,0,0,1,.945.856c.18.27.36.541.541.856a6.258,6.258,0,0,1,.45.945,1.2,1.2,0,0,1,.27.45c0,.27.18.36.18.63l.09.09c0,.09-.18.09-.18.09-.09.27-.18,1.036.09,1.216a1.184,1.184,0,0,0,1.486-.27,1.881,1.881,0,0,0,.09-1.4c-.09-.18-.541-.09-.63-.18-.18-.09-.36-.541-.541-.721l-.18-.09a6.322,6.322,0,0,1-1.126-1.576c0-.09-.09-.18-.09-.27s-.18-.18-.27-.27c0-.09,0-.09-.09-.18,0-.09-.27-.36-.18-.45,0-.18.27-.36.36-.45s.45-.45.63-.36c.09,0,.09.27.18.27.18,0,.36-.45.27-.541s-.45.18-.541.09,0-.541.09-.63a.951.951,0,0,1,.18-.45c.09-.09.541.09.63,0v-.18c-.09-.09-.45.09-.541,0s0-.45,0-.63-.27-.541-.18-.721c0-.09.09-.18.18-.27a1.2,1.2,0,0,1-.45.09c-.18-.09,0-.45.09-.63a.173.173,0,0,1,.09-.27c.18-.18.36-.27.541-.45.18-.27.541-.45.541-.63.721-.27,2.026-1.216,1.486-1.756-.63-.541-1.306,1.126-1.936,1.756-.45.45-1.036,1.576-1.486,1.4-.36-.18.36-1.4-.18-1.666-.27-.18-.09.721-.63.721-.09,0-.18.27-.27.27-.27-.18.09-1.036-.18-.945-.18,0,0,.856-.27.721a1.142,1.142,0,0,1-.541-.09,1.243,1.243,0,0,1-.36-.27v-.09c.27-.27.45-.63,0-.63-.27,0,0,.541-.36.45-.45-.09-.36-.856-1.126-.856-.18,0-.18-.45-.45-.36-.27.18-.45,0-.721,0a2.12,2.12,0,0,0-.721.18c-.18,0-.18.36-.27.36-.45,0-.18.18-.27.36-.18.27-1.4-.63-1.576-.45C24.505,13.416,25.631,14.136,25.631,14.226Z" transform="translate(-23.113 -8.777)" fill="#fff"/>
              <path id="Path_215" d="M45.2,20.59c.09,0,.09-.09.18-.09C45.335,20.5,45.335,20.59,45.2,20.59Z" transform="translate(-34.712 -13.251)" fill="#fff"/>
              <path id="Path_216" d="M22.129,14.485c.36.09.721.18,1.216.27.36.09,1.126.45,1.216.27a.088.088,0,0,0-.09-.09c-.541-.45-.45-.27-1.126-.36-.45-.09-1.036-.721-1.4-.27C21.814,14.394,22.039,14.394,22.129,14.485Z" transform="translate(-21.907 -9.757)" fill="#fff"/>
              <path id="Path_217" d="M47.636,17.021c-.45-.63-1.306.945-1.936,1.486C46.421,18.012,48.087,17.651,47.636,17.021Z" transform="translate(-34.987 -11.257)" fill="#fff"/>
              <path id="Path_218" d="M46.866,26.781a.791.791,0,0,1,.09-.63,1.376,1.376,0,0,1,.856-.09,1.088,1.088,0,0,1,.628.631.668.668,0,0,1-.856.721,1.6,1.6,0,0,1-.718-.631Z" transform="translate(-35.611 -16.29)" fill="#fff"/>
              <path id="Path_219" d="M40.092,8.21c-.18,0-.27-.63,0-.721C40.272,7.4,40.272,8.12,40.092,8.21Z" transform="translate(-31.81 -6.094)" fill="#fff"/>
              <path id="Path_220" d="M30.731,8.615c.27-.27,1.216.27,1.4.63.09.27-.18.945-.45.945C31.179,10.189,30.459,8.973,30.731,8.615Z" transform="translate(-26.725 -6.677)" fill="#fff"/>
            </g>
            <path id="Path_221" d="M16.134,39.615c3.332-1.4,4.458,3.918.945,4.007a2.036,2.036,0,0,1-2.206-1.936A1.879,1.879,0,0,1,16.134,39.615ZM17.8,40.921c-.09.18.09.36.27.36h.45c.27.09.09-.36,0-.541-.09-.315-.45-.09-.721.18Z" transform="translate(0.211 -21.498)" fill="#fff" opacity="0.8"/>
            <g id="Group_8" transform="translate(20.755 21.748)" opacity="0.8">
              <path id="Path_222" d="M20.54,31.346c.27,0,.27-.541.541-.45.09,0,.18.09.27.09A4.527,4.527,0,0,1,23.557,33.6c.09.45.45.856.36,1.126a.194.194,0,0,1-.18.18c-.63.36-.856-.63-1.306-1.216a7.469,7.469,0,0,0-.856-1.036c-.27-.27-.45-.09-.945-.09-.541.09-.63-.945-1.126-1.216a10.427,10.427,0,0,1-1.666-.945c-.18-.18-.45-.36-.36-.63,0-.09.18-.18.27-.27C18.964,29.59,19.191,31.436,20.54,31.346Z" transform="translate(-11.976 -27.276)" fill="#fff"/>
              <path id="Path_223" d="M80.4,62.651c.18.27-.18,0-.45.27s-.63-.27-1.036-.18c-.09,0,.09.09,0,.18a.778.778,0,0,1-1.036-.27v-.09c-.09-.09.18,0,.27,0C79,62.741,80.039,62.155,80.4,62.651Z" transform="translate(-45.179 -45.388)" fill="#fff"/>
              <path id="Path_224" d="M73.216,33.354c.09.541-.945,1.576-1.4,1.036-.09-.18-.27-.18-.45-.18-.856.09-1.036,1.216-1.846,1.486-.18.09-.27,0-.63,0-.09,0-.09-.09-.18-.09-.18,0-.45.27-.541,0-.18-.36.63-.36,1.036-.541,1.306-.541,1.846-2.522,3.422-2.206C72.944,32.813,73.124,33.084,73.216,33.354Z" transform="translate(-39.84 -29.104)" fill="#fff"/>
              <path id="Path_225" d="M70.18,68.783c.18.18-.541.09-.856-.09C69.01,68.378,70,68.559,70.18,68.783Z" transform="translate(-40.453 -48.729)" fill="#fff"/>
              <path id="Path_226" d="M64.041,66.769c.18.27-.36.18-.541-.09C63.5,66.5,63.95,66.589,64.041,66.769Z" transform="translate(-37.285 -47.66)" fill="#fff"/>
              <path id="Path_227" d="M63.39,66.4v.09H63.3V66.4Z" transform="translate(-37.175 -47.561)" fill="#fff"/>
              <path id="Path_228" d="M69.124,50.77c.09.09,0,.27-.09.36-.27.27-.541-.45-.27-.63C68.943,50.5,69.033,50.68,69.124,50.77Z" transform="translate(-40.117 -38.821)" fill="#fff"/>
              <path id="Path_229" d="M51.055,60.383c.09-.09.18.27.09.36C51.055,60.743,50.963,60.473,51.055,60.383Z" transform="translate(-30.423 -44.246)" fill="#fff"/>
              <path id="Path_230" d="M32.985,61.56c.09.09-.27.721-.27.721s-1.036,1.306-1.936.856c-.63-.27-1.576-.36-1.486-1.4.09-.856-.27-2.026.721-2.341,1.666-.45.945,1.036,2.206,1.756C32.264,61.2,32.894,61.38,32.985,61.56Z" transform="translate(-18.477 -43.667)" fill="#fff"/>
              <path id="Path_231" d="M38.663,34.358a.983.983,0,0,1-.856-.18c-.63-.63-1.126-2.206-.27-2.522.63-.27.945,1.036,1.216,1.756C38.845,33.727,38.935,34.267,38.663,34.358Z" transform="translate(-22.761 -28.442)" fill="#fff"/>
              <path id="Path_232" d="M46.369,36.62c.09-.27.27-.27.541-.36.36-.09.945,0,1.036.36a.8.8,0,0,1-.541.945h-.36a.748.748,0,0,1-.676-.945Z" transform="translate(-27.853 -30.975)" fill="#fff"/>
              <path id="Path_233" d="M35.264,26.7c-.18-.09-.45-.18-.63-.27-.18-.27-.45-.45-.541-.721-.09-.541,1.036-1.576,1.756-.945.45.721-.27,1.126-.45,1.486A2.427,2.427,0,0,0,35.264,26.7Z" transform="translate(-21.116 -24.562)" fill="#fff"/>
              <path id="Path_234" d="M75.478,62.309c.36.18-.27-.09-.721-.09s.541-.36.63-.18C75.568,62.129,75.388,62.219,75.478,62.309Z" transform="translate(-43.409 -45.136)" fill="#fff"/>
              <path id="Path_235" d="M74.3,70.824c.36-.63,2.341.18,2.341.945,0,.63-1.216-.18-1.756-.45C74.481,71.094,74.031,71.274,74.3,70.824Z" transform="translate(-43.178 -49.869)" fill="#fff"/>
              <path id="Path_236" d="M66.765,59.733a1.335,1.335,0,0,1-.63.09c-.27.09-1.036.36-1.306,0-.541-.856.63-.45,1.036-.541a1.335,1.335,0,0,1,.63-.09.5.5,0,0,1,.45.27C67.035,59.553,66.855,59.733,66.765,59.733Z" transform="translate(-37.938 -43.596)" fill="#fff"/>
              <path id="Path_237" d="M64.2,65.714c.36-.27,1.036.27,1.306.45s.856.18.721.541c-.09.27-.63-.27-.945-.36s-.945-.18-1.126-.45C64.2,65.8,64.022,65.8,64.2,65.714Z" transform="translate(-37.627 -47.143)" fill="#fff"/>
              <path id="Path_238" d="M61.526,64.052c.09.18-.45-.18-.45,0,0,.09.09.09.18.18.09.27-.27,0-.45-.18-.36-.45-1.216-.541-1.036-.945C59.95,62.791,61.344,63.511,61.526,64.052Z" transform="translate(-35.221 -45.709)" fill="#fff"/>
              <path id="Path_239" d="M49.56,62.153c.09,0,.09-.09.09-.18,0-.18-.09-.09-.18,0S49.56,62.153,49.56,62.153Z" transform="translate(-29.559 -45.071)" fill="#fff"/>
              <path id="Path_240" d="M49.328,60.913c.09,0,.09-.09,0-.18-.27-.27-.45-.541-.45-.27C48.786,60.643,49.058,61.093,49.328,60.913Z" transform="translate(-29.237 -44.236)" fill="#fff"/>
              <path id="Path_241" d="M18.953,48.844c-.09.09,0,.36,0,.45a1.243,1.243,0,0,0,.36.27c.721.45,2.206-.09,3.062-.09.45,0,1.126.36,1.126,0C23.68,48.753,19.988,47.628,18.953,48.844Z" transform="translate(-12.775 -37.614)" fill="#fff"/>
              <path id="Path_242" d="M7.72,53.663l.18.09c.09.09.18-.18.36-.09l-.09.09c.541.27,2.116.36,2.341,0,0,0-.09-.09,0-.09a.331.331,0,0,1,.27-.09h-.72c-1.576,0-3.827-1.4-4.728-.18-.27.36.541.63.945.63a8.419,8.419,0,0,0,1.576-.18" transform="translate(-5.28 -40.138)" fill="#fff"/>
              <path id="Path_243" d="M29.823,44.7s-.18-.18-.09-.27c0-.09.27,0,.36,0h.182c0-.09-.09-.27.09-.27.09,0,.09.36.18.18.09-.27.09-.541.36-.45.18.09-.18.45,0,.36.36-.09.541.27.63.18.27-.18,0-.721-.27-.721-.09,0,0-.09,0-.09s-.27-.09-.09-.09h.18l.09.09c.18.18.27.856.45.721.18-.18-.27-.45-.09-.721.09-.18.18-.09.27,0,.856.36.856,1.306,1.576,1.4.27,0,.27.09.45.27.45.27,1.036.856,1.126.45.27-.721-1.666-.721-2.206-1.306a2.441,2.441,0,0,1-.27-1.126c0-.18.45,0,.36-.18-.18-.27-.945-.27-.541-.36.18-.09.541,0,.721,0,1.216-.45.18-.856.18-1.486,0-.18-.36-.18-.36-.45h0c.18-.27,1.036,1.126,1.306.721.18-.27-.856-.63-.721-.945,0-.18.18.18.45.27a.314.314,0,0,0,.18-.09c.27-.27-.63-.27-.36-.541.27-.18.541.541.721.36.27-.27-.45-.27-.18-.45s1.126.63,1.486.45c1.036-.45,2.612.541,2.522-.18,0-1.126-3.512,0-4.007-1.036a1.029,1.029,0,0,1,.18-1.306c.18-.18.09,0,.27-.18a15.347,15.347,0,0,1,3.422-1.756c.541-.27,1.486-.27,1.216-.63-1.306-1.666-3.692,3.242-5.673,1.756a.912.912,0,0,1-.27-.945c0-.09.18,0,.27-.09.18-.45,1.486-.63,1.306-1.126,0-.09-.18-.09-.09-.09.36-.09.541-.63.945-.721,1.036-.27.36-1.756,1.306-2.206.09,0,.27-.27.27-.36,0-.18-.36-.27-.541-.18-.45.18-.541.945-1.126,1.486-.45.45-.36,1.216-.945,1.756a7.22,7.22,0,0,1-2.116,1.576c-.27.09-.721.541-1.036.45-.27-.09-.45-1.126-.856-1.036-.36.09-.18.945-.45,1.126a1.922,1.922,0,0,1-1.846-.18c-.541-.36-.27-2.792-1.486-2.026-.721.45,2.116,1.576-.09,2.972-.856.45-.721,1.846-1.666,2.522a1.328,1.328,0,0,1-1.036.09c-.63-.18-1.756-.63-1.846,0-.09.45,1.216.18,1.756.36.18.09.36.09.45.18.09.18.36.27.18.45a1.28,1.28,0,0,1-.541.18c-.721.18-1.936.18-2.7.36-.09,0-.09.09-.18.18a1.55,1.55,0,0,1-.856-.18,6.181,6.181,0,0,0-3.827-.09c2.341.09,5.178.856,7.43.541.36,0,.856-.541,1.306-.36.63.18.18,1.036.541,1.666.45.721,1.486.856,1.936,1.126C28.609,44.974,29.327,45.829,29.823,44.7ZM33.7,39.976c-.09-.09,0-.09.09-.18a.088.088,0,0,1,.09.09c0,.09-.18.18-.18.09Zm-.63,1.306c0-.09,0-.18.09-.18.09-.09.18.09.18.18C33.425,41.372,33.065,41.372,33.065,41.282Zm-.27.63a.314.314,0,0,1,.09-.18c.09-.09.36.09.36.18C33.335,42.182,32.795,42.092,32.795,41.912Zm-.675,1.126c-.09-.09.18-.18.18-.09S32.209,43.128,32.119,43.038Z" transform="translate(-11.668 -28.387)" fill="#fff"/>
              <path id="Path_244" d="M46.2,60.2Z" transform="translate(-27.775 -44.153)" fill="#fff"/>
            </g>
            <path id="Path_245" d="M100.3,32.9c1.4,0,2.116.63,1.756,1.036C101.3,34.926,97.784,32.9,100.3,32.9Z" transform="translate(-46.272 -17.935)" fill="#fff" opacity="0.8"/>
            <path id="Path_246" d="M7.276,41.122c.36-.27,1.4-1.036,1.846-.856.09,0,0,.36.18.36.27.18,1.036-.45,1.4-.36.63.18.945,1.756,1.486,2.026a3.49,3.49,0,0,0,1.666.09c.18,0,.27-.27.45-.36a3.553,3.553,0,0,1,1.4.36,4.78,4.78,0,0,1,.945.721,2.393,2.393,0,0,1,.541,1.126,1.609,1.609,0,0,1,.09,1.126,4.2,4.2,0,0,1-.45,1.126A4.219,4.219,0,0,1,15.7,47.516a2.154,2.154,0,0,1-.945.27,2.859,2.859,0,0,1-1.216.18,2.217,2.217,0,0,1-1.036-.09,9.8,9.8,0,0,1-1.126-.63c-.18-.09.18-.27.09-.45a.5.5,0,0,0-.45-.27c-.945.18-1.576.721-2.206.63-.18,0-.27-.27-.45-.27s-.36.27-.45.18-.09-.27-.18-.36C7.366,46.075,5.79,45.219,5.7,44.5c0-.18.45-.45.45-.63s-.36-.45-.36-.63a2.243,2.243,0,0,1,.541-.945,4.322,4.322,0,0,1,.945-1.171Z" transform="translate(5.242 -21.97)" fill="#fff" opacity="0.8"/>
            <path id="Path_247" d="M82.15,26.941c-.09.09-.36.27-.541.45a1.969,1.969,0,0,1-2.522.27c-.856-.721-.945-2.522.09-2.792.36-.09.63-.18,1.036-.27a2.724,2.724,0,0,1,1.666.856C82.061,25.726,82.646,26.491,82.15,26.941Z" transform="translate(-34.737 -13.373)" fill="#fff" opacity="0.8"/>
            <path id="Path_248" d="M87,52.123c.09-.09.18.09.27,0s-.18-.18-.27-.36c-.63-1.216.721-1.846,2.026-1.486a1.871,1.871,0,0,1,.721,0,.922.922,0,0,1,.45.541c.09.09.18.27.09.36,0,.09.09,0,.09.09.18.18-.18.18,0,.27.45.27.541.27.36.63-.09.18-.63.09-.541.27,0,.09.09.09.18.18.18.09,0,.18.18.36A2.743,2.743,0,0,1,91.188,55c-.09.27-.63.721-.63.945-.18.27-.27.27-.63.36-.18.09-.09.18-.18.18a4.211,4.211,0,0,1-1.486.18c-2.026-.18-3.827-3.152-1.936-4.1.27-.18.541-.09.63-.36C87,52.3,86.91,52.213,87,52.123Z" transform="translate(-38.641 -27.433)" fill="#fff" opacity="0.8"/>
            <path id="Path_249" d="M63.087,26.57c-.45.541-.945.541-1.126,1.4a1.919,1.919,0,0,0-2.522.09c-.09.09-.18.18-.18.27-.18,0-.36.09-.36.27h0c0,.09.18.18.18.18s-.27,1.486,1.666,1.891c.18,0,0,.36.09.36s.27.18.18.27c-.45.18-.63.63,0,.721.27,0,.45-.18.45-.541.09,0,.09.09.18.09a1.732,1.732,0,0,0,2.205-1.126h0c.09-.27-.09-.541.09-.721a.675.675,0,0,1,.45-.09,1.4,1.4,0,0,0,.721-.541c.541-.721.45-2.341-.45-2.612-.36-.09-.27-.09-.721-.18C63.988,26.39,63.268,26.39,63.087,26.57Z" transform="translate(-24.004 -14.307)" fill="#fff" opacity="0.8"/>
            <g id="Group_9" transform="translate(35.331 16.439)" opacity="0.85">
              <path id="Path_250" d="M48.644,75.1c0,.09.09.09.09.18-.09,0,0,.09-.09.09h-.089c-.09-.09.09-.09,0-.09C48.463,75.1,48.555,75.1,48.644,75.1Z" transform="translate(-36.552 -49.614)" fill="#fff"/>
              <path id="Path_251" d="M25.575,29.6a.088.088,0,0,1,.09.09c.09.18,0,.18,0,.27a.274.274,0,0,1-.36,0h0C25.08,29.78,25.395,29.6,25.575,29.6Z" transform="translate(-23.749 -24.601)" fill="#fff"/>
              <path id="Path_252" d="M24.636,42.957c.09-.09.27,0,.36.09,0,0-.09-.09.09,0,.27.18-.721.45-.63.09C24.365,43.136,24.457,42.957,24.636,42.957Z" transform="translate(-23.306 -31.924)" fill="#fff"/>
              <path id="Path_253" d="M53.971,33.379c.09-.27.45.09.36.18s-.09.09-.09.18C54.06,33.92,53.878,33.559,53.971,33.379Z" transform="translate(-39.537 -26.625)" fill="#fff"/>
              <path id="Path_254" d="M35.339,51.273c.09.18-.541.18-.45,0C34.935,51.183,35.114,51.093,35.339,51.273Z" transform="translate(-29.055 -36.459)" fill="#fff"/>
              <path id="Path_255" d="M32.075,54.213c.09-.18.721,0,.541.18-.09.09-.18.09-.36.09C32.209,54.481,31.982,54.392,32.075,54.213Z" transform="translate(-27.501 -38.091)" fill="#fff"/>
              <path id="Path_256" d="M33.37,58.816c.18-.18.63,0,.45.27a.331.331,0,0,1-.27.09C33.46,59.084,33.278,58.9,33.37,58.816Z" transform="translate(-28.212 -40.623)" fill="#fff"/>
              <path id="Path_257" d="M32.4,59.428c.09-.18.36.09.27.09S32.4,59.517,32.4,59.428ZM32.58,59.428Z" transform="translate(-27.692 -40.965)" fill="#fff"/>
              <path id="Path_258" d="M62.269,56.152c.27-.18.27.27.45.45s.27.721-.27.63C62.042,57.231,61.953,56.331,62.269,56.152Zm.27.81h0c0,.089.09,0,0,0Z" transform="translate(-44.007 -39.174)" fill="#fff"/>
              <path id="Path_259" d="M24.74,39.1c.09,0,0,.18,0,.27l-.18.18C24.29,39.46,24.56,39.1,24.74,39.1Z" transform="translate(-23.32 -29.824)" fill="#fff"/>
              <path id="Path_260" d="M52.446,60.436c-.09.18-.541.36-.63.09a1.152,1.152,0,0,1-.088-.945C51.86,59.445,52.536,60.165,52.446,60.436Z" transform="translate(-38.282 -41.073)" fill="#fff"/>
              <path id="Path_261" d="M39.716,27.386h0A4.129,4.129,0,0,0,38.5,25.9C38.905,26.441,39.265,26.89,39.716,27.386Z" transform="translate(-31.046 -22.567)" fill="#fff"/>
              <path id="Path_262" d="M36.188,21.246c0-.09.09-.18,0-.27-.18-.63-.45-1.486-.945-1.666-.09,0-.18-.09-.27-.09,0-.18.18-.63-.18-.721-.09,0,0,.27-.09.27-.36-.09-.27.45-.09.856a6.235,6.235,0,0,0,1.756,2.116A.82.82,0,0,1,36.188,21.246Z" transform="translate(-28.822 -18.499)" fill="#fff"/>
              <path id="Path_263" d="M37.1,52.736c0,.18,0,.27.27.36.18.09.45-.18.63-.36a.662.662,0,0,0,.18-.541c.18-.36.09-.541.18-.945.09-.18.18-.27.27-.45C38.045,51.475,37.19,52.106,37.1,52.736Z" transform="translate(-30.276 -36.256)" fill="#fff"/>
              <path id="Path_264" d="M45.1,52.841l.27-.541Z" transform="translate(-34.674 -37.08)" fill="#fff"/>
              <path id="Path_265" d="M39.71,33.045c-.18-.18-.27.09-.36,0-.18-.09.27,0,.09-.18-.09,0,0,0,0-.09s-.09.09-.09,0c-.18-.541-1.216-.18-2.026-.45-.36-.09-.09-.45-.36-.541-.18-.09-.18.36-.27.36s-.09,0-.18.09,0,.09,0,.18-.18.09-.18.18.18.09.18.09a.918.918,0,0,1-.36,1.036c-.36.18-.09-1.216-.09-1.216,0-.09,0-.09.09-.18h0c.18-.18.36-.36.18-.45s.18-.27,0-.541a.907.907,0,0,1-.09-.27c0-.09.36.09.36,0a.125.125,0,0,0,0-.18c-.09-.09.09-.36-.09-.541-.09-.09-.09.09-.18,0-.18-.36.09-.721,0-1.216,0-.09-.09-.09-.18-.18-.18-.09-.18.27-.45.18-.45-.09-.36-.856-.721-1.126-.27-.27-.856-.09-1.036-.36-.45-.721.63-1.666.63-2.341,0-.18,0-.45-.09-.36-.541.45-.09,1.486-.45,1.756h-.18c-.541.856-.945,1.4-1.4.856a3.517,3.517,0,0,1-.45-2.522c0-.18-.09-.27-.18-.45s-.36-.18-.541-.18c-.36.18.09.721.18,1.126.09.541.856,1.666.36,2.026a.435.435,0,0,1-.63,0,.314.314,0,0,1-.09-.18c-.18-.27-.18-.45-.36-.63a3.079,3.079,0,0,1,.27,1.306c-.09,1.036-1.936,1.126-3.062.18-.721-.45-1.576-1.486-2.206-1.036a.088.088,0,0,0-.09.09c-.721.63.721,1.126,1.576,1.306.945.18,2.116.36,2.612,1.126.63,1.4-2.116.721-3.062.63a4.226,4.226,0,0,1-2.612-.856c-.27-.18-.856-.09-1.036-.36,0-.09-.18-.27-.18-.27-.45-.09-1.756.63-.45,1.036h.36a4.294,4.294,0,0,0,1.846.45,2.926,2.926,0,0,0,.945.09,10.684,10.684,0,0,1,3.422.541,1.884,1.884,0,0,1,.541.36c.27.45-.09.945.27,1.486.09.18.36.18.45.36.09.27-.36.27-.18.63.09.27.856-.18.721.18-.09.945-2.522,1.756-1.846,2.341.63.541,1.4-2.341,1.936-1.666a.688.688,0,0,1,.18.45c.18-.45.27-1.216.856-.945a.088.088,0,0,1,.09.09c.541,1.036-1.4,2.206-.45,2.7.36.18.63-1.486,1.126-.945a1.152,1.152,0,0,1,.09.945h0c.09-.09.09-.18.18-.18s.27-.18.36-.09c.09.18,0,.945.18.721.27-.27-.09-1.216.36-1.036.09,0,.09,0,.09.09a7.484,7.484,0,0,1,.45,1.306c.09.36-.18.721-.09,1.036.09.27.541.856.856.856,1.036,0,0-1.756-.18-2.612-.09-.45,0-1.4-.541-1.756-.09-.09-.18-.09-.18-.18,0-.18-.09-.36.18-.36.541-.09.721.721,1.216,1.126l.856.856a2.7,2.7,0,0,0-.721-1.306c-.09-.09-.45-.36-.45-.541h.09c-.09-.27-.36-1.126.09-1.036.18.09.27,0,.36.18.45,1.036,1.4,1.576,1.936,2.522a1.25,1.25,0,0,0,.856.721c.09.09.18.27.36.18s-.27-.36-.09-.63c.09-.18.36-.18.27-.27l-.27-.27c-.18-.09-.18.27-.36.36-.541.09-1.216-.856-1.036-1.126.541-.63,2.116-.09,2.432-.856a2.2,2.2,0,0,0,.18-1.036,5.9,5.9,0,0,1-.54-.586Z" transform="translate(-21.945 -21.743)" fill="#fff"/>
              <path id="Path_266" d="M40.6,49.316c.45-.45.856-.856.721-1.216,0,.09-.09.18-.09.27C41.05,48.685,40.78,48.956,40.6,49.316Z" transform="translate(-32.2 -34.772)" fill="#fff"/>
              <path id="Path_267" d="M56.3,55.99A3.656,3.656,0,0,0,57.6,58.512c.09.09.36.27.45.18s0-.09,0-.09a1.983,1.983,0,0,0-.09-.721c-.18-.27-.36-.721-.541-.63-.09,0,.09.18,0,.18s0-.18,0-.27c-.18-.18-.09-.27-.27-.45-.18-.09-.36-.27-.36-.36H56.7c-.09-.18-.09-.36-.18-.45-.09-.18-.27-.36-.36-.541-.09-.27-.18-.18-.36-.36.18.36.27.63.45.945C56.115,55.99,56.205,55.9,56.3,55.99Z" transform="translate(-40.556 -38.564)" fill="#fff"/>
              <path id="Path_268" d="M54,52h0l.27.541A.642.642,0,0,0,54,52Z" transform="translate(-39.566 -36.915)" fill="#fff"/>
              <path id="Path_269" d="M43.232,56.112c.63.18.36-1.126.541-1.756a2.632,2.632,0,0,0,.09-.856C43.323,54.626,42.287,55.8,43.232,56.112Z" transform="translate(-33.437 -37.74)" fill="#fff"/>
              <path id="Path_270" d="M54.96,54.021c-.09-.27-.27-.45-.36-.721Z" transform="translate(-39.896 -37.63)" fill="#fff"/>
            </g>
            <path id="Path_271" d="M62.985,87.5c1.4-.09,1.666,2.7.36,3.152C61.859,91.19,61.589,87.587,62.985,87.5Z" transform="translate(-25.747 -47.948)" fill="#fff" opacity="0.8"/>
            <path id="Path_272" d="M41.1,24.7c-.09.18.18.63.18.856,0,.27-.27.27-.27.45,0,.27.18.09.541.18.18,0,.27.09.36.27.18.36-.27.36-.541.36-.36.09,0,.45-.09.856-.09.36-.09.63.18.63s.541,0,.63.27c.27.45-.18.721-.541.721-.18,0-.63.36-1.036.27-.18,0-.27-.36-.45-.45-.36-.09-.18.721-.856,1.126-.09.09-.18.36-.45.27-.36-.18-.36.27-.541.18-.27,0-.09.36-.36.36-.541,0-.856-.63-1.666-.721-1.216-.18-1.846-1.216-2.7-2.116-.09-.09-.36-.09-.45-.18-.18-.27.09-.45.09-.721,0-.18-.36-.09-.36-.18-.09-.27.09-.45.18-.721.09-.18.45-.09.45-.27.18-.27-.18-.45.09-.63a1.211,1.211,0,0,0,.541-.63c.27-.541,1.4-.27,1.666-.856.09-.18-.09-.36,0-.541.09-.27.541-.541.721-.27.09.09.18.27.27.36.18.36.63.09.63-.27,0-.541.18-.63.541-.541.45.09.541.856.18.945-.09,0-.18.18-.18.27h0c.18.27.945.36,1.126-.09.09-.18-.09-.18-.09-.36-.09-.27.36-.721.541-.45.09.09.36-.09.541.18.09.09.09.36.18.36C40.6,23.753,41.28,24.429,41.1,24.7Z" transform="translate(-9.626 -12.345)" fill="#fff" opacity="0.8"/>
          </g>
        </g>
      </g>
    </g>
  </g>
  <g id="Group_13" transform="translate(22.223 25.98)">
    <path id="Path_274" d="M25.4,32" transform="translate(-25.4 -32)" fill="none" stroke="#181816" stroke-linecap="round" stroke-linejoin="round" stroke-width="17.316"/>
  </g>
  <g id="Group_17" transform="translate(17.823 17.035)">
    <g id="Group_16" transform="translate(0 0)">
      <g id="Group_15">
        <g id="Group_14">
          <path id="Path_275" d="M24.163,21.8a4.635,4.635,0,0,1,1.936.36l-.45,1.216a2.909,2.909,0,0,0-1.486-.27,2.326,2.326,0,0,0-2.341,2.341v.046a2.318,2.318,0,0,0,2.206,2.432h.18a4.323,4.323,0,0,0,1.486-.27l.45,1.216a5.062,5.062,0,0,1-2.026.36,3.717,3.717,0,0,1-.225-7.43Z" transform="translate(-20.284 -21.795)" fill="#fff"/>
          <path id="Path_276" d="M48.8,28.124H45.736l-.36,1.036H43.8L46.682,22H47.9l2.882,7.159H49.2Zm-2.7-1.216h2.116l-1.127-2.792Z" transform="translate(-33.212 -21.908)" fill="#fff"/>
          <path id="Path_277" d="M73.442,26.88l2.206,2.206H73.8l-2.116-2.114v2.116H70.2V21.975h2.522a2.475,2.475,0,0,1,2.792,2.206v.27a2.329,2.329,0,0,1-2.071,2.429Zm-1.756-.99h.721c1.036,0,1.576-.45,1.576-1.306a1.185,1.185,0,0,0-1.126-1.3H71.731Z" transform="translate(-47.724 -21.882)" fill="#fff"/>
          <path id="Path_278" d="M94.1,22h1.126l3.422,4.548V22h1.486v7.159H99.008L95.586,24.7V29.25H94.1Z" transform="translate(-60.863 -21.908)" fill="#fff"/>
          <path id="Path_279" d="M121.986,22v7.159H120.5V22Z" transform="translate(-75.375 -21.908)" fill="#fff"/>
          <path id="Path_280" d="M138.922,27.088,140.858,22h1.576l-2.882,7.159h-1.215L135.5,22h1.576Z" transform="translate(-83.621 -21.908)" fill="#fff"/>
          <path id="Path_281" d="M164,28.124h-3.062l-.36,1.036H159L161.882,22H163.1l2.882,7.159H164.4Zm-2.567-1.216h2.116l-1.126-2.792Z" transform="translate(-96.54 -21.908)" fill="#fff"/>
          <path id="Path_282" d="M185.6,22h1.486v5.944h2.882v1.216H185.6Z" transform="translate(-111.163 -21.908)" fill="#fff"/>
        </g>
      </g>
    </g>
  </g>
  <g id="Group_22" transform="translate(40.325 28.212)" opacity="0.8">
    <g id="Group_21" transform="translate(0 0)">
      <path id="Path_283" d="M47.045,34.6v4.458H46.1V34.6Z" transform="translate(-46.1 -34.592)" fill="#fff"/>
      <path id="Path_284" d="M56.09,34.6h.63l2.116,2.792V34.6h.945v4.458h-.721l-2.116-2.792v2.792H56Z" transform="translate(-51.542 -34.592)" fill="#fff"/>
      <path id="Path_285" d="M72.916,35.321H71.7V34.6h3.242v.721H73.726v3.6h-.945Z" transform="translate(-60.173 -34.592)" fill="#fff"/>
      <path id="Path_286" d="M86.19,34.6h2.7v.721H87.045v1.216h1.486v.72H87.045V38.2h1.846v.721H86.1Z" transform="translate(-68.089 -34.592)" fill="#fff"/>
      <path id="Path_287" d="M100.845,39.048H99.9V34.59h1.486a1.607,1.607,0,0,1,1.756,1.4v.178a1.311,1.311,0,0,1-.856,1.306,1.793,1.793,0,0,1,.721,1.4v.09h-.945v-.09c-.09-.721-.45-1.216-1.126-1.216h-.27Zm0-2.071h.541a.855.855,0,0,0,.856-.856.828.828,0,0,0-.856-.856h-.541Z" transform="translate(-75.675 -34.582)" fill="#fff"/>
      <path id="Path_288" d="M114.8,34.6h.63l2.116,2.792V34.6h.945v4.458h-.63l-2.116-2.792v2.792H114.8Z" transform="translate(-83.866 -34.592)" fill="#fff"/>
      <path id="Path_289" d="M130.9,34.6h2.7v.721h-1.756v1.216h1.486v.72h-1.486V38.2h1.846v.721H130.9Z" transform="translate(-92.717 -34.592)" fill="#fff"/>
      <path id="Path_290" d="M145.016,35.321H143.8V34.6h3.332v.721h-1.216v3.6h-.945v-3.6Z" transform="translate(-99.808 -34.592)" fill="#fff"/>
    </g>
  </g>
</svg>
