<svg xmlns="http://www.w3.org/2000/svg" width="99.823" height="16.983" viewBox="0 0 99.823 16.983">
  <g id="ecourier-logo" transform="translate(0)">
    <path id="Path_7" data-name="Path 7" d="M79.534,4.118A1.372,1.372,0,0,0,78.18,5.507V15.689a1.355,1.355,0,1,0,2.709,0V5.507A1.372,1.372,0,0,0,79.534,4.118Z" transform="translate(-7.872 -0.415)" fill="#fff"/>
    <path id="Path_8" data-name="Path 8" d="M79.534,0a1.289,1.289,0,0,0-.959.405,1.356,1.356,0,0,0-.4.984,1.356,1.356,0,0,0,.4.984,1.338,1.338,0,0,0,1.919,0,1.356,1.356,0,0,0,.4-.984,1.356,1.356,0,0,0-.4-.984A1.29,1.29,0,0,0,79.534,0Z" transform="translate(-7.872 0)" fill="#fff"/>
    <path id="Path_9" data-name="Path 9" d="M16.082,0a1.29,1.29,0,0,0-.959.405,1.356,1.356,0,0,0-.4.984,1.356,1.356,0,0,0,.4.984,1.338,1.338,0,0,0,1.919,0,1.356,1.356,0,0,0,.4-.984,1.356,1.356,0,0,0-.4-.984A1.287,1.287,0,0,0,16.082,0Z" transform="translate(-1.483 0)" fill="#fff"/>
    <path id="Path_10" data-name="Path 10" d="M4,4.906A6.168,6.168,0,0,0,.532,8.363a6.39,6.39,0,0,0-.061,4.96,6.175,6.175,0,0,0,3.371,3.559,5.947,5.947,0,0,0,4.838.063,6.161,6.161,0,0,0,3.469-3.457l.007-.019s.482-1.422-.749-1.837a1.431,1.431,0,0,0-1.742.738h0l0,.009A3.588,3.588,0,0,1,8.043,14.2a3.46,3.46,0,0,1-3.129.131A3.479,3.479,0,0,1,3.442,13.14a.025.025,0,0,1,.01-.037L11.7,9.732a.924.924,0,0,0,.514-1.175.183.183,0,0,1-.01-.028,6.164,6.164,0,0,0-3.37-3.56A5.957,5.957,0,0,0,4,4.906ZM8.543,8.033,2.8,10.379a.024.024,0,0,1-.032-.027,3.662,3.662,0,0,1,.17-.673A3.733,3.733,0,0,1,5.264,7.39a3.38,3.38,0,0,1,2.5.135,3.592,3.592,0,0,1,.782.466A.026.026,0,0,1,8.543,8.033Z" transform="translate(0 -0.445)" fill="#fff"/>
    <path id="Path_11" data-name="Path 11" d="M13.35,13.706a1.367,1.367,0,1,1-1.367-1.4A1.385,1.385,0,0,1,13.35,13.706Z" transform="translate(-1.069 -1.239)" fill="#fff"/>
    <path id="Path_12" data-name="Path 12" d="M87.22,4.55a6.164,6.164,0,0,0-3.47,3.457,6.391,6.391,0,0,0-.062,4.96,6.173,6.173,0,0,0,3.371,3.558,5.952,5.952,0,0,0,4.838.063,6.161,6.161,0,0,0,3.47-3.457l.007-.019s.482-1.422-.749-1.837a1.431,1.431,0,0,0-1.742.738h0l0,.01a3.588,3.588,0,0,1-1.619,1.817,3.575,3.575,0,0,1-4.6-1.056.025.025,0,0,1,.01-.037l8.253-3.372A.924.924,0,0,0,95.438,8.2a.184.184,0,0,1-.01-.028,6.173,6.173,0,0,0-3.371-3.558A5.944,5.944,0,0,0,87.22,4.55Zm4.541,3.127L86.02,10.022A.024.024,0,0,1,85.987,10a3.662,3.662,0,0,1,.17-.673,3.733,3.733,0,0,1,2.324-2.29,3.38,3.38,0,0,1,2.5.135,3.592,3.592,0,0,1,.782.466A.025.025,0,0,1,91.761,7.676Z" transform="translate(-8.38 -0.41)" fill="#fff"/>
    <path id="Path_13" data-name="Path 13" d="M96.6,13.3a1.367,1.367,0,1,1-1.367-1.4A1.385,1.385,0,0,1,96.6,13.3Z" transform="translate(-9.452 -1.198)" fill="#fff"/>
    <path id="Path_14" data-name="Path 14" d="M29.766,13.4a1.309,1.309,0,0,0-1.857.162l-.014.014a3.548,3.548,0,0,1-5.106,0,3.616,3.616,0,0,1-1.057-2.618A3.618,3.618,0,0,1,22.79,8.334a3.548,3.548,0,0,1,5.106,0l.014.014a1.372,1.372,0,0,0,1.946.024c.962-.894-.027-1.99-.027-1.99l-.014-.014a6.223,6.223,0,0,0-8.942,0,6.322,6.322,0,0,0-1.848,4.585,6.327,6.327,0,0,0,1.848,4.585,6.223,6.223,0,0,0,8.942,0l.014-.014S30.883,14.231,29.766,13.4Z" transform="translate(-1.916 -0.45)" fill="#fff"/>
    <path id="Path_15" data-name="Path 15" d="M31.309,7.627a1.367,1.367,0,1,1-1.367-1.4A1.385,1.385,0,0,1,31.309,7.627Z" transform="translate(-2.877 -0.627)" fill="#fff"/>
    <path id="Path_16" data-name="Path 16" d="M74.7,6.026l-.014-.014a6.223,6.223,0,0,0-8.942,0A6.323,6.323,0,0,0,63.894,10.6v5.141A1.323,1.323,0,0,0,65.2,17.078a1.42,1.42,0,0,0,1.4-1.439V10.62a3.754,3.754,0,0,1,.938-2.514,3.541,3.541,0,0,1,5.225-.127l.014.014a1.463,1.463,0,0,0,2.018.093A1.381,1.381,0,0,0,74.7,6.026Z" transform="translate(-6.434 -0.415)" fill="#fff"/>
    <path id="Path_17" data-name="Path 17" d="M74.886,5.937a1.289,1.289,0,0,0-.959.405,1.422,1.422,0,0,0,0,1.967,1.338,1.338,0,0,0,1.919,0,1.422,1.422,0,0,0,0-1.967A1.289,1.289,0,0,0,74.886,5.937Z" transform="translate(-7.404 -0.598)" fill="#fff"/>
    <path id="Path_18" data-name="Path 18" d="M109.154,6.026l-.013-.014a6.222,6.222,0,0,0-8.942,0A6.322,6.322,0,0,0,98.351,10.6v5.141a1.323,1.323,0,0,0,1.306,1.339,1.42,1.42,0,0,0,1.4-1.439V10.62A3.753,3.753,0,0,1,102,8.106a3.541,3.541,0,0,1,5.225-.127l.013.014a1.463,1.463,0,0,0,2.018.093A1.381,1.381,0,0,0,109.154,6.026Z" transform="translate(-9.904 -0.415)" fill="#fff"/>
    <path id="Path_19" data-name="Path 19" d="M109.342,5.937a1.289,1.289,0,0,0-.96.405,1.423,1.423,0,0,0,0,1.967,1.339,1.339,0,0,0,1.919,0,1.423,1.423,0,0,0,0-1.967A1.289,1.289,0,0,0,109.342,5.937Z" transform="translate(-10.874 -0.598)" fill="#fff"/>
    <path id="Path_20" data-name="Path 20" d="M38.7,4.473a6.017,6.017,0,0,0-4.471,1.895,6.327,6.327,0,0,0-1.848,4.585,6.327,6.327,0,0,0,1.848,4.585,6.223,6.223,0,0,0,8.942,0,6.327,6.327,0,0,0,1.848-4.585A6.325,6.325,0,0,0,43.17,6.368,6.015,6.015,0,0,0,38.7,4.473Zm2.554,9.1a3.548,3.548,0,0,1-5.106,0,3.611,3.611,0,0,1-1.057-2.618,3.618,3.618,0,0,1,1.057-2.619,3.548,3.548,0,0,1,5.106,0,3.616,3.616,0,0,1,1.057,2.619A3.614,3.614,0,0,1,41.252,13.571Z" transform="translate(-3.26 -0.45)" fill="#fff"/>
    <path id="Path_21" data-name="Path 21" d="M40.613,11.473a1.367,1.367,0,1,1-1.367-1.4A1.385,1.385,0,0,1,40.613,11.473Z" transform="translate(-3.814 -1.014)" fill="#fff"/>
    <path id="Path_22" data-name="Path 22" d="M59.233,4.473h-.068a1.414,1.414,0,0,0-1.4,1.431v4.957a3.879,3.879,0,0,1-1.077,2.731,3.419,3.419,0,0,1-2.114,1.042,3.673,3.673,0,0,1-3.325-1.477,3.609,3.609,0,0,1-.7-2.2V5.829a1.34,1.34,0,0,0-1.322-1.356A1.405,1.405,0,0,0,47.839,5.9v5.057a6.327,6.327,0,0,0,1.848,4.585,6.223,6.223,0,0,0,8.942,0,6.327,6.327,0,0,0,1.848-4.585V5.75A1.261,1.261,0,0,0,59.233,4.473Z" transform="translate(-4.817 -0.45)" fill="#fff"/>
    <path id="Path_23" data-name="Path 23" d="M61.633,5.785a1.367,1.367,0,1,1-1.367-1.4A1.385,1.385,0,0,1,61.633,5.785Z" transform="translate(-5.931 -0.441)" fill="#fff"/>
  </g>
</svg>
