<svg id="entrepreneur" xmlns="http://www.w3.org/2000/svg" width="180.012" height="35.124" viewBox="0 0 180.012 35.124">
  <path id="Path_43" data-name="Path 43" d="M33.244,92.442h2.127v6.365c-2.011.586-2.011.586-2.743-1.884H30.817v9.711h4.609c.184-1.372.369-2.747.556-4.147h3.375c.118,2.214.231,4.36.351,6.636H23.371c.056-.775.107-1.459.167-2.285l2.255-.616V87.913c0-2.332,0-2.332-2.407-2.691V82.928h15.93c-.121,2.047-.241,4.082-.369,6.246H35.729l-.38-3.739H30.866V94.5h1.763Z" transform="translate(-23.371 -82.928)" fill="#fff"/>
  <path id="Path_44" data-name="Path 44" d="M101.8,109.142v6.472l1.673.457V118H95.608c-.572-1.5.011-2.214,1.574-2.292V93.6L95.331,93.1c-.51-1.417-.086-2.122,1.511-2.179,1.245-.044,2.482-.288,3.754-.446L101.2,91.9a20.407,20.407,0,0,1,3.067-1.335c2.861-.738,5.224.392,6.219,3.127a17.2,17.2,0,0,1-.048,12.171,5.122,5.122,0,0,1-4.927,3.464C104.329,109.369,103.14,109.216,101.8,109.142Zm-.067-8.728c0,1.365.088,2.737-.025,4.092-.11,1.326.277,2.049,1.688,2.16,1.867.147,3.041-.332,3.15-1.713.217-2.761.254-5.54.267-8.311a4.991,4.991,0,0,0-.59-2.021,2.232,2.232,0,0,0-3.091-1.017,2.907,2.907,0,0,0-1.337,2.069A36.62,36.62,0,0,0,101.733,100.414Z" transform="translate(-22.841 -82.873)" fill="#fff"/>
  <path id="Path_45" data-name="Path 45" d="M147.284,107.349c.7,1.438.113,1.959-1.451,1.869-2.059-.12-4.131-.029-6.263-.029v-2.094c1.663.034,1.857-.954,1.812-2.341-.1-3.054-.028-6.113-.03-9.17,0-1.885,0-1.885-2-2.216V91.386l5.082-.786.66,1.224a24.161,24.161,0,0,1,3.951-1.39,4.608,4.608,0,0,1,5.535,4.739c.047,3.763.011,7.527.011,11.372l1.821.642c.359,1.465-.055,2.18-1.683,2.02-1.456-.144-3.447.406-4.241-.352-.771-.735-.368-2.744-.389-4.195-.043-2.838.024-5.678-.045-8.515-.043-1.8-.924-2.493-2.6-2.321a1.578,1.578,0,0,0-1.63,1.679c-.024,3.438-.073,6.879.055,10.314C145.893,106.344,146.792,106.839,147.284,107.349Z" transform="translate(-22.514 -82.873)" fill="#fff"/>
  <path id="Path_46" data-name="Path 46" d="M48.666,107.361c.678,1.474.028,1.945-1.5,1.857-2.012-.118-4.037-.029-6.166-.029v-2l1.762-.639c0-3.965.063-7.9-.071-11.819-.019-.567-.986-1.1-1.514-1.652l-.474.337V91.393l5.136-.787c.247.485.463.908.622,1.217a25.168,25.168,0,0,1,3.693-1.353,4.674,4.674,0,0,1,5.809,4.783c.052,3.763.012,7.527.012,11.317l1.906.651-.22,1.89H51.435V106c0-3.277.026-6.554-.013-9.83-.02-1.753-.917-2.5-2.589-2.355a1.525,1.525,0,0,0-1.61,1.669c-.01,3.44-.066,6.883.06,10.319C47.3,106.338,48.184,106.842,48.666,107.361Z" transform="translate(-23.243 -82.873)" fill="#fff"/>
  <path id="Path_47" data-name="Path 47" d="M188.785,107.053c-.13.812-.224,1.4-.351,2.182-1.907-.592-4.185,1.125-5.591-1.019a19.508,19.508,0,0,1-4.021,1.1c-3.675.211-5.6-1.73-5.619-5.411-.02-3.491-.005-6.98-.005-10.561l-1.99-.434v-1.79c1.811-.192,3.589-.5,5.372-.53,1.215-.019,1.093,1.156,1.1,1.959.043,3.5.01,6.991.028,10.487a7.376,7.376,0,0,0,.2,1.773c.379,1.479,1.495,1.725,2.82,1.567s1.632-1.02,1.622-2.2c-.03-3.6-.011-7.2-.011-10.912-.458-.056-.895.008-1.164-.174-.373-.252-.863-.694-.854-1.045a1.4,1.4,0,0,1,.886-1.005,26.285,26.285,0,0,1,3.416-.412c2.024-.168,2.238.014,2.249,2.1.023,4.042.053,8.084-.019,12.125C186.836,106.173,187.01,107.12,188.785,107.053Z" transform="translate(-22.279 -82.871)" fill="#fff"/>
  <path id="Path_48" data-name="Path 48" d="M85.8,101.052c.388,5.246,2.37,6.39,7.907,4.686.244.56.494,1.135.765,1.762a8.83,8.83,0,0,1-8.615,1.366c-3.182-1.2-4.375-4-4.747-7.109a13.043,13.043,0,0,1,.873-7.062,6.911,6.911,0,0,1,6.858-4.356c2.9.168,4.789,1.783,5.769,4.96.128.415.213.844.3,1.269.861,4.023.529,4.461-3.426,4.482C89.633,101.061,87.779,101.052,85.8,101.052Zm-.28-2.431H91.3A33.585,33.585,0,0,0,89.918,94.1a2.3,2.3,0,0,0-1.863-.877A2.087,2.087,0,0,0,86.583,94.4,38.909,38.909,0,0,0,85.52,98.621Z" transform="translate(-22.945 -82.873)" fill="#fff"/>
  <path id="Path_49" data-name="Path 49" d="M161.8,101.053c-.393,4.766,2.444,6.459,7.639,4.677a9,9,0,0,1,.477.78,9.306,9.306,0,0,1,.333.872,7.771,7.771,0,0,1-12.534-2.728,12.932,12.932,0,0,1-.2-9.121c1.178-3.569,4.007-5.479,7.426-5.181,3.09.269,5.272,2.585,5.906,6.269.708,4.105.468,4.4-3.69,4.428C165.366,101.064,163.572,101.053,161.8,101.053Zm5.385-2.395a28.488,28.488,0,0,0-1.263-4.323,1.888,1.888,0,0,0-3.534.252,28.533,28.533,0,0,0-.925,4.071Z" transform="translate(-22.385 -82.873)" fill="#fff"/>
  <path id="Path_50" data-name="Path 50" d="M129.808,101.054c.1,4.944,2.2,6.18,7.908,4.731l.674,1.583a7.734,7.734,0,0,1-12.6-2.88,13.161,13.161,0,0,1,0-9.288,6.851,6.851,0,0,1,7.168-4.851c3.1.238,5.19,2.3,5.919,5.852.922,4.49.685,4.8-3.831,4.85C133.3,101.071,131.554,101.054,129.808,101.054Zm5.519-2.382a33.082,33.082,0,0,0-1.387-4.581c-.621-1.319-2.67-1.4-3.175-.157a37.454,37.454,0,0,0-1.278,4.738Z" transform="translate(-22.621 -82.873)" fill="#fff"/>
  <path id="Path_51" data-name="Path 51" d="M114.369,93.671l-1.832-.242V91.388l5.274-.784c.214.5.4.934.608,1.408.125-.035.266-.073.406-.115,1.4-.426,2.77-.95,4.192-1.249,1.11-.233,1.777.259,1.581,1.56-.2,1.334-.306,2.682-.475,4.219L121.1,96.19c-.129-.848-.241-1.582-.359-2.354-1.348-.089-1.85.4-1.82,1.685.07,3,.081,6,0,9-.039,1.428-.042,2.649,1.806,2.62.434,1.645-.182,2.147-1.718,2.067-2.014-.1-4.036-.025-6.189-.025-.035-1-.652-2.034.954-2.315a1.064,1.064,0,0,0,.574-.826C114.382,101.964,114.369,97.882,114.369,93.671Z" transform="translate(-22.712 -82.871)" fill="#fff"/>
  <path id="Path_52" data-name="Path 52" d="M68.489,93.24V91.4c1.572-.243,3.063-.565,4.57-.653.48-.028,1,.569,1.7,1.005a34.3,34.3,0,0,1,3.954-1.09c1.652-.277,2.084.27,1.875,1.885-.16,1.232-.29,2.467-.428,3.658-2.786.43-2.922.331-3.48-2.379-1.264-.119-1.753.436-1.731,1.711.055,3.11.077,6.223-.009,9.331-.037,1.338.192,2.255,1.81,2.216v1.968H68.8c-.183-.968-.459-1.891,1-2.2.25-.053.536-.664.539-1.02.04-3.71.084-7.423-.038-11.131-.017-.551-.883-1.074-1.358-1.611Z" transform="translate(-23.038 -82.871)" fill="#fff"/>
  <path id="Path_53" data-name="Path 53" d="M197.727,107.143c-.052.7-.095,1.285-.143,1.939H189.6c.045-.974-.334-1.944,1.06-2.235.28-.058.609-.732.613-1.126.047-3.661.087-7.324-.034-10.981-.018-.556-.866-1.085-1.331-1.626l-.456.281V91.3c1.982.241,4.054-1.524,6.262.442a34.466,34.466,0,0,1,3.669-1.069c1.789-.34,2.319.234,2.122,2.008-.043.38-.126.755-.179,1.132-.372,2.686-.371,2.686-3.22,2.357-.091-.377-.2-.785-.287-1.2-.081-.369-.143-.742-.214-1.112-1.4-.222-1.679.483-1.659,1.669.052,3.114.062,6.23,0,9.344C195.91,106.148,196.007,107.171,197.727,107.143Z" transform="translate(-22.144 -82.871)" fill="#fff"/>
  <path id="Path_54" data-name="Path 54" d="M57.726,90.928c1.856.358,2.5-.719,2.818-2.37.254-1.33.374-1.308,3.437-1.341v3.632l3.184.179c0,2.135,0,2.135-3.07,2.761,0,3.815-.047,7.674.061,11.53.013.465.8,1.064,1.354,1.314a4.9,4.9,0,0,0,1.82.047c.078.766.142,1.4.254,2.5a40.135,40.135,0,0,1-5.426.005c-1.686-.218-2.623-1.772-2.642-3.83-.031-3.33-.009-6.662-.01-9.992V93.8C57.251,93.242,57.251,93.242,57.726,90.928Z" transform="translate(-23.119 -82.896)" fill="#fff"/>
  <path id="Path_55" data-name="Path 55" d="M202.077,108.083a.929.929,0,1,1-.929-.929A.928.928,0,0,1,202.077,108.083Z" transform="translate(-22.064 -82.749)" fill="#fff"/>
</svg>
