<svg xmlns="http://www.w3.org/2000/svg" width="153.121" height="29.636" viewBox="0 0 153.121 29.636">
  <path id="facebook" d="M9.7,29.179H3.93V14.8H0V10.113H3.93V6.781C3.93,2.832,5.669,0,11.423,0,12.64,0,14.55.245,14.55.245V4.594H12.544C10.5,4.594,9.7,5.216,9.7,6.935v3.178h4.773L14.049,14.8H9.7ZM22.939,9.739c-.084,0-.171,0-.256.005-5.35,0-7.8,4.024-7.8,9.737,0,7.2,3.175,10.077,7.84,10.077a5.637,5.637,0,0,0,5.488-3.22v2.843H33.7V10.115H28.213v2.932A5.624,5.624,0,0,0,22.939,9.739Zm1.4,4.505c2.247,0,3.6,1.567,3.6,4.233l.005,2.723a3.648,3.648,0,0,1-3.6,3.9c-3.823,0-3.721-4.128-3.721-5.5,0-4.625,2.037-5.352,3.721-5.352Zm11.582,5.405c0-2.317-.111-9.9,9.766-9.9,3.965,0,5.62,1.261,5.62,1.261l-1.331,4.127a8.685,8.685,0,0,0-3.808-.91c-2.759,0-4.52,1.6-4.52,4.414l0,2.018a4.211,4.211,0,0,0,4.523,4.51,9.458,9.458,0,0,0,3.772-.919l1.327,4.041s-1.514,1.269-5.559,1.269c-9.4,0-9.794-6.8-9.794-9.912ZM83.48,9.744c5.35,0,7.837,4.024,7.837,9.737,0,7.2-3.175,10.077-7.84,10.077a5.958,5.958,0,0,1-5.707-3.22v2.843l-5.419,0V.58L78.1.078V12.789c.83-2.224,3.559-3.045,5.376-3.045Zm-1.613,4.5c-2.247,0-3.763,1.567-3.763,4.233L78.1,21.2a3.644,3.644,0,0,0,3.768,3.9c3.823,0,3.721-4.128,3.721-5.5,0-4.625-2.037-5.352-3.721-5.352ZM61.286,9.76c-6.068,0-9.272,3.308-9.272,9.188V20.04c0,7.631,4.5,9.6,9.862,9.6,5.213,0,7.573-1.458,7.573-1.458l-1.077-3.883a16.787,16.787,0,0,1-5.807,1.181c-3.142,0-4.493-.8-4.84-3.82H69.909V18.54c0-6.378-3.6-8.78-8.624-8.78Zm.146,3.888c2.1,0,3.462,1.288,3.387,4.275H57.737c.123-3.144,1.591-4.275,3.695-4.275Zm41.357-3.915c-6.232,0-9.512,3.512-9.512,9.8,0,8.634,5.655,10.024,9.523,10.024,5.662,0,9.429-3.048,9.429-9.946,0-7.179-4.235-9.883-9.439-9.883Zm-.078,4.526c2.74,0,3.826,2.051,3.826,4.385v2.007c0,2.828-1.519,4.463-3.836,4.463-2.167,0-3.69-1.53-3.69-4.463V18.645c0-3.129,1.812-4.385,3.7-4.385Zm20.979-4.526c-6.232,0-9.512,3.512-9.512,9.8,0,8.634,5.655,10.024,9.523,10.024,5.662,0,9.429-3.048,9.429-9.946,0-7.179-4.235-9.883-9.439-9.883Zm-.078,4.526c2.74,0,3.826,2.051,3.826,4.385v2.007c0,2.828-1.519,4.463-3.836,4.463-2.167,0-3.69-1.53-3.69-4.463V18.645c0-3.129,1.812-4.385,3.7-4.385ZM135.3,29.179V.58l5.77-.5V19.247l5.725-9.134h6.094l-5.972,9.46,6.2,9.606H147.01l-5.937-9.327v9.327Z" fill="#fff"/>
</svg>
