<svg id="forbes" xmlns="http://www.w3.org/2000/svg" width="110.104" height="29.998" viewBox="0 0 110.104 29.998">
  <path id="Path_10" data-name="Path 10" d="M120.1,92.426c.211-.086.417-.164.618-.253,5.479-2.412,10.682.482,11.51,6.419a12.06,12.06,0,0,1-1.777,8.829,9.781,9.781,0,0,1-7.824,4.1,26.967,26.967,0,0,1-8.145-.864c0-2.3.013-4.532,0-6.766q-.054-7.593-.139-15.185a6.21,6.21,0,0,0-.2-1.429,1.852,1.852,0,0,0-1.746-1.548.866.866,0,0,1-.646-.42c-.138-.484.3-.465.621-.526,2.565-.495,5.129-.994,7.731-1.5Zm-.066,9.3h.174c0,2.414-.015,4.829.007,7.243.01,1.053.13,1.126,1.2,1.178a3.558,3.558,0,0,0,3.243-1.916,11.558,11.558,0,0,0,1.676-5.323,12.938,12.938,0,0,0-1.042-7.216,3.657,3.657,0,0,0-4.6-2.107.765.765,0,0,0-.668.9C120.053,96.895,120.034,99.311,120.034,101.725Z" transform="translate(-57.4 -81.581)" fill="#fff"/>
  <path id="Path_11" data-name="Path 11" d="M55.02,102.292c-.727.229-1.083.066-1.3-.739-.613-2.319-1.6-3.019-3.985-3.033-.634,0-1.268,0-1.882,0-.052.064-.111.1-.11.141.1,2.843.107,5.694.337,8.526.166,2.042,1.093,2.757,3.143,2.9.945.065.957.081.821,1.121H37.689c-.159-1.031-.159-1.031.751-1.133,1.794-.2,2.684-1.083,2.82-3.089.186-2.737.336-5.483.329-8.225-.01-3.429-.136-6.861-.325-10.285-.117-2.126-.787-2.735-2.907-3.134-.223-.042-.443-.1-.7-.161V84.156h22.52c0,1.719,0,3.414,0,5.109,0,.407.007.814,0,1.22-.011,1.4.266,1.182-1.286,1.614-.072-.163-.15-.337-.224-.512-.347-.817-.637-1.662-1.047-2.444a5.721,5.721,0,0,0-5.438-3.265c-1.22,0-2.441.012-3.662-.006-.4-.006-.618.11-.629.547-.089,3.478-.185,6.956-.286,10.643a31.94,31.94,0,0,0,4.121-.449c1.239-.3,1.706-1.471,1.986-2.6.185-.748.5-1.047,1.307-.8Z" transform="translate(-37.609 -81.814)" fill="#fff"/>
  <path id="Path_12" data-name="Path 12" d="M64.27,103.52A9.985,9.985,0,0,1,67.9,95.983c3.616-3.005,10.9-3,13.98,1.389a11.5,11.5,0,0,1,1.874,8.053,9.669,9.669,0,0,1-3.633,6.957c-3.759,2.955-10.085,2.631-13.246-.666C65.2,109.966,64.269,107.308,64.27,103.52Zm5.888.292.27.027c0,.889-.037,1.78.012,2.666a13.511,13.511,0,0,0,.284,1.957,7.747,7.747,0,0,0,1.574,3.746,2.413,2.413,0,0,0,3.972-.2,5.737,5.737,0,0,0,.822-1.783,25.017,25.017,0,0,0,.366-9.977,7.974,7.974,0,0,0-1.48-3.948,2.519,2.519,0,0,0-4.283.209,4.392,4.392,0,0,0-.664,1.523C70.7,99.954,70.442,101.885,70.158,103.811Z" transform="translate(-44.728 -84.41)" fill="#fff"/>
  <path id="Path_13" data-name="Path 13" d="M158.8,110.089l.543.638a8.738,8.738,0,0,1-4.83,3.261c-5.039,1.415-11.24-.836-12.52-7.414a11.423,11.423,0,0,1,1.3-8.093,9.51,9.51,0,0,1,11.028-4.2c2.962.927,4.371,3.233,5,6.1.2.9.248,1.842.379,2.872h-12c.037,2.872.59,5.467,3.038,7.109C153.375,112.142,156.1,111.866,158.8,110.089Zm-5.15-8.337a10.331,10.331,0,0,0-.858-5.4,1.767,1.767,0,0,0-3.021-.511c-1.6,1.66-1.833,3.791-1.964,5.912Z" transform="translate(-65.419 -84.406)" fill="#fff"/>
  <path id="Path_14" data-name="Path 14" d="M180.468,100.192a31.725,31.725,0,0,0-1.574-3.045,3.8,3.8,0,0,0-3.822-1.712,2.309,2.309,0,0,0-2.049,1.591,2.522,2.522,0,0,0,.362,2.723,5.032,5.032,0,0,0,1.3,1.037c1.027.552,2.1,1.022,3.152,1.521.39.184.792.343,1.179.531,1.942.942,3.243,2.348,3.292,4.631a6.018,6.018,0,0,1-3.061,5.737,9.156,9.156,0,0,1-4.22,1.162,20.276,20.276,0,0,1-6.988-.937.872.872,0,0,1-.717-.973c-.007-1.4-.086-2.795-.134-4.193-.013-.394-.128-.8.486-.921.56-.106.586.284.77.61A22.3,22.3,0,0,0,170.285,111a4.26,4.26,0,0,0,4.232,1.535,2.775,2.775,0,0,0,2.358-2.2,2.479,2.479,0,0,0-1.088-2.93,29.38,29.38,0,0,0-3.135-1.533c-.62-.288-1.268-.517-1.887-.808-4.151-1.952-3.784-7.363-.775-9.553a8.28,8.28,0,0,1,4.309-1.569,15.241,15.241,0,0,1,6.092.71.894.894,0,0,1,.754.952c.015,1.269.089,2.54.2,3.806C181.418,100.2,180.831,100.059,180.468,100.192Z" transform="translate(-72.207 -84.413)" fill="#fff"/>
  <path id="Path_15" data-name="Path 15" d="M90.949,113.761c-.2-.7-.063-1.06.732-1.146,1.149-.122,1.564-.637,1.678-1.8a62.207,62.207,0,0,0,0-12.488c-.139-1.341-.5-1.65-2.4-2.011-.183-.455-.1-.744.451-.85,2.615-.509,5.226-1.032,7.907-1.564v4.036a8.835,8.835,0,0,1,3.309-3.462,5.136,5.136,0,0,1,4.78-.082c-.681,1.81-1.346,3.575-2.04,5.418a5.874,5.874,0,0,0-3.733-1,6.36,6.36,0,0,0-1.462.377,1.189,1.189,0,0,0-.819,1.238c.055,3.328.053,6.657.148,9.984.047,1.646.63,2.148,2.252,2.258.229.015.518-.04.668.079a1.069,1.069,0,0,1,.364.68c.012.129-.287.41-.446.411-3.74.017-7.478.005-11.217,0A.617.617,0,0,1,90.949,113.761Z" transform="translate(-51.831 -84.4)" fill="#fff"/>
  <path id="Path_16" data-name="Path 16" d="M149.635,89.195c-.748.223-1.053-.03-1.163-.753a14.721,14.721,0,0,0-.788-2.98v3.754h-.965V81.077c.8-.307,1.129,0,1.245.771a10.924,10.924,0,0,0,.652,2.42v-3.24h1.018Z" transform="translate(-66.746 -80.96)" fill="#fff"/>
  <path id="Path_17" data-name="Path 17" d="M152.348,89.267V81c.571,0,1.1-.032,1.629.008a1.363,1.363,0,0,1,1.322,1.4q.029,2.709,0,5.418a1.379,1.379,0,0,1-1.316,1.416,8.853,8.853,0,0,1-.915.017C152.843,89.269,152.619,89.267,152.348,89.267Zm1.136-1.173.232.175c.154-.21.438-.417.443-.631.037-1.674.022-3.349.019-5.024,0-.478-.251-.594-.694-.492Z" transform="translate(-68.248 -80.969)" fill="#fff"/>
  <path id="Path_18" data-name="Path 18" d="M162.024,87.856c-.078.51-.142.935-.211,1.39h-1.086c.348-2.748.691-5.455,1.038-8.194h1.43q.506,4.054,1.014,8.115c-1.075.25-1.135.234-1.2-.783C162.953,87.626,162.508,87.789,162.024,87.856Zm.5-4.1-.1-.012c-.1.988-.206,1.975-.315,3.026l.718-.054C162.719,85.7,162.62,84.727,162.521,83.757Z" transform="translate(-70.486 -80.985)" fill="#fff"/>
  <path id="Path_19" data-name="Path 19" d="M159.029,89.241h-1.064v-8.2h1.064Z" transform="translate(-69.748 -80.983)" fill="#fff"/>
  <path id="Path_20" data-name="Path 20" d="M144.705,89.254H143.7v-8.2h1.007Z" transform="translate(-65.939 -80.986)" fill="#fff"/>
</svg>
