<svg id="gartner" xmlns="http://www.w3.org/2000/svg" width="133.452" height="30.413" viewBox="0 0 133.452 30.413">
  <path id="Path_1" data-name="Path 1" d="M61.132,86.418c-1.285,1.237-2.543,2.447-3.845,3.7.028.017-.055-.018-.123-.071a11.166,11.166,0,0,0-6.491-2.286,11.167,11.167,0,0,0-4.213.487,8.257,8.257,0,0,0-5.218,4.744,11.646,11.646,0,0,0-.033,9.407,8.469,8.469,0,0,0,7.065,5.3,14.363,14.363,0,0,0,7.209-.734.572.572,0,0,0,.435-.638c-.02-1.716-.009-3.431-.01-5.147,0-.15-.012-.3-.021-.49H49.946c.139-1.685.274-3.322.411-5H61.576v.505q0,6.676.009,13.353a.679.679,0,0,1-.425.71,22.706,22.706,0,0,1-8.352,2.58,19.271,19.271,0,0,1-11-1.81,13.2,13.2,0,0,1-7.076-9.4,17.135,17.135,0,0,1,.55-9.446,13.39,13.39,0,0,1,8.162-8.389,18.551,18.551,0,0,1,14.009.267A12.83,12.83,0,0,1,61.132,86.418Z" transform="translate(-34.317 -82.547)" fill="#fff"/>
  <path id="Path_2" data-name="Path 2" d="M166.262,109.918a10.6,10.6,0,0,1-4.842,3.528,11.477,11.477,0,0,1-8.29-.2,9.409,9.409,0,0,1-5.948-7.93,10.758,10.758,0,0,1,1.474-7.426,9.541,9.541,0,0,1,7.459-4.489,11.53,11.53,0,0,1,4.9.507,8.364,8.364,0,0,1,5.641,6.451,18.967,18.967,0,0,1,.369,5.193H152.45a3.194,3.194,0,0,0,.039.441,4.878,4.878,0,0,0,4.381,3.667,6.611,6.611,0,0,0,5.639-2.125c.072-.078.156-.146.269-.251Zm-4.581-8.491a4,4,0,0,0-1.5-3.01,4.618,4.618,0,0,0-3.732-.835,4.55,4.55,0,0,0-3.861,3.108,6.675,6.675,0,0,0-.172.736Z" transform="translate(-48.824 -83.935)" fill="#fff"/>
  <path id="Path_3" data-name="Path 3" d="M86.747,113.579H82.026c-.056-.606-.109-1.195-.173-1.884a6.534,6.534,0,0,1-3.4,2.049,9.808,9.808,0,0,1-6.487-.4,5.608,5.608,0,0,1-3.434-5.452c.064-2.814,1.453-4.7,4.263-5.757a18.389,18.389,0,0,1,5.953-1.019c.909-.03,1.82,0,2.712,0a2.847,2.847,0,0,0-1.481-3.067,5.582,5.582,0,0,0-2.886-.508,7.683,7.683,0,0,0-4.765,1.909,1.083,1.083,0,0,1-.118.088L69.08,96.548c.136-.126.227-.224.33-.3a13.569,13.569,0,0,1,9.622-2.864,11.2,11.2,0,0,1,3.909.872,6.1,6.1,0,0,1,3.716,5.193,15.537,15.537,0,0,1,.087,1.756q.01,5.887,0,11.772Zm-5.231-8.633c-1.236.055-2.435.026-3.609.186a11.422,11.422,0,0,0-2.793.759,1.908,1.908,0,0,0-1.223,2.082,2.041,2.041,0,0,0,1.744,1.848,5.165,5.165,0,0,0,4.716-1.324A3.971,3.971,0,0,0,81.517,104.946Z" transform="translate(-38.719 -83.936)" fill="#fff"/>
  <path id="Path_4" data-name="Path 4" d="M136.255,113.574v-.593c0-3.245.01-6.49-.008-9.734a15.555,15.555,0,0,0-.164-2.26c-.343-2.258-1.784-3.021-3.843-2.7a3.754,3.754,0,0,0-3.3,3.909c-.054,2.935-.026,5.871-.032,8.807,0,.846,0,1.692,0,2.571h-5.312V93.885h4.873c.052.756.105,1.517.165,2.374.148-.181.233-.283.316-.387a6.914,6.914,0,0,1,6.226-2.5,8.489,8.489,0,0,1,2.041.374,6.039,6.039,0,0,1,4.136,4.861,11.508,11.508,0,0,1,.274,2.385c.027,4.064.014,8.128.013,12.191,0,.12-.017.24-.027.389Z" transform="translate(-45.805 -83.938)" fill="#fff"/>
  <path id="Path_5" data-name="Path 5" d="M108.666,87.58H114v5.531h5.292c-.125,1.549-.247,3.046-.373,4.591H114.04c-.012.194-.029.342-.029.489q0,3.895,0,7.789a6.16,6.16,0,0,0,.1,1.059,1.873,1.873,0,0,0,2.069,1.657c1.024-.028,2.045-.2,3.09-.308-.051.681-.106,1.46-.17,2.238-.05.6-.1,1.2-.179,1.8a.482.482,0,0,1-.268.338,12.417,12.417,0,0,1-6.1.172,4.679,4.679,0,0,1-3.726-4.419,22.129,22.129,0,0,1-.155-2.448q-.02-8.97-.008-17.942Z" transform="translate(-43.884 -83.195)" fill="#fff"/>
  <path id="Path_6" data-name="Path 6" d="M172.778,113.655v-19.7h4.968c.051.742.1,1.486.161,2.353,1.8-2.5,4.358-2.46,6.992-2.357-.124,1.52-.245,3.017-.371,4.573-.615,0-1.2-.005-1.782,0a4.356,4.356,0,0,0-4.558,3.769,6.531,6.531,0,0,0-.086,1.246q-.01,4.8.005,9.6c0,.417-.1.555-.538.545-1.438-.028-2.877-.01-4.316-.011C173.1,113.676,172.951,113.663,172.778,113.655Z" transform="translate(-52.133 -84.011)" fill="#fff"/>
  <path id="Path_7" data-name="Path 7" d="M104.528,98.486a19.6,19.6,0,0,0-2.392.146,4.3,4.3,0,0,0-3.479,3.838,12.591,12.591,0,0,0-.067,1.295q-.009,4.657,0,9.315v.571H93.228V93.963H98.25c.05.762.1,1.5.154,2.36a5.36,5.36,0,0,1,2.907-2.1,12.075,12.075,0,0,1,3.625-.284C104.8,95.481,104.663,96.979,104.528,98.486Z" transform="translate(-41.898 -84.012)" fill="#fff"/>
  <path id="Path_8" data-name="Path 8" d="M186.681,113.544a2.693,2.693,0,1,1-5.386-.04,2.65,2.65,0,0,1,2.719-2.629A2.62,2.62,0,0,1,186.681,113.544Zm-2.672,2.184a2.188,2.188,0,1,0-2.17-2.167A2.144,2.144,0,0,0,184.008,115.727Z" transform="translate(-53.229 -86.192)" fill="#fff"/>
  <path id="Path_9" data-name="Path 9" d="M184.712,113.965l.8,1.258a.441.441,0,0,1-.655-.227c-.134-.259-.32-.492-.45-.753a.51.51,0,0,0-.716-.28v1.278c-.257.05-.477.14-.477-.227,0-.907,0-1.815,0-2.827a12.349,12.349,0,0,1,1.752.118.82.82,0,0,1,.5.61,1.885,1.885,0,0,1-.368.876C185.046,113.886,184.858,113.9,184.712,113.965Zm-1-.447a3.622,3.622,0,0,0,.881-.019.58.58,0,0,0,.356-.427.591.591,0,0,0-.362-.427,3.534,3.534,0,0,0-.875-.02Z" transform="translate(-53.476 -86.361)" fill="#fff"/>
</svg>
