<svg id="ghoori-learning-logo" xmlns="http://www.w3.org/2000/svg" width="133.078" height="21.945" viewBox="0 0 133.078 21.945">
  <path id="Path_626" data-name="Path 626" d="M541.566,210.836a.911.911,0,0,1-.908.908h-6.32a.9.9,0,0,1-.908-.908V199.974a.9.9,0,0,1,.908-.908.911.911,0,0,1,.909.908v9.953h5.412a.911.911,0,0,1,.907.909" transform="translate(-466.523 -194.356)" fill="#fff"/>
  <path id="Path_627" data-name="Path 627" d="M586.912,223.123a.895.895,0,0,1-.908.89h-6.266a2.769,2.769,0,0,0,2.616,1.871,3.563,3.563,0,0,0,2.034-.6.869.869,0,0,1,1.2.417.946.946,0,0,1-.436,1.2,4.446,4.446,0,0,1-2.8.781,4.559,4.559,0,1,1,0-9.118,4.472,4.472,0,0,1,4.559,4.559m-7.174-.909h5.248a2.656,2.656,0,0,0-2.633-1.852,2.777,2.777,0,0,0-2.616,1.852" transform="translate(-502.789 -210.295)" fill="#fff"/>
  <path id="Path_628" data-name="Path 628" d="M642.858,223.356v3.56a.878.878,0,0,1-.908.908.958.958,0,0,1-.872-.908,3.96,3.96,0,0,1-2.687.908,4.46,4.46,0,0,1-4.6-4.468,4.566,4.566,0,0,1,4.6-4.6,4.46,4.46,0,0,1,4.468,4.6m-1.78,0a2.745,2.745,0,0,0-2.687-2.815,2.853,2.853,0,0,0-2.816,2.815,2.746,2.746,0,0,0,2.816,2.688,2.637,2.637,0,0,0,2.687-2.688" transform="translate(-548.566 -210.455)" fill="#fff"/>
  <path id="Path_629" data-name="Path 629" d="M694.86,219.554a.911.911,0,0,1-.908.908,2.759,2.759,0,0,0-2.761,2.761v3.651a.9.9,0,1,1-1.8,0v-3.651a4.562,4.562,0,0,1,4.559-4.559.9.9,0,0,1,.908.89" transform="translate(-594.015 -210.376)" fill="#fff"/>
  <path id="Path_630" data-name="Path 630" d="M728.155,223.126v3.651a.9.9,0,1,1-1.8,0v-3.651a2.761,2.761,0,0,0-5.521,0v3.651a.9.9,0,1,1-1.8,0v-3.651a4.559,4.559,0,1,1,9.118,0" transform="translate(-618.248 -210.297)" fill="#fff"/>
  <path id="Path_631" data-name="Path 631" d="M774.9,200.449a.9.9,0,1,1,1.271,0,.9.9,0,0,1-1.271,0m-.274,10.28v-7.32a.9.9,0,0,1,1.8,0v7.32a.9.9,0,0,1-1.8,0" transform="translate(-663.693 -194.231)" fill="#fff"/>
  <path id="Path_632" data-name="Path 632" d="M799.269,223.124v3.651a.9.9,0,1,1-1.8,0v-3.651a2.761,2.761,0,1,0-5.522,0v3.651a.9.9,0,1,1-1.8,0v-3.651a4.559,4.559,0,1,1,9.118,0" transform="translate(-676.379 -210.295)" fill="#fff"/>
  <path id="Path_633" data-name="Path 633" d="M855.069,227.681a4.564,4.564,0,0,1-8.664,2,.889.889,0,0,1,.418-1.2.9.9,0,0,1,1.2.4,2.762,2.762,0,0,0,5.249-1.144v-1a4.55,4.55,0,1,1,1.8-3.615Zm-1.8-4.559a2.761,2.761,0,1,0-2.761,2.761,2.761,2.761,0,0,0,2.761-2.761" transform="translate(-721.993 -210.294)" fill="#fff"/>
  <path id="Path_634" data-name="Path 634" d="M253.475,204.7c-.022.751-.044,1.472-.066,2.2a1.214,1.214,0,0,0-.858.593c-.143.252-.126.348.086.544a2.389,2.389,0,0,1,.842,1.807,2.9,2.9,0,0,1-.557,1.874,2.866,2.866,0,0,1-1.584,1c-.473.122-.964.175-1.448.257-.085.015-.173.018-.259.031-.133.021-.24.082-.237.232s.1.2.229.226c.42.091.842.176,1.26.28a14.18,14.18,0,0,1,1.372.378,1.888,1.888,0,0,1,1.278,1.75,2.83,2.83,0,0,1-.208,1.563,3.091,3.091,0,0,1-1.342,1.328,4.523,4.523,0,0,1-2.543.482,7.627,7.627,0,0,1-2.144-.361,2.687,2.687,0,0,1-1.215-.772,1.525,1.525,0,0,1-.366-.941,4.154,4.154,0,0,1,.752-2.56c.154-.227.153-.282-.018-.5a1.542,1.542,0,0,1-.139-1.782c.118-.228.112-.279-.061-.46a2.534,2.534,0,0,1-.623-2.7,2.438,2.438,0,0,1,1.323-1.384,6.031,6.031,0,0,1,2.312-.618c.219-.018.44-.026.66-.033a.329.329,0,0,0,.323-.227,3.46,3.46,0,0,1,2.56-2.124,6.528,6.528,0,0,1,.67-.073m-4.055,4.566c-.3.043-.635.071-.957.143a.574.574,0,0,0-.489.523.6.6,0,0,0,.317.6,2.509,2.509,0,0,0,2.081.231.943.943,0,0,0,.686-.754.442.442,0,0,0-.253-.52.843.843,0,0,0-.26-.088c-.364-.051-.729-.091-1.127-.139m.235,7.812.005-.045c.179,0,.359.009.537,0a1.2,1.2,0,0,0,.706-.219.6.6,0,0,0,.23-.583c-.029-.23-.2-.3-.394-.343-.6-.118-1.2-.239-1.8-.356a.294.294,0,0,0-.3.114,2.115,2.115,0,0,0-.464.9c-.049.214.009.33.226.365.417.066.838.112,1.257.167m5.383-1.968h2.4c0-.276.006-.543,0-.809q-.058-2.214-.124-4.428a.3.3,0,0,1,.215-.345c.365-.115.727-.24,1.1-.329a1.094,1.094,0,0,1,.753.045.843.843,0,0,1,.453.771c.025.571.018,1.147-.013,1.718-.046.834-.128,1.666-.189,2.5-.021.29-.027.581-.041.88h2.4c0-.044.009-.084.012-.123.022-.364.046-.727.065-1.09.048-.947.117-1.893.132-2.841a5.9,5.9,0,0,0-.358-2.2,2.622,2.622,0,0,0-2.1-1.81,5.616,5.616,0,0,0-2.092.088c-.418.087-.482.041-.514-.383q-.079-1.035-.164-2.069c-.02-.237-.044-.476-.066-.715l-2.411.126c.234,3.679.481,7.344.544,11.016m8.012-3.621a8.789,8.789,0,0,1,.325-2.047,2.824,2.824,0,0,1,2.154-2.014,4.551,4.551,0,0,1,2.8.1,3.716,3.716,0,0,1,2.41,2.594,4.592,4.592,0,0,1-.242,2.819,4.049,4.049,0,0,1-1.427,1.862,3.835,3.835,0,0,1-2.507.646,3.776,3.776,0,0,1-1.9-.566,3.258,3.258,0,0,1-1.519-2.326c-.055-.353-.059-.713-.087-1.071m2.358-.217.034,0c.011.22.017.441.034.66a1.58,1.58,0,0,0,.444,1.1,1.446,1.446,0,0,0,2.179-.4,3.251,3.251,0,0,0,.281-2.063,1.229,1.229,0,0,0-.868-1.006,4.074,4.074,0,0,0-1-.186.837.837,0,0,0-.972.751c-.075.374-.088.76-.128,1.14m6.272.332a7.993,7.993,0,0,1,.313-2.18,2.824,2.824,0,0,1,2.152-2,4.619,4.619,0,0,1,2.711.074,3.915,3.915,0,0,1,2.389,2.259,3.782,3.782,0,0,1,.194,1.681,4.594,4.594,0,0,1-.74,2.3,3.707,3.707,0,0,1-3.53,1.717,3.773,3.773,0,0,1-1.969-.608,3.308,3.308,0,0,1-1.484-2.517c-.028-.28-.029-.563-.036-.725m2.339-.332.035,0c.012.225.017.451.037.675a1.646,1.646,0,0,0,.309.933,1.429,1.429,0,0,0,2.323-.263,3.408,3.408,0,0,0,.3-1.886,1.3,1.3,0,0,0-.665-1.062,2.545,2.545,0,0,0-1.254-.3.844.844,0,0,0-.949.728c-.079.383-.093.779-.137,1.169m13.663-4.028a13.959,13.959,0,0,0-4.235.814c-.329.114-.44.039-.462-.312-.011-.177-.021-.354-.032-.544l-2.4.27a64.255,64.255,0,0,1,.093,7.635h2.4V213.7c0-.964,0-1.928,0-2.892a.367.367,0,0,1,.256-.4c.106-.036.2-.091.309-.135a11.59,11.59,0,0,1,3.678-.9l.544-.036v-2.085c-.06,0-.106,0-.152,0m4.129-.2h-2.373c-.136,2.708-.026,5.406-.073,8.094h2.445Zm-.1-1.311c.056-.6.111-1.18.166-1.773l-2.5-.186v1.959Z" transform="translate(-231.132 -198.201)" fill="#fff"/>
  <path id="Path_635" data-name="Path 635" d="M171.972,173.266c.214.036.429.068.642.107a12.319,12.319,0,0,1,2.97,1.008,24.212,24.212,0,0,1,3.32,1.889.213.213,0,0,1,.116.207,40.246,40.246,0,0,1-.47,5.619,16.716,16.716,0,0,1-1.282,4.454,6.771,6.771,0,0,1-1.781,2.417,4.258,4.258,0,0,1-1.727.869c-.034.009-.07.013-.119.022.012-.022.014-.035.022-.04a7.536,7.536,0,0,0,2.386-2.667,11.666,11.666,0,0,0,1.028-2.424,1.164,1.164,0,0,0,.04-.317,11.447,11.447,0,0,0-.842-4.606,5.127,5.127,0,0,0-.965-1.524c-.1-.112-.18-.249-.276-.368a.146.146,0,0,0-.118-.052,5.711,5.711,0,0,0-2.214,1.12,4.846,4.846,0,0,0-.419.488l-.122.142-.049-.024a2.5,2.5,0,0,1,.1-.306,3.346,3.346,0,0,1,1-1.19A6.444,6.444,0,0,1,176,176.87c.461-.093.93-.146,1.431-.222a.982.982,0,0,1-.111-.07,8.05,8.05,0,0,0-4.039-1.88c-.368-.055-.745-.049-1.119-.067-.071,0-.133.005-.16.1a13.927,13.927,0,0,0-.548,3.666c0,.169.022.337.035.506a1.416,1.416,0,0,0,.407.826,10.746,10.746,0,0,0,1.842,1.6c.571.407,1.163.783,1.751,1.166a1.681,1.681,0,0,1,.6.6.421.421,0,0,1,.058.157.24.24,0,0,1-.037.166c-.023.024-.108.014-.152-.008-.257-.126-.513-.254-.764-.393a26.45,26.45,0,0,1-3.631-2.326,9.847,9.847,0,0,1-.834-.772,1.53,1.53,0,0,1-.388-1.057,8.83,8.83,0,0,1,.268-2.514c.245-1.034.537-2.057.808-3.085Zm3.622,4.4a8.883,8.883,0,0,1,1.956,3.909c.1-1.319.127-2.638.114-3.965-.353-.022-.69-.067-1.024-.059s-.67.071-1.046.114m-2.106,12.257a2.059,2.059,0,0,0-.21,0,4.95,4.95,0,0,1-1.378-.025,8.589,8.589,0,0,1-3.551-1.517,1.976,1.976,0,0,0-.579-.267.65.65,0,0,0-.843.322v.246a1.412,1.412,0,0,0,.586.705,6.876,6.876,0,0,0,3.2,1.187,4.512,4.512,0,0,0,2.771-.657Zm0,0,.025-.023s-.012,0-.013,0a.216.216,0,0,0-.008.027Z" transform="translate(-166.926 -173.266)" fill="#fff"/>
</svg>
