<svg xmlns="http://www.w3.org/2000/svg" width="126.438" height="41.241" viewBox="0 0 126.438 41.241">
  <g id="google" transform="translate(-14551.269 1898.961)">
    <path id="path3053" d="M1.489,19.073a16.211,16.211,0,0,1,16.247-16A15.276,15.276,0,0,1,28.709,7.49L25.6,10.568a11.03,11.03,0,0,0-7.864-3.14A11.462,11.462,0,0,0,6.275,19.042,11.462,11.462,0,0,0,17.736,30.656a10.7,10.7,0,0,0,8.078-3.2,9.078,9.078,0,0,0,2.377-5.486H17.736V17.61H32.458a14.562,14.562,0,0,1,.244,2.743c0,3.292-.884,7.346-3.78,10.211a14.73,14.73,0,0,1-11.187,4.481A16.2,16.2,0,0,1,1.489,19.073Z" transform="translate(14549.78 -1902.031)" fill="#fff"/>
    <path id="path3055" d="M86.845,29.2A10.3,10.3,0,1,0,97.178,39.5,10.145,10.145,0,0,0,86.845,29.2Zm0,16.521a5.966,5.966,0,0,1-5.822-6.249,5.837,5.837,0,1,1,11.644,0A5.966,5.966,0,0,1,86.845,45.716Z" transform="translate(14507.496 -1916.756)" fill="#fff"/>
    <path id="path3057" d="M138.536,29.2a10.3,10.3,0,1,0,10.333,10.3A10.145,10.145,0,0,0,138.536,29.2Zm0,16.521a5.966,5.966,0,0,1-5.822-6.249,5.837,5.837,0,1,1,11.644,0A5.966,5.966,0,0,1,138.536,45.716Z" transform="translate(14478.36 -1916.756)" fill="#fff"/>
    <path id="path3059" d="M195.348,29.765v1.677H195.2a7.085,7.085,0,0,0-5.426-2.317,10.312,10.312,0,0,0,0,20.606,7,7,0,0,0,5.426-2.347h.152v1.494c0,3.932-2.1,6.035-5.487,6.035a5.678,5.678,0,0,1-5.182-3.658L180.748,52.9a9.818,9.818,0,0,0,9.144,6.1c5.3,0,9.785-3.109,9.785-10.729v-18.5Zm-5.182,15.911a5.924,5.924,0,0,1-5.731-6.218,5.96,5.96,0,0,1,5.731-6.279c3.079,0,5.486,2.652,5.486,6.279C195.683,43.086,193.245,45.676,190.166,45.676Z" transform="translate(14449.225 -1916.717)" fill="#fff"/>
    <path id="polygon3061" d="M236.865,35.853h-4.511V5.585h4.511Z" transform="translate(14419.657 -1903.449)" fill="#fff"/>
    <path id="path3063" d="M257.933,45.716a5.274,5.274,0,0,1-5-3.109l13.777-5.7-.457-1.159c-.854-2.317-3.475-6.553-8.809-6.553-5.3,0-9.724,4.176-9.724,10.3a10.081,10.081,0,0,0,10.211,10.3,10.314,10.314,0,0,0,8.6-4.572l-3.505-2.347a5.927,5.927,0,0,1-5.09,2.835ZM257.6,33.158a3.916,3.916,0,0,1,3.81,2.194l-9.206,3.81A5.653,5.653,0,0,1,257.6,33.158Z" transform="translate(14410.995 -1916.756)" fill="#fff"/>
  </g>
</svg>
