<svg xmlns="http://www.w3.org/2000/svg" width="242.565" height="30.192" viewBox="0 0 242.565 30.192">
  <g id="hindustan-times" transform="translate(0.5 0.5)">
    <path id="Intersection_1" data-name="Intersection 1" d="M0,14.6A14.815,14.815,0,0,1,1.107,8.954c0,.027,0,.053,0,.08a1.792,1.792,0,0,0,.3.984h.212a.823.823,0,0,1,.171-.642c.216-.258.428-.3,1.024-.3H3.966L5.5,8.221l.043.042c-1.878,2.524-1.921,2.694-1.921,4.45v.212l0,.044H2.174L.98,14.638l.042.171H3.712V17.76c0,1.156-.129,1.754-1.751,3.766l.085.171H6.229l1.792-1.2V14.765h2.394v5.092l1.878,1.8h.173l2.22-1.454v-.171l-1.451-1.069V9.632l.34-2.524L13.4,7.021,10.371,8.69v4.235H7.98V7.065h-.64v12.71H6.017l-2.135.642-.043-.085c2.392-2.311,2.435-2.651,2.435-3.766V7.24L6.1,7.153l-1.152.128L3.286,7.153a2.108,2.108,0,0,0-1.507.386,14.147,14.147,0,0,1,24.468-.951c-.45.588-.824.732-1.882.732-1.665,0-3.627-.385-4.823-.385a4.422,4.422,0,0,0-3.284,1.027,2.612,2.612,0,0,0-.77,1.925,3.844,3.844,0,0,0,.256,1.283h.341a1.931,1.931,0,0,1,.513-1.155c.47-.471,1.11-.772,2.731-.772a18.758,18.758,0,0,1,2.477.258v.042l-2.221,1.2V18.1l-.511.642H19.03a1.878,1.878,0,0,1-.47-.386,4.751,4.751,0,0,1-1.281-3.422h-.005a5.784,5.784,0,0,1,1.452-3.764L18.6,11a5.974,5.974,0,0,0-2.177,1.413A5.045,5.045,0,0,0,14.971,16c-.005.162,0,.324.007.487a5.49,5.49,0,0,0,5.8,5.161,5.987,5.987,0,0,0,4.31-1.626,4.482,4.482,0,0,0,1.324-3.04l-.212-.042A4.33,4.33,0,0,1,23.85,19V9.628h.128c1.187,0,2.08-.587,2.51-2.651a14.759,14.759,0,0,1,2.1,7.618,14.448,14.448,0,0,1-14.294,14.6A14.448,14.448,0,0,1,0,14.6Zm19.543,4.446V19l2.349-1.284-.042,0V10.361l.81-.77.64.042v9.626a5.072,5.072,0,0,1-1.622.212l-.16,0A4.753,4.753,0,0,1,19.543,19.042Z" transform="translate(0 0)" fill="#fff" stroke="rgba(0,0,0,0)" stroke-miterlimit="10" stroke-width="1"/>
    <path id="Path_2293" data-name="Path 2293" d="M-281.339,262.2l-.466.355a4.059,4.059,0,0,0-2.435-.71,6.389,6.389,0,0,0-2.819.659v-.027a5.916,5.916,0,0,1,3.313-.958,3.84,3.84,0,0,1,2.41.685m188.827-.411a1.009,1.009,0,0,1,.219-.493,2.846,2.846,0,0,1,.957-.137,5.244,5.244,0,0,1,3.724,1.315l-.438.274a5.144,5.144,0,0,0-3.451-1.15,2.671,2.671,0,0,0-1.014.192m-118.921,0a1.009,1.009,0,0,1,.219-.493,2.839,2.839,0,0,1,.958-.137,4.983,4.983,0,0,1,3.505,1.315l-.438.274a4.984,4.984,0,0,0-3.229-1.15,2.778,2.778,0,0,0-1.014.192m-45.729-1.807a13.559,13.559,0,0,0,2.684,2.273l-.548.355a13.3,13.3,0,0,1-2.629-2.273Zm130.556,0a13.557,13.557,0,0,0,2.683,2.273l-.548.355a13.313,13.313,0,0,1-2.629-2.273Zm-47.508,0a13.56,13.56,0,0,0,2.683,2.273l-.548.355a13.3,13.3,0,0,1-2.629-2.273Zm39.348-.164a11.472,11.472,0,0,0,2.93,2.438l-.546.355a12.536,12.536,0,0,1-2.875-2.435Zm-130.586,0a11.963,11.963,0,0,0,2.93,2.438l-.548.355a12.535,12.535,0,0,1-2.875-2.435Zm67.689-.355a19.357,19.357,0,0,0,3.834,2.9l-.548.383a18.814,18.814,0,0,1-3.779-2.931Zm11.17,3.149a8.994,8.994,0,0,1-2.574-2.3v-2.687a20.356,20.356,0,0,0-.11-2.41l.575-.219c.026.659.082,1.506.082,2.356v2.763a8.292,8.292,0,0,0,2.574,2.109ZM-85.123,260.4v-4.738l-1.616-.71.328-.355,1.835.794v5.44l-.082.026Zm-119.14,0v-4.738l-1.616-.71.328-.355,1.835.794v5.44l-.082.026Zm19.195-4.492a9.288,9.288,0,0,1,.192-2.356,13.73,13.73,0,0,0,2.435.438v5.745c-.438.192-.9.355-1.287.548a6.188,6.188,0,0,1-1.314-1.014v-3.368Zm-93.179-5.069h3.943v.465h-3.943Zm-10.46.6.493-.6h3.038v.465h-1.315a13.053,13.053,0,0,0-2.218.137m50.493,10.818-.548.355a9.8,9.8,0,0,1-2.792-2.547v-7.835c0-1.862-.026-2.657-.082-3.314l.6-.246v11.2a8.957,8.957,0,0,0,2.819,2.382m49.452-11.53c.958-.659,1.862-1.369,2.766-2.109a9.689,9.689,0,0,0,3.56,1.506v3.259a9.588,9.588,0,0,1-6.325-2.657m88.529-2.112.082-.026a27.176,27.176,0,0,0,2.656,4.437l-2.737,1.479ZM-88,255.876l-.355.383-3.614-1.7v-4.08a17.081,17.081,0,0,0-.11-1.889l.659-.192v5.888Zm-119.14,0-.355.383-3.614-1.7v-4.08a17.06,17.06,0,0,0-.11-1.889l.659-.192v5.888Zm68.373,4.056a9.589,9.589,0,0,1-7.094,2.985,10.26,10.26,0,0,1-7.421-2.793,8.776,8.776,0,0,1-2.574-6.353,7.439,7.439,0,0,1,2.41-5.453l.026.026a7.613,7.613,0,0,0-1.888,5.176,8.691,8.691,0,0,0,2.578,6.243,9.592,9.592,0,0,0,7.065,2.629,9.958,9.958,0,0,0,6.9-2.465Zm-58.952-11.422h-.958l.274-.493h.684Zm7.53-.465-.438.575a15.267,15.267,0,0,0-2.573-.11v-.493h2.957ZM-99.877,262.7a34.778,34.778,0,0,1-4.409-4.546v-6.93c0-1.369-.082-2.574-.137-3.042l.575-.137a22.49,22.49,0,0,1,.11,2.684v7.2a35.223,35.223,0,0,0,4.381,4.437Zm-79.491-.438-.548.355a10.9,10.9,0,0,1-2.191-2.465V249.88a10.027,10.027,0,0,1-3.67-1.535l.383-.383a10.781,10.781,0,0,0,3.806,1.588v10.38a13.434,13.434,0,0,0,2.218,2.329m-67.278,0-.548.355a12.858,12.858,0,0,1-2.3-2.082V249.276a4.821,4.821,0,0,0-1.314-1.287l.493-.219a5.341,5.341,0,0,1,1.368,1.369v11.2a12.333,12.333,0,0,0,2.3,1.917m83.023,0-.548.355a12.868,12.868,0,0,1-2.3-2.082V249.276a4.832,4.832,0,0,0-1.314-1.287l.493-.219a5.341,5.341,0,0,1,1.368,1.369v11.2a13.3,13.3,0,0,0,2.3,1.917m47.536,0-.548.355a12.866,12.866,0,0,1-2.3-2.082V249.276a4.827,4.827,0,0,0-1.314-1.287l.493-.219a5.341,5.341,0,0,1,1.368,1.369v11.2a13.275,13.275,0,0,0,2.3,1.917m7.394,0-.548.355a12.847,12.847,0,0,1-2.3-2.082V249.276a4.735,4.735,0,0,0-1.37-1.317l.493-.219a6.079,6.079,0,0,1,1.4,1.4v11.2a14.733,14.733,0,0,0,2.329,1.917m-65.138-2.794v-10.27a5.622,5.622,0,0,0-1.15-1.26l.465-.246a6.887,6.887,0,0,1,1.232,1.287v10.081l-.492.383h-.053Zm39.348-.192V249.2a6.432,6.432,0,0,0-1.15-1.259l.465-.246a6.935,6.935,0,0,1,1.232,1.287v9.914l-.493.383Zm-90.964.6a7.919,7.919,0,0,0,2.793,2.356l-.548.355A8.527,8.527,0,0,1-226,260.038V248.784a5.146,5.146,0,0,0-1.232-.847l.465-.246a6.853,6.853,0,0,1,1.285.957v11.229Zm99.154-.411v-10.27a5.632,5.632,0,0,0-1.15-1.259l.465-.246a6.9,6.9,0,0,1,1.232,1.286v10.078l-.493.383h-.053Zm-138.746-.192V249.2a6.431,6.431,0,0,0-1.15-1.259l.465-.246a6.923,6.923,0,0,1,1.232,1.287v9.914l-.493.383h-.053Zm8.16.192v-10.27a5.632,5.632,0,0,0-1.15-1.259l.465-.246a6.894,6.894,0,0,1,1.232,1.287v10.081l-.493.383h-.053Zm38.281-11.092a4.489,4.489,0,0,0-.794-.548l.465-.247a4.119,4.119,0,0,1,.847.659V259.93a9.224,9.224,0,0,0,2.191,2.329l-.548.355a8.2,8.2,0,0,1-2.191-2.547V248.374Zm-18.784,2.82a12.8,12.8,0,0,1,.355-4.056c.684.383,1.479.847,2.435,1.424v11.092c-.492.192-1.014.383-1.479.6a6.081,6.081,0,0,1-1.314-1.068ZM-82.62,249.11-83,249.6a2.046,2.046,0,0,1-.709.11,5.787,5.787,0,0,1-4.436-2.082v-.548h.082a5.922,5.922,0,0,0,4.518,2.164,2.839,2.839,0,0,0,.931-.192Zm-119.111,0-.383.493a2.046,2.046,0,0,1-.709.11,5.785,5.785,0,0,1-4.436-2.082v-.548h.082a5.922,5.922,0,0,0,4.518,2.164,2.839,2.839,0,0,0,.931-.192Zm104.516,3.78a33.33,33.33,0,0,1-3.012-5.12v-.847l.082-.027a31.437,31.437,0,0,0,3.4,5.779Zm-23.2,7.616-.219-.355c-.274.11-.548.219-.794.329a3.333,3.333,0,0,1-.709-.493V248.865c.465-.246,1.014-.493,1.535-.71a4.758,4.758,0,0,1,1.314,1.26v11.34a12.215,12.215,0,0,0,2.629,2.356h.082a38.853,38.853,0,0,1,3.917-2.629l-.219-.355-.767.329a4.521,4.521,0,0,1-1.124-.9V248.87c.465-.246,1.014-.493,1.535-.71a4.757,4.757,0,0,1,1.314,1.26v11.339a12.208,12.208,0,0,0,2.629,2.355h.082a50.722,50.722,0,0,1,4.19-2.876l-.219-.355a11.484,11.484,0,0,1-1.068.465,3.205,3.205,0,0,1-1.068-.794V248.319a7.129,7.129,0,0,0-2.82-2.876h-.082a17.126,17.126,0,0,0-4.55,2.769,6.72,6.72,0,0,0-2.766-2.767h-.082a16.312,16.312,0,0,0-4.491,2.74,10.27,10.27,0,0,0-2.519-2.74h-.082a23.569,23.569,0,0,0-4.518,3.092l.274.329c.355-.246.794-.493,1.177-.71a9.187,9.187,0,0,1,1.123,1.177v10.323c-.328.246-.6.465-.9.685v.082a15.579,15.579,0,0,0,3.092,2.684h.082a36.022,36.022,0,0,1,4.023-2.6m-138.116-.3-.219-.355c-.465.192-.847.355-1.232.548a4.826,4.826,0,0,1-.931-.659V248.183a9.6,9.6,0,0,0-2.519-2.767h-.082a23.569,23.569,0,0,0-4.518,3.092l.274.329a13.394,13.394,0,0,1,1.177-.71,9.2,9.2,0,0,1,1.123,1.178v10.106a10.35,10.35,0,0,1-.9.71v.082a13.621,13.621,0,0,0,3.34,2.876h.082c1.506-1.068,2.656-1.835,4.409-2.876m90.937.11-.219-.355c-.438.192-.794.329-1.177.492a3.534,3.534,0,0,1-.685-.493V248.84c.465-.247,1.014-.493,1.535-.709a4.757,4.757,0,0,1,1.314,1.26v11.339a12.211,12.211,0,0,0,2.629,2.355h.082a41.216,41.216,0,0,1,4.19-2.876l-.219-.355a11.489,11.489,0,0,1-1.068.465,3.212,3.212,0,0,1-1.068-.794V248.29a7.129,7.129,0,0,0-2.82-2.876h-.083a16.311,16.311,0,0,0-4.491,2.74,10.27,10.27,0,0,0-2.519-2.74h-.084a23.559,23.559,0,0,0-4.518,3.095l.274.329a13.512,13.512,0,0,1,1.177-.709,9.188,9.188,0,0,1,1.123,1.177v10.323a9.674,9.674,0,0,1-.9.685v.082a15.6,15.6,0,0,0,3.094,2.684h.082a39.512,39.512,0,0,1,4.354-2.767M-221.837,247.8a11.039,11.039,0,0,0-2.629-2.356h-.082c-1.588.958-2.574,1.724-4.19,2.876l.219.355c.328-.192.659-.355.957-.548a5.638,5.638,0,0,1,1.177.847V260.23a9.678,9.678,0,0,0,3.123,2.82h.082c1.314-.958,2.766-1.944,4.162-2.793a11.607,11.607,0,0,0,2.546,2.793h.082c1.424-1.041,3.012-2.191,4.354-3.041l-.219-.355c-.438.192-.822.383-1.232.575a5.712,5.712,0,0,1-.957-.847V248.866c.328-.247.575-.465.9-.685V248.1a23.411,23.411,0,0,0-3.092-2.684h-.082c-1.641.958-2.766,1.7-4.354,2.793l.219.355,1.068-.575a4.581,4.581,0,0,1,.794.548v11.092c-.548.219-1.04.438-1.535.659a6.084,6.084,0,0,1-1.314-1.068Zm93.893,12.407-.219-.355c-.465.192-.847.355-1.232.548a4.832,4.832,0,0,1-.931-.659v-11.56a9.6,9.6,0,0,0-2.519-2.767h-.081a23.567,23.567,0,0,0-4.518,3.092l.274.329a13.43,13.43,0,0,1,1.177-.71,9.189,9.189,0,0,1,1.123,1.178v10.106a10.334,10.334,0,0,1-.9.71v.082a13.622,13.622,0,0,0,3.34,2.876h.082a49.2,49.2,0,0,1,4.409-2.876m-122.7.11-.219-.355c-.438.192-.794.329-1.177.493a3.55,3.55,0,0,1-.684-.493V248.839c.465-.247,1.014-.493,1.535-.709a4.76,4.76,0,0,1,1.314,1.26v11.339a12.2,12.2,0,0,0,2.629,2.355h.082a41.2,41.2,0,0,1,4.19-2.876l-.219-.355a11.5,11.5,0,0,1-1.068.465,3.213,3.213,0,0,1-1.068-.794V248.29a7.132,7.132,0,0,0-2.819-2.876h-.082a16.312,16.312,0,0,0-4.491,2.74,10.287,10.287,0,0,0-2.519-2.74h-.082a23.544,23.544,0,0,0-4.518,3.095l.274.329a13.4,13.4,0,0,1,1.177-.709,9.19,9.19,0,0,1,1.123,1.177v10.323a9.681,9.681,0,0,1-.9.685v.082a15.6,15.6,0,0,0,3.094,2.684h.082a42.24,42.24,0,0,1,4.354-2.767m150.41-4.056v-.847l6.845-3.671v-.11a60.338,60.338,0,0,1-3.97-6.247h-.082a51.216,51.216,0,0,1-7.421,2.519,23.86,23.86,0,0,1,.219,3.615v6.793a33.07,33.07,0,0,0,4.628,4.764h.137a74.8,74.8,0,0,1,6.463-3.834l-.328-.493c-1.04.493-1.888.931-2.74,1.314a27.353,27.353,0,0,1-3.751-3.807m-79.713,6.825h.082c1.424-1.041,3.012-2.191,4.354-3.041l-.219-.355c-.438.192-.822.383-1.232.575a5.712,5.712,0,0,1-.957-.847v-8.544a11.64,11.64,0,0,1,.219-3.042,21.741,21.741,0,0,1-5.915-2.435h-.084a26.643,26.643,0,0,1-6,5.208v.11a8.422,8.422,0,0,0,4.244,2.684,35.862,35.862,0,0,1-4.162,1.7,18.576,18.576,0,0,1,.192,2.737v2.73a8.859,8.859,0,0,0,2.9,2.574h.082c1.287-.931,2.683-1.862,4.055-2.74a11.318,11.318,0,0,0,2.435,2.684m91.921.082a22.876,22.876,0,0,1,6.9-3.2,8.258,8.258,0,0,1-.192-1.972v-4.433l-4.244-1.862h-.112l-1.232,1.369-1.287-.575v-4.3a5.954,5.954,0,0,0,4.354,1.862,5.055,5.055,0,0,0,.931-.11,7.232,7.232,0,0,0,1.971-4.492,1.828,1.828,0,0,0-.548,0,3.914,3.914,0,0,1-.11.931,2.726,2.726,0,0,1-1.04.219,4.261,4.261,0,0,1-2.93-1.26h-.082a22.121,22.121,0,0,1-6.9,3.013,12.1,12.1,0,0,1,.192,2.41v4.056l3.97,1.808h.11l1.259-1.4,1.506.659v4.272a7.454,7.454,0,0,0-4.874-1.7,5.042,5.042,0,0,0-.931.11,7.3,7.3,0,0,0-1.971,4.519,1.824,1.824,0,0,0,.548,0,3.886,3.886,0,0,1,.11-.931,2.715,2.715,0,0,1,1.041-.219,4.942,4.942,0,0,1,3.478,1.26h.082Zm-119.14,0a22.875,22.875,0,0,1,6.9-3.2,8.256,8.256,0,0,1-.192-1.972v-4.433l-4.244-1.862h-.11l-1.232,1.369-1.287-.575v-4.3a5.954,5.954,0,0,0,4.354,1.862,5.056,5.056,0,0,0,.931-.11,7.232,7.232,0,0,0,1.971-4.492,1.828,1.828,0,0,0-.548,0,3.914,3.914,0,0,1-.11.931,2.726,2.726,0,0,1-1.04.219,4.261,4.261,0,0,1-2.93-1.26h-.056a22.121,22.121,0,0,1-6.9,3.013,12.1,12.1,0,0,1,.192,2.41v4.056l3.97,1.808h.11l1.259-1.4,1.506.659v4.272a7.131,7.131,0,0,0-4.655-1.7,5.043,5.043,0,0,0-.931.11,7.3,7.3,0,0,0-1.972,4.519,1.824,1.824,0,0,0,.548,0,3.885,3.885,0,0,1,.11-.931,2.73,2.73,0,0,1,1.041-.219,4.779,4.779,0,0,1,3.258,1.26h.053Zm59.2-4.6-.026-.027a5.993,5.993,0,0,0,.246-2.41v-7.941a14.494,14.494,0,0,0-.246-2.684l.575-.246a16.162,16.162,0,0,1,.219,2.684v7.779c-.026,1.862-.164,2.246-.767,2.849m-83.537,3.7-.548.355a10.53,10.53,0,0,1-2.191-2.547V248.374c-5.641-3.2-6.271-3.56-6.818-3.807l-.137-.794h.026l7.447,4.382v11.666a10.979,10.979,0,0,0,2.218,2.435m87.705-16.4c0-1.287.026-1.724.575-2.273.247.026.767.11,1.068.137v15.474a8.827,8.827,0,0,1-2.409.329,9.776,9.776,0,0,1-3.4-.576c1.535-.6,3.123-1.287,4.354-1.889a19.543,19.543,0,0,1-.192-2.684Zm-53.559,1.452c0-1.506-.082-2.737-.137-3.4l.659-.465h.026v15.148l-.492.383h-.055Zm-85.27-4.489c-1.479,2.082-1.723,2.547-1.723,5.094v6.9c0,3.149-.137,4.41-2.3,6.929l-.026-.026c1.753-2.3,1.807-3.561,1.807-6.737v-6.93c0-2.547.274-3.013,2.218-5.231Zm11.719,19.446-.548.355a11.091,11.091,0,0,1-2.519-2.273v-14.6a15.1,15.1,0,0,0-.246-3.123l.659-.465a26.471,26.471,0,0,1,.137,3.341v14.631a10.355,10.355,0,0,0,2.519,2.136m-11.476-20.816.027.026a3.555,3.555,0,0,1-2.054.794c-.794,0-1.479-.383-2.191-.383a2.4,2.4,0,0,0-1.723.659,2,2,0,0,0-.438.575h-.027a2.061,2.061,0,0,1,.548-1.014,2.534,2.534,0,0,1,1.806-.659c.767,0,1.535.383,2.355.383a4,4,0,0,0,1.7-.383m16.7-.328a24.159,24.159,0,0,0,2.163,2.41l-.438.274a18.7,18.7,0,0,1-2.108-2.41Zm130.969-.026a28.758,28.758,0,0,0,2.191,2.435l-.438.274a21.555,21.555,0,0,1-2.163-2.435Zm-20.347,4.547a4.091,4.091,0,0,1,1.04-2.054,6.125,6.125,0,0,1,4.518-1.506c3.123,0,6.845.958,9.282.958a3.425,3.425,0,0,0,3.149-2.054l.082.027c-.9,1.835-1.971,2.465-3.368,2.465-2.435,0-6.106-.958-9.282-.958a5.817,5.817,0,0,0-4.354,1.479,4.3,4.3,0,0,0-1.041,1.616h-.026Zm-37.841-5.04-.137-.082c-2.053,1.287-3.67,2.41-4.846,3.314a16.336,16.336,0,0,1,.137,2.109,21.985,21.985,0,0,1-1.479,2.793l.082.11h1.4v10.3c-.328.246-.576.438-.9.659v.082a19.2,19.2,0,0,0,4.19,3.341h.082a31.867,31.867,0,0,1,4.381-2.765l-.219-.355a10.054,10.054,0,0,0-.958.438,16.07,16.07,0,0,1-2.053-1.287V248.866h.192a23.524,23.524,0,0,1,2.546.11,14.121,14.121,0,0,0,2.109-3.314l-.082-.082a23.135,23.135,0,0,1-3.229.192h-1.535a42.2,42.2,0,0,1,.328-5.177M-232.08,263.08H-232c1.424-1.041,3.012-2.108,4.354-2.985l-.219-.355c-.438.192-.822.384-1.232.575a5.979,5.979,0,0,1-.958-.9v-8.821c0-1.889.082-2.82.137-3.56-8.3-5.12-10.624-6.71-11.884-8.134l-.137.027a26.661,26.661,0,0,0,.6,5.888,30.27,30.27,0,0,1,3.614,1.944c-1.368.685-2.9,1.369-4.354,1.972a30.308,30.308,0,0,1,.137,3.615v7.888a9.678,9.678,0,0,0,3.123,2.82h.082c1.287-.931,2.74-1.889,4.134-2.767a10.9,10.9,0,0,0,2.519,2.793m-31.929-18.812h.082c1.315-.9,2.191-1.535,3.341-2.465v-.082a34.92,34.92,0,0,0-2.519-2.876h-.082c-1.068.767-2.191,1.535-3.368,2.52v.082a19.852,19.852,0,0,0,2.546,2.82m130.914,0h.082c1.314-.9,2.191-1.535,3.34-2.465v-.082a34.926,34.926,0,0,0-2.519-2.876h-.082c-1.068.767-2.191,1.535-3.368,2.52v.082a21.688,21.688,0,0,0,2.546,2.82m-145.2,16.517.026-.082v-9.066h3.97v8.9a13.461,13.461,0,0,0,2.819,2.547h.082a48.932,48.932,0,0,1,4.737-3.123l-.219-.383c-.465.192-.847.383-1.259.575a3.694,3.694,0,0,1-1.369-1.123V244.073a18.892,18.892,0,0,1,.575-5.176l-.137-.082a37.435,37.435,0,0,0-5.559,3.78,11.66,11.66,0,0,1,.328,3.2v2.768h-3.94V243.83a12.455,12.455,0,0,1,.659-4.9l-.11-.026c-.958,1.315-1.287,2.435-1.287,5.2v16.077a4.412,4.412,0,0,0-2.163-.493,8.255,8.255,0,0,0-2.985.575l-.027-.026c3.5-3.123,3.614-3.671,3.614-5.943v-9.7c0-2.876.355-4.136,1.123-5.534l-.11-.11a4.392,4.392,0,0,1-2.218.659c-1.068,0-2.519-.548-3.806-.548a3.538,3.538,0,0,0-2.519.958,3.322,3.322,0,0,0-.957,2.329,4.665,4.665,0,0,0,.219,1.4h.082a2.009,2.009,0,0,1,.548-.9,2.042,2.042,0,0,1,1.506-.575c.847,0,1.423.355,2.218.355A4.493,4.493,0,0,0-281.8,241.5l.026.026c-3.229,3.369-3.34,3.97-3.34,6.573v.465a13.821,13.821,0,0,1-1.479-.137,33.069,33.069,0,0,0-2.656,3.341l.082.082a15.877,15.877,0,0,1,2.629-.192h1.424v4.437c0,2.737-.383,3.862-2.683,6.819l.11.137a8.97,8.97,0,0,1,3.587-.794,3.129,3.129,0,0,1,2.273.822h.082a16.091,16.091,0,0,1,3.451-2.3m125.983-8.763a8.548,8.548,0,0,1,2.629-6.134l-.11-.137a10.366,10.366,0,0,0-4.162,2.574,7.886,7.886,0,0,0-2.273,5.559,8.685,8.685,0,0,0,2.629,6.409,10.446,10.446,0,0,0,7.64,2.931,9.564,9.564,0,0,0,7.037-2.74,8.225,8.225,0,0,0,2.329-5.587l-.192-.026a8.7,8.7,0,0,1-4.628,4.056V243.777c.548.026.847.026,1.014.026,2.081,0,3.67-1.314,4.491-5.34l-.192-.082a3.693,3.693,0,0,1-3.313,1.424c-2.41,0-6.353-.958-9.282-.958a7.673,7.673,0,0,0-5.533,2,4.545,4.545,0,0,0-1.4,3.4,5.78,5.78,0,0,0,.465,2.218h.11a4.515,4.515,0,0,1,1.177-2.191,5.6,5.6,0,0,1,4.162-1.479,41.292,41.292,0,0,1,5.887.6c-1.479.548-3.368,1.315-4.6,1.889a14.765,14.765,0,0,1,.274,3.041v8.3c0,1.123-.026,1.588-.355,2a5.979,5.979,0,0,1-1.588-1.068,7.521,7.521,0,0,1-2.223-5.54" transform="translate(322.997 -236.151)" fill="#fff"/>
  </g>
</svg>
