<svg xmlns="http://www.w3.org/2000/svg" xmlns:xlink="http://www.w3.org/1999/xlink" width="44.071" height="44.071" viewBox="0 0 44.071 44.071">
  <defs>
    <clipPath id="clip-path">
      <rect id="Rectangle_40" data-name="Rectangle 40" width="44.071" height="44.071" fill="#fff"/>
    </clipPath>
    <clipPath id="clip-path-2">
      <path id="Path_298" data-name="Path 298" d="M448.9,162.33a25.786,25.786,0,0,1-7.238,2.051,1.159,1.159,0,0,0-.962.935c.459-.053.891-.084,1.319-.154a28.892,28.892,0,0,0,9.13-2.995,7.278,7.278,0,0,0,2.695-2.426,3.871,3.871,0,0,0,.37-1.235c.022-.1-.11-.225-.2-.4-.988,2.391-3.079,3.3-5.112,4.225" transform="translate(-440.7 -158.105)" fill="#fff"/>
    </clipPath>
  </defs>
  <g id="lattu-logo" transform="translate(0 0)">
    <g id="lattu-bangla-logo-v2.0" transform="translate(0 0)" clip-path="url(#clip-path)">
      <g id="Group_325" data-name="Group 325" transform="translate(2.094 -0.17)">
        <g id="Lattu_Logo" data-name="Lattu Logo" transform="translate(0 0)">
          <path id="Path_296" data-name="Path 296" d="M373.385,124.4a22.109,22.109,0,0,0-8.345,1.632,5.412,5.412,0,0,0-2.421,1.892,1.239,1.239,0,0,0,.547,2.051,5.406,5.406,0,0,0,3.387.41,30.325,30.325,0,0,0,8.459-2.726,22.152,22.152,0,0,0,2.051-1.288,9.413,9.413,0,0,0,.8-.657l-.124-.163c-.247.048-.5.079-.737.146s-.392.031-.485-.238a1.223,1.223,0,0,0-1-.781,11.319,11.319,0,0,0-2.1-.278h-.031" transform="translate(-353.583 -123.078)" fill="#fff"/>
          <g id="Group_323" data-name="Group 323" transform="translate(12.154 2.807)">
            <path id="Path_297" data-name="Path 297" d="M448.9,162.33a25.786,25.786,0,0,1-7.238,2.051,1.159,1.159,0,0,0-.962.935c.459-.053.891-.084,1.319-.154a28.892,28.892,0,0,0,9.13-2.995,7.278,7.278,0,0,0,2.695-2.426,3.871,3.871,0,0,0,.37-1.235c.022-.1-.11-.225-.2-.4-.988,2.391-3.079,3.3-5.112,4.225" transform="translate(-440.7 -158.105)" fill="#fff"/>
            <g id="Group_322" data-name="Group 322" transform="translate(0 0)" clip-path="url(#clip-path-2)">
              <rect id="Rectangle_176" data-name="Rectangle 176" width="13.531" height="7.211" transform="translate(0 0)" fill="#fff"/>
            </g>
          </g>
          <path id="Path_299" data-name="Path 299" d="M302.633,105.2a14.194,14.194,0,0,1-6.047,2.073,19.532,19.532,0,0,1-3,.027,2.157,2.157,0,0,1-1.667-.834,1.022,1.022,0,0,0,.688,1.054,10.672,10.672,0,0,0,1.985.481,4.816,4.816,0,0,0,.944,0c.2-.013.406-.027.609-.022a8.373,8.373,0,0,1,.878.119,5.935,5.935,0,0,0,1.037.1.627.627,0,0,1,.653.357,12.106,12.106,0,0,0,1.138,1.619c.036-.662.079-1.323.093-1.989a.644.644,0,0,1,.366-.6,8.834,8.834,0,0,0,.966-.855,4.388,4.388,0,0,1,.406-.278c.7-.481,1.429-.926,2.1-1.451a2.175,2.175,0,0,0,.609-.891,1.788,1.788,0,0,0,0-.9,3.409,3.409,0,0,1-1.751,1.994m3.3-4.794a16.482,16.482,0,0,1-4.71,2.589,28.437,28.437,0,0,1-10.387,2.077,7.753,7.753,0,0,1-3-.525,1.716,1.716,0,0,1-1.182-1.306,1.335,1.335,0,0,0,.516,1.764,5.339,5.339,0,0,0,2.638.816,25.006,25.006,0,0,0,9.769-1.332,20.406,20.406,0,0,0,5.831-2.7,10.819,10.819,0,0,0,2.029-1.883,1.459,1.459,0,0,0,.084-2.011c-.048-.053-.11-.093-.212-.181.221,1.292-.569,2.016-1.376,2.69m-.459-2.845a9.5,9.5,0,0,1-3.012,2.046,28.813,28.813,0,0,1-10.4,2.823,24.6,24.6,0,0,1-3.462-.1,6.035,6.035,0,0,1-1.288-.4,1.586,1.586,0,0,0,1.05.957,8.588,8.588,0,0,0,3.7.446,26.826,26.826,0,0,0,10.325-2.726,9.918,9.918,0,0,0,2.99-2.082,1.894,1.894,0,0,0,.644-1.663c-.207.265-.362.494-.547.7m-9.518-3.083a3.214,3.214,0,0,0-1.1.265,2.183,2.183,0,0,0-1.328,1.239c-.036.106-.229.176-.362.234a12.479,12.479,0,0,0-3.33,1.883,6.653,6.653,0,0,0-.9,1.028,1.87,1.87,0,0,0-.194.56,9.418,9.418,0,0,1,3.551-2.329,22.249,22.249,0,0,1,8.72-2,25.432,25.432,0,0,1,2.651.247,4.957,4.957,0,0,0-.829-.516,8.365,8.365,0,0,0-3.617-.318c-.212.013-.428.036-.64.066a1.764,1.764,0,0,1-1.288-.194,1.756,1.756,0,0,0-.891-.176c-.154,0-.3,0-.446.009" transform="translate(-281.159 -94.471)" fill="#fff"/>
          <path id="Path_300" data-name="Path 300" d="M489.116,299.171c-.34.079-.688.132-1.032.212a.7.7,0,0,0-.353.172c-.371.432-.247.8.326.82a9.44,9.44,0,0,0,1.861-.15,11.69,11.69,0,0,0,4.106-1.482,3.711,3.711,0,0,0,1.751-1.844,32.878,32.878,0,0,1-6.66,2.271" transform="translate(-473.301 -287.972)" fill="#fff"/>
          <path id="Path_301" data-name="Path 301" d="M194.034,335.48a.967.967,0,0,1-.287-.741.853.853,0,0,1,.326-.741,1.625,1.625,0,0,1,1.01-.282,3.632,3.632,0,0,1,1.3.269,3.126,3.126,0,0,1-.481,1.253,1.148,1.148,0,0,1-1.019.525,1.187,1.187,0,0,1-.851-.282M192.447,304.5a4.126,4.126,0,0,0-.7.626,2.671,2.671,0,1,0,4.278,2.236c0-.036,0-.071,0-.1a2.734,2.734,0,0,0-.216-1.059,3.825,3.825,0,0,1,.437.088l.988.265a4.671,4.671,0,0,1,1.874,1.019,3.064,3.064,0,0,1,1.173,2.373,1.365,1.365,0,0,1-.375.873H171.6a1.248,1.248,0,1,0,0,2.5h9.584l-.631,3.378a3.884,3.884,0,0,0-2.395-.8,5.354,5.354,0,0,0-3.824,1.813,4.864,4.864,0,0,0-.291-.4,3.874,3.874,0,0,0-3.03-1.416c-2.58,0-5.041,2.346-5.6,5.35l-.185,1.006a5.332,5.332,0,0,0,.966,4.388,3.884,3.884,0,0,0,3.03,1.411h.079a2.673,2.673,0,1,0-1.685-4.746,4.07,4.07,0,0,1,.062-.6l.185-1.006c.331-1.791,1.773-3.3,3.145-3.3a1.389,1.389,0,0,1,1.116.516,2.907,2.907,0,0,1,.437,2.338l-.172.931a1.249,1.249,0,0,0,.644,1.328,1.234,1.234,0,0,0,.353.119,1,1,0,0,0,.225.022,1.246,1.246,0,0,0,1.227-1.019l.172-.935c.331-1.791,1.773-3.3,3.145-3.3a1.374,1.374,0,0,1,1.111.516,2.856,2.856,0,0,1,.432,2.338l-.432,2.351a1.248,1.248,0,0,0,1,1.456,1.383,1.383,0,0,0,.229.022,1.245,1.245,0,0,0,1.222-1.023l.437-2.351a.033.033,0,0,1,0-.018l1.557-8.362h2.042l-1.932,10.317a1.253,1.253,0,0,0,1,1.455,1.339,1.339,0,0,0,.229.022,1.258,1.258,0,0,0,1.226-1.019l2.02-10.771h2.007l-1.438,7.78a4.98,4.98,0,0,0,.992,4.111,4.792,4.792,0,0,0,3.762,1.689,6.473,6.473,0,0,0,4.358-1.777,1.433,1.433,0,0,1,.291.772,3.057,3.057,0,0,1-1.173,2.377,4.671,4.671,0,0,1-1.875,1.019l-.988.265a3.913,3.913,0,0,1-.935.132,2.645,2.645,0,0,1-1.1-.2,1.872,1.872,0,1,0-3.348-1.566,1.235,1.235,0,0,0-.071.459c0,.018,0,.031,0,.048a1.872,1.872,0,0,0,.088.569,3.846,3.846,0,0,0,1.561,2.346,4.734,4.734,0,0,0,2.474.825,2.952,2.952,0,0,0-.392.269,3.036,3.036,0,0,0-.044,4.53,3.562,3.562,0,0,0,2.413.847,3.163,3.163,0,0,0,2.32-.931,4.457,4.457,0,0,0,1.067-1.786,14.79,14.79,0,0,1,1.963,1.905,1.461,1.461,0,1,0,2.219-.64,15.473,15.473,0,0,0-1.835-1.949h0a11.94,11.94,0,0,0-2.148-1.773,6.248,6.248,0,0,0-2.373-.931,8.335,8.335,0,0,0,1.389-.662,5.921,5.921,0,0,0,3.29-5.35,3.873,3.873,0,0,0-1.279-2.615,6.158,6.158,0,0,0,.5-1.53l.093-.5a4.909,4.909,0,0,0-.988-4.111,4.8,4.8,0,0,0-3.762-1.694,1.25,1.25,0,0,0-.7.212,2.672,2.672,0,1,0,3.017,4.159,2.936,2.936,0,0,1-.018.979l-.093.5a4.21,4.21,0,0,1-3.9,3.3,2.33,2.33,0,0,1-1.844-.789,2.45,2.45,0,0,1-.454-2.06l1.522-8.23h10.8a1.248,1.248,0,1,0,0-2.5h-1a4.307,4.307,0,0,0,.11-.675,5.921,5.921,0,0,0-3.29-5.35,7.844,7.844,0,0,0-4.084-1.129h-.141a4.81,4.81,0,0,0-2.814.829" transform="translate(-165.125 -294.447)" fill="#fff"/>
        </g>
      </g>
    </g>
  </g>
</svg>
