<svg xmlns="http://www.w3.org/2000/svg" width="123.696" height="36.099" viewBox="0 0 123.696 36.099">
  <g id="logo-mandiri" transform="translate(-473.423 -596.123)">
    <g id="g22">
      <path id="path24" d="M473.554,620.933c0-1.792-.034-3.3-.131-4.638h3.392l.16,2.3h.094a5.389,5.389,0,0,1,4.8-2.657,4.494,4.494,0,0,1,4.317,2.881h.066a5.929,5.929,0,0,1,1.918-1.951,5.2,5.2,0,0,1,3.138-.93c2.587,0,5.208,1.76,5.208,6.752v9.178h-3.837v-8.6c0-2.59-.9-4.126-2.779-4.126a3,3,0,0,0-2.753,2.08,5.625,5.625,0,0,0-.193,1.309v9.341h-3.839v-9.02c0-2.174-.863-3.71-2.685-3.71a3.07,3.07,0,0,0-2.814,2.237,3.385,3.385,0,0,0-.227,1.281v9.212h-3.834Z" fill="#fff"/>
    </g>
    <g id="g26">
      <path id="path28" d="M507.629,624.261c-2.783-.066-5.436.54-5.436,2.909a2.066,2.066,0,0,0,2.239,2.239,3.18,3.18,0,0,0,3.067-2.143,2.8,2.8,0,0,0,.13-.863Zm3.838,3.869a24.709,24.709,0,0,0,.226,3.741h-3.551l-.256-1.728h-.1a5.776,5.776,0,0,1-4.6,2.078,4.62,4.62,0,0,1-4.894-4.637c0-3.934,3.484-5.916,9.242-5.884v-.256c0-1.024-.417-2.72-3.165-2.72a8.252,8.252,0,0,0-4.191,1.154l-.769-2.558a11.2,11.2,0,0,1,5.631-1.38c4.99,0,6.428,3.17,6.428,6.559Z" fill="#fff"/>
    </g>
    <g id="g30">
      <path id="path32" d="M514.188,620.933c0-1.792-.035-3.3-.128-4.638h3.451l.192,2.334h.095a5.623,5.623,0,0,1,4.957-2.688c2.722,0,5.535,1.76,5.535,6.686v9.244h-3.935v-8.795c0-2.239-.832-3.935-2.974-3.935a3.3,3.3,0,0,0-3.07,2.3,4.076,4.076,0,0,0-.16,1.277v9.151h-3.963Z" fill="#fff"/>
    </g>
    <g id="g34">
      <path id="path36" d="M541.411,622.786a5.622,5.622,0,0,0-.1-1.022,3.446,3.446,0,0,0-3.39-2.782c-2.527,0-3.934,2.24-3.934,5.15,0,2.847,1.407,4.928,3.9,4.928a3.469,3.469,0,0,0,3.388-2.784,4.417,4.417,0,0,0,.128-1.155Zm3.934-12.75v17.452c0,1.6.065,3.328.128,4.382h-3.518l-.157-2.461h-.066a5.614,5.614,0,0,1-5.086,2.813c-3.71,0-6.653-3.162-6.653-7.961-.031-5.216,3.232-8.32,6.974-8.32a4.951,4.951,0,0,1,4.38,2.052h.064v-7.957Z" fill="#fff"/>
    </g>
    <path id="path38" d="M548.126,616.295H552.1v15.574h-3.972Z" fill="#fff"/>
    <g id="g40">
      <path id="path42" d="M554.875,621.317c0-2.111-.032-3.616-.128-5.021h3.423l.127,2.971h.13a4.281,4.281,0,0,1,4.254-2.971,4.338,4.338,0,0,1,.927,0v3.455a5.4,5.4,0,0,0-1.154-.129,3.465,3.465,0,0,0-3.515,2.973,6.774,6.774,0,0,0-.127,1.219v8.056h-3.937Z" fill="#fff"/>
    </g>
    <path id="path44" d="M565.431,616.295H569.4v15.574h-3.964Z" fill="#fff"/>
    <g id="g46">
      <path id="path48" d="M593.868,599.841c-1.957-2.229-4.034-1.223-5.692-.4-.7.343-3.216,2.022-5.715,3.192a4.893,4.893,0,0,1-5.738-1.149c-.085-.1-2.35-2.849-2.59-3.188-1.472-1.845-5.193-3.375-9.64-.83-2.382,1.379-8,4.6-10.1,5.8a4.9,4.9,0,0,1-5.91-1.324c-.028-.037-2.226-2.78-2.314-2.885a5.819,5.819,0,0,0-4.648-2.245,10.227,10.227,0,0,0-5.062,1.264c-3.011,1.723-10.021,5.731-10.021,5.731l-.005,0c-2.882,1.65-5.129,2.93-5.129,2.93L523.961,610a5.24,5.24,0,0,0,6.467,1.339s8.968-5.193,9-5.207C543.306,604,546.3,604,548.283,604.8a10.534,10.534,0,0,1,3.335,2.628s2.028,2.513,2.385,2.952a3.051,3.051,0,0,0,3.061.863,5.068,5.068,0,0,0,1.775-.714l8.689-5.037a11.814,11.814,0,0,1,6.581-1.8c4.049.369,5.308,3.2,7.065,5.17a4.174,4.174,0,0,0,3.392,1.787,5.164,5.164,0,0,0,2.153-.69l10.4-6a43.909,43.909,0,0,0-3.251-4.108" fill="#fff"/>
    </g>
  </g>
</svg>
