<svg xmlns="http://www.w3.org/2000/svg" width="190.35" height="33.37" viewBox="0 0 190.35 33.37">
  <g id="logo-mastercard" transform="translate(-78.484 -602.296)">
    <path id="Path_1" data-name="Path 1" d="M130.886,629.32v-.537h.216v-.11h-.552v.11h.217v.537Zm1.07,0v-.648h-.168l-.195.446-.195-.446h-.169v.648h.12v-.489l.183.421h.123l.183-.422v.49Zm29.226-4.719v-6.965a4.13,4.13,0,0,0-4.365-4.41,4.3,4.3,0,0,0-3.9,1.973,4.074,4.074,0,0,0-3.668-1.973A3.668,3.668,0,0,0,146,614.875V613.5h-2.415v11.1h2.437V618.45c0-1.927,1.068-2.948,2.716-2.948,1.6,0,2.415,1.044,2.415,2.924V624.6h2.437V618.45a2.617,2.617,0,0,1,2.716-2.948c1.648,0,2.437,1.044,2.437,2.924V624.6Zm36.074-11.1h-3.946V610.14h-2.437V613.5H188.62v2.205h2.252v5.061c0,2.577,1,4.108,3.853,4.108a5.678,5.678,0,0,0,3.019-.858l-.7-2.066a4.462,4.462,0,0,1-2.136.626c-1.208,0-1.6-.743-1.6-1.857V615.71h3.946Zm20.591-.278a3.272,3.272,0,0,0-2.925,1.625V613.5h-2.391v11.1h2.415V618.38c0-1.834.788-2.855,2.367-2.855a3.933,3.933,0,0,1,1.509.279l.742-2.275a5.153,5.153,0,0,0-1.717-.3Zm-31.131,1.161a8.3,8.3,0,0,0-4.527-1.161c-2.808,0-4.619,1.346-4.619,3.552,0,1.811,1.346,2.925,3.831,3.273l1.137.163c1.323.186,1.95.533,1.95,1.161,0,.858-.883,1.346-2.53,1.346a5.915,5.915,0,0,1-3.691-1.161l-1.137,1.88a8,8,0,0,0,4.8,1.439c3.2,0,5.061-1.508,5.061-3.621,0-1.95-1.462-2.971-3.877-3.319l-1.137-.163c-1.045-.139-1.88-.348-1.88-1.091,0-.812.788-1.3,2.112-1.3a7.15,7.15,0,0,1,3.459.953Zm64.675-1.161a3.272,3.272,0,0,0-2.925,1.625V613.5h-2.391v11.1h2.415V618.38c0-1.834.788-2.855,2.367-2.855a3.93,3.93,0,0,1,1.509.279l.742-2.275a5.153,5.153,0,0,0-1.717-.3Zm-31.107,5.826a5.606,5.606,0,0,0,5.92,5.827,5.815,5.815,0,0,0,3.993-1.323l-1.161-1.95a4.88,4.88,0,0,1-2.9,1,3.558,3.558,0,0,1,0-7.1,4.88,4.88,0,0,1,2.9,1l1.161-1.95a5.815,5.815,0,0,0-3.993-1.323,5.606,5.606,0,0,0-5.92,5.826Zm22.61,0V613.5h-2.414v1.347a4.211,4.211,0,0,0-3.506-1.625,5.833,5.833,0,0,0,0,11.653,4.213,4.213,0,0,0,3.506-1.624V624.6h2.414Zm-8.984,0a3.36,3.36,0,1,1,3.366,3.552,3.328,3.328,0,0,1-3.366-3.552Zm-29.133-5.826c-3.25,0-5.524,2.367-5.524,5.826a5.472,5.472,0,0,0,5.687,5.827,6.74,6.74,0,0,0,4.549-1.555l-1.184-1.787a5.281,5.281,0,0,1-3.227,1.161,3.081,3.081,0,0,1-3.319-2.716H210c.024-.3.046-.6.046-.929-.023-3.458-2.158-5.826-5.269-5.826Zm-.046,2.158a2.756,2.756,0,0,1,2.808,2.693h-5.757a2.857,2.857,0,0,1,2.949-2.693Zm60.565,3.667V609.048h-2.415v5.8a4.208,4.208,0,0,0-3.506-1.625,5.833,5.833,0,0,0,0,11.653,4.21,4.21,0,0,0,3.506-1.624V624.6H265.3Zm2.821,4.525a.7.7,0,0,1,.279.055.741.741,0,0,1,.229.151.7.7,0,0,1,.153.225.672.672,0,0,1,.056.274.663.663,0,0,1-.056.273.716.716,0,0,1-.153.224.762.762,0,0,1-.229.152.7.7,0,0,1-.279.056.722.722,0,0,1-.283-.056.742.742,0,0,1-.23-.152.753.753,0,0,1-.153-.224.679.679,0,0,1-.055-.273.688.688,0,0,1,.055-.274.732.732,0,0,1,.153-.225.731.731,0,0,1,.513-.206Zm0,1.253a.528.528,0,0,0,.213-.043.568.568,0,0,0,.172-.117.554.554,0,0,0,.159-.389.554.554,0,0,0-.159-.389.57.57,0,0,0-.172-.117.546.546,0,0,0-.213-.042.566.566,0,0,0-.216.042.572.572,0,0,0-.175.117.555.555,0,0,0-.116.6.546.546,0,0,0,.116.174.569.569,0,0,0,.175.117A.546.546,0,0,0,268.117,624.83Zm.042-.879a.3.3,0,0,1,.194.056.186.186,0,0,1,.069.153.178.178,0,0,1-.054.133.259.259,0,0,1-.155.066l.214.246h-.167l-.2-.245H268v.245h-.14v-.654Zm-.162.123v.174h.16a.158.158,0,0,0,.088-.022.075.075,0,0,0,.033-.067.073.073,0,0,0-.033-.065.158.158,0,0,0-.088-.022Zm-11.685-5.022a3.36,3.36,0,1,1,3.365,3.552,3.328,3.328,0,0,1-3.365-3.552Zm-81.528,0V613.5H172.37v1.347a4.208,4.208,0,0,0-3.5-1.625,5.833,5.833,0,0,0,0,11.653,4.21,4.21,0,0,0,3.5-1.624V624.6h2.415Zm-8.984,0a3.36,3.36,0,1,1,3.366,3.552A3.328,3.328,0,0,1,165.8,619.053ZM104,632.544c.13.113.269.222.4.333a16.685,16.685,0,1,1,0-27.792c-.135.111-.273.219-.4.333a17.964,17.964,0,0,0,0,27.126ZM115.793,602.3a16.608,16.608,0,0,0-9.237,2.789c.135.111.273.219.4.333a17.963,17.963,0,0,1,0,27.126c-.131.113-.269.222-.4.334a16.686,16.686,0,1,0,9.237-30.582Zm-10.313,3.573c-.214.169-.426.344-.631.523a16.671,16.671,0,0,0,0,25.178c.205.179.416.354.631.523q.323-.254.632-.523a16.671,16.671,0,0,0,0-25.178q-.309-.269-.632-.523" fill="#fff"/>
  </g>
</svg>
