<svg xmlns="http://www.w3.org/2000/svg" width="62.177" height="40.711" viewBox="0 0 62.177 40.711">
  <g id="logo-touchngo" transform="translate(-632.567 -601.348)">
    <path id="Path_7" data-name="Path 7" d="M691.7,601.348H635.615a3.071,3.071,0,0,0-3.048,3.065v34.572a3.073,3.073,0,0,0,3.048,3.074H691.7a3.073,3.073,0,0,0,3.048-3.074V604.413A3.07,3.07,0,0,0,691.7,601.348Zm-19.482,9.565h6.559l-.569,3.229h-5.1l-.577,3.295h4.917l-.56,3.23h-6.381a1.636,1.636,0,0,1-1.633-2l1.007-5.762A2.48,2.48,0,0,1,672.214,610.913Zm-15.67,7.754,1.358-7.754h3.438l-1.138,6.524h4.315l1.147-6.516H669.1l-1.724,9.827a7.935,7.935,0,0,1-2.235-.2c-.552-.254-.934-1.385-.934-1.385a3.584,3.584,0,0,1-2.682,1.5h-3.349A1.633,1.633,0,0,1,656.544,618.667Zm-.155-5.762-1.008,5.762a2.488,2.488,0,0,1-2.332,2H646.62a1.636,1.636,0,0,1-1.634-2L646,612.905a2.464,2.464,0,0,1,2.325-1.992h6.437A1.62,1.62,0,0,1,656.389,612.905Zm-17.9,7.761,1.837-10.524h-4.584l.569-3.262h13.134l-.569,3.262h-4.592l-1.837,10.524Zm6.3,1.648h2.243l-2.982,4.229Zm10.7,9.811c-.464,0-1.39-.336-1.154-1.721s.78-4.476.78-4.476H650.9l-1.089,6.238H645.88l1.732-9.852h3.925l-.317,1.713a2.925,2.925,0,0,1,2.512-1.566h3.21a2.061,2.061,0,0,1,1.951,2l-1.341,7.664Zm17.612-6.18h-9.42l-1.032,5.877h5.811l.659-3.82h3.86l-.829,4.754a3.33,3.33,0,0,1-3.129,2.689h-8.193a2.2,2.2,0,0,1-2.194-2.689L660,625.011a3.33,3.33,0,0,1,3.129-2.689h10.6Zm16-.934-1.349,7.745a3.339,3.339,0,0,1-3.137,2.689h-8.2a2.2,2.2,0,0,1-2.2-2.689l1.358-7.745a3.332,3.332,0,0,1,3.137-2.689h8.193A2.2,2.2,0,0,1,689.1,625.011Zm1.838-12.058-1.341,7.664h-1.748c-.455,0-1.39-.336-1.146-1.713s.781-4.475.781-4.475h-3.926l-1.089,6.237h-3.625l2.349-13.434h3.616l-.926,5.295a2.491,2.491,0,0,1,2.211-1.565h3.21A1.629,1.629,0,0,1,690.941,612.953Z" fill="#fff"/>
    <path id="Path_8" data-name="Path 8" d="M652.738,614.066h-3.519l-.577,3.295h3.519Z" fill="#fff"/>
    <path id="Path_9" data-name="Path 9" d="M678.237,631.822h5.811l1.032-5.877h-5.811Z" fill="#fff"/>
  </g>
</svg>
