<svg xmlns="http://www.w3.org/2000/svg" width="108.086" height="36.016" viewBox="0 0 108.086 36.016">
  <g id="logo-brac" transform="translate(-723.427 -601.919)">
    <path id="path3018" d="M755.181,637.813a8,8,0,0,1-4.746-2.5c-1.647-1.779-1.973-2.8-2.163-6.759l-.182-3.779-.654,2.113a13.484,13.484,0,0,1-4.533,6.551c-2.832,1.96-4.287,2.25-12.14,2.419l-7.336.158v-1.121a8.138,8.138,0,0,1,4.338-6.985c1.2-.542,2.522-.719,5.57-.741l4-.029-2.173-.7c-4.611-1.474-7.232-3.76-8.769-7.647-.726-1.835-.848-3.019-.981-9.487l-.152-7.391,1.553.208a9.018,9.018,0,0,1,6.07,3.444c.93,1.4,1.04,1.96,1.213,6.146.149,3.6.257,4.287.5,3.158a13.921,13.921,0,0,1,3.506-6.711c3.058-3.269,6.609-4.209,15.96-4.222l5.292-.008-.235,1.716c-.473,3.452-2.656,6.242-5.5,7.032a24.031,24.031,0,0,1-4.656.406l-3.239.012,2.523.86a12.112,12.112,0,0,1,8.2,8.043c.69,2.182,1.243,15.312.667,15.813a3.646,3.646,0,0,1-1.924,0ZM744.7,626.144a7.107,7.107,0,0,0,3.5-5.873,6.576,6.576,0,0,0-1.834-5.046,6.984,6.984,0,0,0-12.02,4.948c.078,5.353,5.306,8.368,10.356,5.971Zm27.375,4.314a8.468,8.468,0,0,1-2.382-1.406l-.917-.861v1.019c0,.981-.077,1.019-2.1,1.019h-2.1V604.316h.868c2.29,0,3.7,2.405,3.7,6.3v2.515l1.048-.745a8.7,8.7,0,0,1,5.868-1.44c3.943.6,6.5,3.411,7.291,8.02.768,4.48-1.023,9.124-4.247,11.012a10.378,10.378,0,0,1-7.043.479Zm4.189-3.521c1.817-.862,2.8-2.918,2.8-5.851,0-4.025-1.66-6.433-4.645-6.737-3.406-.347-5.442,2.113-5.431,6.559.008,3.142.931,5.04,2.933,6.027a4.321,4.321,0,0,0,4.341,0Zm23.093,3.569a5.6,5.6,0,0,1-3.755-6.483c.546-2.908,2.033-3.833,7.547-4.7,4.1-.642,5.26-1.219,5.26-2.627,0-1.212-1.255-2.16-3.128-2.365-2.128-.233-3.605.366-4.414,1.787-.594,1.043-.828,1.145-2.652,1.147-2.234,0-2.384-.247-1.469-2.437,1.644-3.936,9.553-5.374,13.623-2.476,1.93,1.374,2.232,2.658,2.232,9.495,0,4.748.131,6.381.581,7.252.32.619.792,1.14,1.048,1.159s-.122.2-.842.41c-1.727.5-3.679.1-4.37-.887l-.556-.794-1.667.807c-2.064,1-5.753,1.35-7.437.707Zm6.388-3.562a4.471,4.471,0,0,0,1.913-1.309c.455-.851.494-4.674.045-4.4a21.268,21.268,0,0,1-3.144.635c-3.368.519-4.071.849-4.562,2.141a2.1,2.1,0,0,0,1.3,2.994,4.862,4.862,0,0,0,4.445-.065Zm14.668,3.691c-4.612-1.123-6.9-4.738-6.593-10.4.246-4.474,1.588-6.838,4.8-8.464,3.992-2.019,10.423-.464,11.977,2.9,1.373,2.966,1.364,2.987-1.165,2.987-2.112,0-2.288-.067-2.513-.964-.291-1.163-2.287-2.462-3.784-2.464-2.845,0-4.732,2.035-5.09,5.5-.295,2.859.118,4.59,1.46,6.119a4.162,4.162,0,0,0,7.226-1.127c.757-1.71.783-1.728,2.63-1.728a4.443,4.443,0,0,1,2.031.286,5.505,5.505,0,0,1-.349,2.023c-1.208,4.076-5.979,6.471-10.633,5.337Zm-35.631-9.953v-9.547l2,.115c1.947.113,2.005.15,2.191,1.389l.19,1.273.953-1.037a6.629,6.629,0,0,1,4.561-2.081c1.146,0,1.155.016,1.155,2.1v2.1h-1.7a3.772,3.772,0,0,0-3,1.143c-1.723,1.513-2.154,3.378-2.154,9.315v4.785h-4.192v-9.547Z" fill="#fff"/>
  </g>
</svg>
