<svg width="125" height="36" viewBox="0 0 125 36" fill="none" xmlns="http://www.w3.org/2000/svg">
<path d="M15.8795 5.90416C14.658 5.15769 13.4704 4.85231 11.8757 4.85231C9.02552 4.85231 6.82004 6.82028 6.82004 10.1455C6.82004 13.1992 9.39876 15.1672 12.2489 15.1672C13.7419 15.1672 15.2687 14.8279 16.3545 14.2511L16.4902 19.171C14.8276 19.7139 12.8597 20.0193 11.0953 20.0193C4.78421 20.0193 0 16.3548 0 10.0437C0 3.69868 4.78421 0.0341797 11.0953 0.0341797C13.0633 0.0341797 14.8276 0.373485 16.3206 1.08603L15.8795 5.90416Z" fill="white"/>
<path d="M16.5581 10.0095C16.5581 3.6645 21.3423 0 27.6534 0C33.9645 0 38.7487 3.6645 38.7487 10.0095C38.7487 16.3206 33.9645 19.9851 27.6534 19.9851C21.3423 19.9851 16.5581 16.3206 16.5581 10.0095ZM31.9286 10.0095C31.9286 7.15934 30.6732 4.61455 27.6534 4.61455C24.5996 4.61455 23.3781 7.15934 23.3781 10.0095C23.3781 12.8257 24.6336 15.3705 27.6534 15.3705C30.7071 15.3366 31.9286 12.8257 31.9286 10.0095Z" fill="white"/>
<path d="M40.1396 0.441097H46.1454V3.96987H46.2132C47.5365 1.2215 50.1831 0 53.169 0C55.8834 0 58.1228 1.18757 59.1407 3.6645C60.6676 1.08578 63.2124 0 65.9268 0C71.4236 0 72.679 3.12161 72.679 8.27905V19.544H66.0965V9.26303C66.0965 7.09148 65.3161 5.49675 63.4499 5.49675C61.1087 5.49675 59.7176 7.36293 59.7176 11.4685V19.544H53.135V9.26303C53.135 7.09148 52.3546 5.49675 50.4885 5.49675C48.1472 5.49675 46.7561 7.36293 46.7561 11.4685V19.544H40.1736V0.441097" fill="white"/>
<path d="M74.9866 0.441097H80.9923V3.96987H81.0601C82.3834 1.2215 85.03 0 88.0159 0C90.7303 0 92.9698 1.18757 93.9877 3.6645C95.5145 1.08578 98.0593 0 100.774 0C106.271 0 107.526 3.12161 107.526 8.27905V19.544H100.943V9.26303C100.943 7.09148 100.163 5.49675 98.2968 5.49675C95.9556 5.49675 94.5645 7.36293 94.5645 11.4685V19.544H87.982V9.26303C87.982 7.09148 87.2016 5.49675 85.3354 5.49675C82.9942 5.49675 81.603 7.36293 81.603 11.4685V19.544H75.0205V0.441097" fill="white"/>
<path d="M109.494 14.2508C111.021 14.8955 113.294 15.5741 115.703 15.5741C117.06 15.5741 118.384 15.3705 118.384 14.0472C118.384 10.8238 109.019 13.0972 109.019 6.20929C109.019 1.79832 113.328 0 117.162 0C119.435 0 121.743 0.271444 123.88 1.08578L123.371 5.6664C121.98 4.81814 119.877 4.37704 118.248 4.37704C116.823 4.37704 115.194 4.64848 115.194 5.70033C115.194 8.65229 125 6.31108 125 13.5722C125 18.6618 120.419 19.9511 116.11 19.9511C113.158 19.9511 111.122 19.6458 109.188 19.035L109.494 14.2508Z" fill="white"/>
<path d="M84.9279 35.6609H83.6725V34.0322H83.6386C82.9599 35.3216 81.9081 35.8984 80.4491 35.8984C77.6328 35.8984 76.2417 33.5572 76.2417 30.5373C76.2417 27.4157 77.4293 25.1763 80.4491 25.1763C82.451 25.1763 83.4689 26.6353 83.6386 27.1443H83.6725V20.5957H84.9279V35.6609ZM80.6187 34.8126C82.8581 34.8126 83.6386 32.4035 83.6386 30.5373C83.6386 28.6712 82.8581 26.2621 80.6187 26.2621C78.2097 26.2621 77.5989 28.5354 77.5989 30.5373C77.5989 32.5393 78.2097 34.8126 80.6187 34.8126Z" fill="white"/>
<path d="M94.1913 35.322C93.3091 35.6952 92.1554 35.8988 91.2054 35.8988C87.8123 35.8988 86.5569 33.6255 86.5569 30.5378C86.5569 27.4162 88.2873 25.1768 90.8661 25.1768C93.7502 25.1768 94.9377 27.518 94.9377 30.2663V30.911H87.948C87.948 33.0826 89.1017 34.813 91.3072 34.813C92.2233 34.813 93.5805 34.4398 94.1913 34.0666V35.322ZM93.5805 29.8252C93.5805 28.0269 92.868 26.2625 90.9679 26.2625C89.1017 26.2625 87.948 28.1287 87.948 29.8252H93.5805Z" fill="white"/>
<path d="M102.606 33.9985H102.572C101.995 35.22 100.57 35.8986 99.3147 35.8986C96.3967 35.8986 95.9556 33.9306 95.9556 33.0145C95.9556 29.5875 99.6201 29.4178 102.267 29.4178H102.504V28.9089C102.504 27.1784 101.893 26.2962 100.163 26.2962C99.1111 26.2962 98.0932 26.5337 97.1431 27.1445V25.923C97.9235 25.5498 99.2468 25.2104 100.163 25.2104C102.708 25.2104 103.76 26.3641 103.76 29.0107V33.5234C103.76 34.3378 103.76 34.9824 103.861 35.6611H102.606V33.9985ZM102.47 30.5036H102.097C99.9254 30.5036 97.3128 30.7411 97.3128 32.9805C97.3128 34.3378 98.2628 34.8128 99.4504 34.8128C102.436 34.8128 102.47 32.2341 102.47 31.1144V30.5036Z" fill="white"/>
<path d="M107.356 20.5957H106.101V35.6269H107.356V20.5957Z" fill="white"/>
<path d="M116.789 35.322C115.907 35.6952 114.753 35.8988 113.837 35.8988C110.444 35.8988 109.188 33.6255 109.188 30.5378C109.188 27.4162 110.919 25.1768 113.498 25.1768C116.382 25.1768 117.569 27.518 117.569 30.2663V30.911H110.58C110.58 33.0826 111.733 34.813 113.939 34.813C114.855 34.813 116.212 34.4398 116.823 34.0666V35.322M116.144 29.8252C116.144 28.0269 115.432 26.2625 113.532 26.2625C111.665 26.2625 110.512 28.1287 110.512 29.8252H116.144Z" fill="white"/>
<path d="M119.3 27.7213C119.3 26.6016 119.3 26.1605 119.232 25.448H120.487V27.4159H120.521C120.996 26.2623 121.845 25.2104 123.134 25.2104C123.439 25.2104 123.813 25.2783 124.016 25.3462V26.6695C123.745 26.6016 123.405 26.5337 123.1 26.5337C121.098 26.5337 120.555 28.7732 120.555 30.6393V35.695H119.3V27.7213Z" fill="white"/>
</svg>
