<svg xmlns="http://www.w3.org/2000/svg" width="122.838" height="36.122" viewBox="0 0 122.838 36.122">
  <g id="logo-dana" transform="translate(-303.597 -600.508)">
    <path id="Path_2" data-name="Path 2" d="M345.419,627.781c-.117-6.08-.035-12.166-.014-18.246,2.225,0,4.456-.041,6.684,0a9.092,9.092,0,0,1,8.577,9.305,9.2,9.2,0,0,1-5.249,8.134,10.246,10.246,0,0,1-2.049.623c-2.567.532-5.346.242-7.949.184m3.839-3.942a14.671,14.671,0,0,0,3.6-.19A5.08,5.08,0,0,0,356.8,619.1c.114-1.927-.951-4.434-2.923-5.127a11.076,11.076,0,0,0-4.619-.454Z" fill="#fff"/>
    <path id="Path_3" data-name="Path 3" d="M400.672,627.779c.081-3.549.511-8.069-.174-11.49a3.853,3.853,0,0,0-3.6-2.831,3.967,3.967,0,0,0-3.858,4.111c.036,3.4,0,6.792,0,10.21h-3.822c0-3.13-.391-9.213.174-12a7.262,7.262,0,0,1,1.146-2.815,7.912,7.912,0,0,1,4.822-3.29c3.212-.669,5.918.744,7.811,3.29a7.373,7.373,0,0,1,1.318,4.1c.1,3.564.019,7.151.019,10.721Z" fill="#fff"/>
    <path id="Path_4" data-name="Path 4" d="M319.318,636.54a17.584,17.584,0,0,1-13.712-9.509,18.772,18.772,0,0,1,0-16.9,17.761,17.761,0,0,1,10.639-8.893,17.331,17.331,0,0,1,16.13,3.443,18.167,18.167,0,0,1,6.309,12.364,18.417,18.417,0,0,1-6.309,15.435,17.436,17.436,0,0,1-13.057,4.058m-5.379-10.163a7.95,7.95,0,0,0,3.328-.142c2.255-.608,4.434-1.391,6.656-2.1a14.49,14.49,0,0,1,2.3-.473,7.745,7.745,0,0,1,5.162,1.372c0-3.51.044-7.023,0-10.533a1.135,1.135,0,0,0-.56-.978,7.237,7.237,0,0,0-4.347-1.2,10.419,10.419,0,0,0-1.537.272c-2.519.828-5.681,2.355-8.192,2.782a8.159,8.159,0,0,1-3.072-.022,7.29,7.29,0,0,1-2.3-1.04,2.042,2.042,0,0,0-.43-.147v.592c0,3.16-.019,6.317,0,9.474a5.436,5.436,0,0,0,.079.815,6.386,6.386,0,0,0,2.913,1.334" fill="#fff"/>
    <path id="Path_5" data-name="Path 5" d="M382.3,627.779h-3.556v-3.9h-7.588l-.038,3.9h-3.836c0-3.678-.435-8.77.23-12.258a7.759,7.759,0,0,1,5.828-5.831,7.666,7.666,0,0,1,7.9,3.261,7.858,7.858,0,0,1,1.328,4.347c.027,3.483,0,6.977,0,10.465Zm-3.643-7.953h.03a14.487,14.487,0,0,0-.117-3.531,3.747,3.747,0,0,0-2.671-2.682,3.849,3.849,0,0,0-4.132,1.657c-.834,1.427-.627,3.049-.606,4.619,2.432,0,4.866.035,7.3,0a.832.832,0,0,0,.2-.063" fill="#fff"/>
    <path id="Path_6" data-name="Path 6" d="M426.082,627.778H422.55v-3.9h-7.588l-.032,3.9h-3.82c0-3.6-.446-8.859.2-12.247a7.791,7.791,0,0,1,5.808-5.825,7.7,7.7,0,0,1,7.931,3.26,6.988,6.988,0,0,1,1.277,3.584c.209,3.722.049,7.5.049,11.234Zm-3.621-7.941h.041a13.458,13.458,0,0,0-.134-3.532,3.776,3.776,0,0,0-4.48-2.7,3.988,3.988,0,0,0-2.947,3.72,12.169,12.169,0,0,0,.038,2.581c2.42,0,4.841.032,7.262,0a1.075,1.075,0,0,0,.22-.074" fill="#fff"/>
  </g>
</svg>
