<svg id="microsoft-logo" xmlns="http://www.w3.org/2000/svg" width="177.88" height="37.976" viewBox="0 0 177.88 37.976">
  <path id="Path_1568" data-name="Path 1568" d="M415.338,45.745V42.616h-3.885V37.753l-.131.04-3.649,1.116-.072.022v3.685h-5.759V40.564a3.26,3.26,0,0,1,.635-2.175,2.239,2.239,0,0,1,1.78-.727,4.146,4.146,0,0,1,1.688.384l.143.064V34.815l-.067-.025a6.58,6.58,0,0,0-2.158-.288,6.324,6.324,0,0,0-3.06.735,5.232,5.232,0,0,0-2.1,2.076,6.189,6.189,0,0,0-.744,3.046v2.257h-2.7v3.128h2.7V58.923h3.883V45.745H407.6v8.375c0,3.449,1.627,5.2,4.836,5.2a7.932,7.932,0,0,0,1.649-.183,4.554,4.554,0,0,0,1.2-.381l.051-.03V55.566l-.158.1a2.719,2.719,0,0,1-.781.341,2.967,2.967,0,0,1-.767.13,2.08,2.08,0,0,1-1.653-.6,3.243,3.243,0,0,1-.526-2.1v-7.7h3.885Zm-28.756,10.4a4.119,4.119,0,0,1-3.3-1.388,5.9,5.9,0,0,1-1.187-3.92,6.127,6.127,0,0,1,1.187-4.024,4.054,4.054,0,0,1,3.272-1.41,3.992,3.992,0,0,1,3.186,1.348,6.007,6.007,0,0,1,1.163,3.991,6.4,6.4,0,0,1-1.094,4.041,3.894,3.894,0,0,1-3.223,1.362m.173-13.918a8.517,8.517,0,0,0-6.348,2.342,8.782,8.782,0,0,0-2.293,6.393,8.316,8.316,0,0,0,2.239,6.1,8.122,8.122,0,0,0,6.009,2.255,8.284,8.284,0,0,0,6.222-2.374,8.758,8.758,0,0,0,2.293-6.33,8.544,8.544,0,0,0-2.151-6.148,7.923,7.923,0,0,0-5.971-2.241m-14.9,0a7.02,7.02,0,0,0-4.5,1.39,4.436,4.436,0,0,0-1.753,3.618,5.062,5.062,0,0,0,.378,2.022,4.062,4.062,0,0,0,1.16,1.516,10.1,10.1,0,0,0,2.36,1.32,17.589,17.589,0,0,1,1.963.914,2.729,2.729,0,0,1,.864.71,1.593,1.593,0,0,1,.24.924c0,1.1-.82,1.629-2.509,1.629a6.9,6.9,0,0,1-2.123-.389,7.975,7.975,0,0,1-2.174-1.1l-.161-.116V58.4l.059.028a9.619,9.619,0,0,0,2.059.636,11.043,11.043,0,0,0,2.2.254,7.454,7.454,0,0,0,4.75-1.4,4.523,4.523,0,0,0,1.769-3.7,4.26,4.26,0,0,0-.951-2.8,8.155,8.155,0,0,0-3.232-2.058,8.334,8.334,0,0,1-2.3-1.2,1.676,1.676,0,0,1-.464-1.256,1.4,1.4,0,0,1,.589-1.162,2.648,2.648,0,0,1,1.653-.466,6.765,6.765,0,0,1,1.967.3,6.322,6.322,0,0,1,1.718.8l.159.108V42.934l-.061-.026a8.472,8.472,0,0,0-1.745-.487,10.649,10.649,0,0,0-1.913-.2M355.479,56.142a4.119,4.119,0,0,1-3.3-1.388,5.893,5.893,0,0,1-1.187-3.92,6.126,6.126,0,0,1,1.187-4.024,4.052,4.052,0,0,1,3.272-1.41,3.992,3.992,0,0,1,3.186,1.348,6.006,6.006,0,0,1,1.163,3.991A6.4,6.4,0,0,1,358.7,54.78a3.894,3.894,0,0,1-3.223,1.362m.173-13.918a8.515,8.515,0,0,0-6.348,2.342,8.782,8.782,0,0,0-2.294,6.393,8.315,8.315,0,0,0,2.239,6.1,8.121,8.121,0,0,0,6.009,2.255,8.285,8.285,0,0,0,6.222-2.374,8.759,8.759,0,0,0,2.293-6.33,8.542,8.542,0,0,0-2.152-6.148,7.923,7.923,0,0,0-5.97-2.241M341.116,45.44V42.616H337.28V58.923h3.836V50.582a5.814,5.814,0,0,1,.956-3.464,2.933,2.933,0,0,1,2.481-1.31,4.5,4.5,0,0,1,1.153.17,2.918,2.918,0,0,1,.894.362l.161.117V42.588l-.062-.027a3.971,3.971,0,0,0-1.5-.228,3.931,3.931,0,0,0-2.565.92,5.2,5.2,0,0,0-1.476,2.187Zm-10.705-3.217a9.469,9.469,0,0,0-4.665,1.121,7.555,7.555,0,0,0-3.077,3.164,10.076,10.076,0,0,0-1.057,4.686,8.645,8.645,0,0,0,1.027,4.2,7.217,7.217,0,0,0,2.87,2.9,8.545,8.545,0,0,0,4.194,1.019,9.182,9.182,0,0,0,4.627-1.083l.05-.029V54.69l-.161.118a7.21,7.21,0,0,1-1.877.977,5.671,5.671,0,0,1-1.838.356,4.723,4.723,0,0,1-3.59-1.4,5.444,5.444,0,0,1-1.325-3.878,5.647,5.647,0,0,1,1.381-3.98,4.7,4.7,0,0,1,3.6-1.485,6.161,6.161,0,0,1,3.652,1.27l.161.117v-3.7l-.052-.029a6.33,6.33,0,0,0-1.775-.6,10.6,10.6,0,0,0-2.144-.23m-11.44.393h-3.836V58.923h3.836V42.616Zm-1.879-6.947a2.311,2.311,0,0,0-1.634.641,2.114,2.114,0,0,0-.685,1.6,2.055,2.055,0,0,0,.678,1.568,2.336,2.336,0,0,0,1.642.625,2.366,2.366,0,0,0,1.649-.624,2.046,2.046,0,0,0,.686-1.569,2.155,2.155,0,0,0-.667-1.582,2.288,2.288,0,0,0-1.668-.658m-9.571,5.744v17.51h3.915V36.169h-5.418l-6.887,16.9-6.683-16.9H286.81V58.923h3.679V41.412h.126l7.057,17.511h2.776l6.947-17.51h.126Z" transform="translate(-237.458 -28.565)" fill="#fff"/>
  <path id="Path_1569" data-name="Path 1569" d="M18.045,18.045H0V0H18.045Z" fill="#fff"/>
  <path id="Path_1570" data-name="Path 1570" d="M133.833,18.045H115.788V0h18.045Z" transform="translate(-95.864)" fill="#fff"/>
  <path id="Path_1571" data-name="Path 1571" d="M18.044,133.873H0V115.828H18.044Z" transform="translate(0 -95.897)" fill="#fff"/>
  <path id="Path_1572" data-name="Path 1572" d="M133.833,133.873H115.788V115.828h18.045Z" transform="translate(-95.864 -95.897)" fill="#fff"/>
</svg>
