<svg id="mindcurrant-logo" xmlns="http://www.w3.org/2000/svg" width="131.414" height="22.237" viewBox="0 0 131.414 22.237">
  <g id="Group_1" data-name="Group 1">
    <path id="Path_1" data-name="Path 1" d="M796.967,61.616h-.031V83.852h.031a11.119,11.119,0,1,0,0-22.238Z" transform="translate(-785.211 -61.614)" fill="#fff"/>
    <path id="Path_2" data-name="Path 2" d="M784.606,79.04a.271.271,0,0,1-.541,0,10.491,10.491,0,0,1,.588-3.911,1.894,1.894,0,0,1-1.078-.537,2.107,2.107,0,0,1-.427-.634c-.086-.2-.1-.651-.37-.711-.34-.076-.2-.6.144-.522.578.127.517.639.74,1.067a1.466,1.466,0,0,0,1.22.825,5.569,5.569,0,0,1,.9-1.311v-3.55a5.719,5.719,0,0,1-2.193,2.362.271.271,0,0,1-.273-.467,5.181,5.181,0,0,0,1.448-1.282,2.788,2.788,0,0,1-1.542.264c-.342-.039-.347-.581,0-.541a2.325,2.325,0,0,0,2.2-.97.286.286,0,0,1,.084-.081,5.094,5.094,0,0,0,.271-1.016V65.3a2.378,2.378,0,0,0-4.565-.933,3.648,3.648,0,0,1,.87.784l.034.01a1.549,1.549,0,0,0,1.594-.007,1.724,1.724,0,0,1,.836-.456c.341-.048.488.476.144.521-.495.069-.759.611-1.259.682a2.5,2.5,0,0,1-.895-.045,6.256,6.256,0,0,1,.588,3.1c-.013.348-.553.349-.541,0a5.213,5.213,0,0,0-.8-3.31,2.945,2.945,0,0,0-2.39-1.26,2.378,2.378,0,0,0-1.937,2.713,2.369,2.369,0,0,0,.726.655.247.247,0,0,1,.044-.018c.713-.211.986-1,1.357-1.57.19-.291.658-.02.466.273a5.2,5.2,0,0,1-1.2,1.591,3.728,3.728,0,0,0,2.177.106c.329-.117.47.405.144.522a4.342,4.342,0,0,1-2.969-.293,3.234,3.234,0,0,1-.937-.662,2.378,2.378,0,0,0-1.787,3.524,5.055,5.055,0,0,1,1.5-.439,5.427,5.427,0,0,1,3.082.193c.311.159.037.624-.273.467a2.815,2.815,0,0,0-1.367-.211c-.2,0-.4.008-.605.016-.067.5.666,1.046,1.047,1.257a4.038,4.038,0,0,0,1.344.365,2.282,2.282,0,0,1,1.772,1c.168.305-.3.581-.467.273a1.529,1.529,0,0,0-1.13-.71,3.6,3.6,0,0,1-.125,1.545c-.178.461-.571.9-.585,1.4a.271.271,0,0,1-.541,0,3.321,3.321,0,0,1,.517-1.348,3.336,3.336,0,0,0,.182-1.691,3.338,3.338,0,0,1-1.11-.3c-.642-.355-1.452-.967-1.445-1.759-.109.012-.217.026-.325.044a4.007,4.007,0,0,0-1.63.613,2.378,2.378,0,0,0,.554,3.551,4.551,4.551,0,0,1,1.818-1.2c.33-.115.471.408.144.522a3.764,3.764,0,0,0-1.81,1.374,2.378,2.378,0,0,0,.416,2.061,3.71,3.71,0,0,0,4.016-.151c.277-.211.546.258.273.467a3.7,3.7,0,0,1-2.66.722,2.371,2.371,0,0,0,2.8,2.826,3.621,3.621,0,0,1,1.3-2.5c.267-.219.652.161.382.383a3.171,3.171,0,0,0-1.068,1.671,4.542,4.542,0,0,1,1.352-.09,6.813,6.813,0,0,0,1.614.257c.341-.053.487.466.144.522a3.934,3.934,0,0,1-1.359-.183,4.438,4.438,0,0,0-1.741.045.273.273,0,0,1-.1,0,3.306,3.306,0,0,0,0,.453,2.378,2.378,0,0,0,4.386-1.268V74.164A8.212,8.212,0,0,0,784.606,79.04Z" transform="translate(-774.749 -62.234)" fill="#fff"/>
  </g>
  <g id="Group_2" data-name="Group 2" transform="translate(27.706 3.758)">
    <path id="Path_3" data-name="Path 3" d="M829.888,73.912a3.829,3.829,0,0,1,1.219.2,3.367,3.367,0,0,1,1.094.615,3.593,3.593,0,0,1,2.334-.812,3.637,3.637,0,0,1,1.407.281,3.9,3.9,0,0,1,1.188.761,3.579,3.579,0,0,1,.813,1.146,3.4,3.4,0,0,1,.3,1.417v5.232a1.145,1.145,0,0,1-.417.875,1.371,1.371,0,0,1-2.313-.979V77.579a.888.888,0,0,0-.282-.666.967.967,0,0,0-.7-.271,1.035,1.035,0,0,0-.656.239.838.838,0,0,0-.3.7v5.064a1.289,1.289,0,0,1-.406.959,1.342,1.342,0,0,1-.969.4,1.385,1.385,0,0,1-.937-.365,1.133,1.133,0,0,1-.417-.886V77.579a.934.934,0,0,0-.312-.678.958.958,0,0,0-1.321.011.986.986,0,0,0-.3.687v5.167A1.359,1.359,0,0,1,827.556,84a1.388,1.388,0,0,1-.542-.106,1.339,1.339,0,0,1-.438-.292,1.487,1.487,0,0,1-.3-.438,1.041,1.041,0,0,1-.094-.521V77.517a3.368,3.368,0,0,1,.292-1.386,3.684,3.684,0,0,1,.793-1.146,3.842,3.842,0,0,1,1.178-.782,3.623,3.623,0,0,1,1.446-.292Z" transform="translate(-826.177 -70.681)" fill="#fff"/>
    <path id="Path_4" data-name="Path 4" d="M850.213,68.44a1.235,1.235,0,0,1,.927.406,1.359,1.359,0,0,1,0,1.9,1.235,1.235,0,0,1-.927.406,1.455,1.455,0,0,1-.989-.386,1.349,1.349,0,0,1-.386-1.032,1.273,1.273,0,0,1,.427-.917A1.357,1.357,0,0,1,850.213,68.44Zm0,3.188a1.185,1.185,0,0,1,.906.4,1.544,1.544,0,0,1,.407.959v7.376a1.312,1.312,0,0,1-.355.938,1.4,1.4,0,0,1-.958.417,1.332,1.332,0,0,1-.917-.333,1.473,1.473,0,0,1-.459-.938V72.9a1.29,1.29,0,0,1,.438-.9A1.447,1.447,0,0,1,850.213,71.628Z" transform="translate(-835.893 -68.335)" fill="#fff"/>
    <path id="Path_5" data-name="Path 5" d="M860.071,73.8a5.134,5.134,0,0,1,1.917.365,4.936,4.936,0,0,1,1.6,1.02,5.1,5.1,0,0,1,1.1,1.553,4.545,4.545,0,0,1,.417,1.938v3.854a1.3,1.3,0,0,1-.386.941,1.347,1.347,0,0,1-.948.417,1.4,1.4,0,0,1-.969-.365,1.19,1.19,0,0,1-.406-.927V78.842a2.355,2.355,0,0,0-.177-.906,2.182,2.182,0,0,0-.5-.74,2.536,2.536,0,0,0-.75-.5,2.282,2.282,0,0,0-.927-.188,2.211,2.211,0,0,0-.875.177,2.475,2.475,0,0,0-.729.469,2.179,2.179,0,0,0-.5.708,2.108,2.108,0,0,0-.187.875V82.53a1.282,1.282,0,0,1-.417.948,1.333,1.333,0,0,1-.959.407,1.39,1.39,0,0,1-.959-.375,1.185,1.185,0,0,1-.417-.917V78.84a5.269,5.269,0,0,1,.407-1.958,5.067,5.067,0,0,1,1.062-1.6,4.972,4.972,0,0,1,3.594-1.48Z" transform="translate(-838.539 -70.632)" fill="#fff"/>
    <path id="Path_6" data-name="Path 6" d="M883.092,68.33a1.333,1.333,0,0,1,.948.386,1.305,1.305,0,0,1,.407.99v6.853a4.735,4.735,0,0,1-.407,1.938,5.182,5.182,0,0,1-1.1,1.6,5.4,5.4,0,0,1-1.615,1.094,4.685,4.685,0,0,1-1.917.406,4.786,4.786,0,0,1-1.917-.4,5.227,5.227,0,0,1-1.615-1.083,5.312,5.312,0,0,1-1.115-1.6,4.672,4.672,0,0,1-.417-1.959,4.736,4.736,0,0,1,.406-1.938,5.163,5.163,0,0,1,1.1-1.6,5.4,5.4,0,0,1,1.616-1.094,4.73,4.73,0,0,1,1.937-.406,4.866,4.866,0,0,1,2.313.563V69.684a1.237,1.237,0,0,1,.114-.521,1.5,1.5,0,0,1,.3-.438,1.359,1.359,0,0,1,.959-.4Zm-3.688,5.9a2.241,2.241,0,0,0-.906.188,2.431,2.431,0,0,0-1.26,1.26,2.185,2.185,0,0,0-.187.886,2.231,2.231,0,0,0,.187.906,2.307,2.307,0,0,0,.51.74,2.534,2.534,0,0,0,.75.5,2.232,2.232,0,0,0,.906.188,2.107,2.107,0,0,0,.875-.188,2.49,2.49,0,0,0,1.25-1.25,2.155,2.155,0,0,0,.188-.9,2.28,2.28,0,0,0-.188-.927,2.316,2.316,0,0,0-.51-.74,2.426,2.426,0,0,0-.74-.489,2.22,2.22,0,0,0-.878-.175Z" transform="translate(-846.831 -68.288)" fill="#fff"/>
    <path id="Path_7" data-name="Path 7" d="M898.482,73.911a4.823,4.823,0,0,1,3.541,1.458,1.248,1.248,0,0,1,.323.938,1.29,1.29,0,0,1-.407.9,1.416,1.416,0,0,1-.959.375,1.2,1.2,0,0,1-.958-.375,2.223,2.223,0,0,0-1.542-.581,2.128,2.128,0,0,0-.906.2,2.59,2.59,0,0,0-.75.521,2.468,2.468,0,0,0-.51.74,2.115,2.115,0,0,0-.187.875,2.239,2.239,0,0,0,.187.906,2.346,2.346,0,0,0,.521.75,2.6,2.6,0,0,0,.75.51,1.947,1.947,0,0,0,.9.167,2.22,2.22,0,0,0,1.542-.563,1.31,1.31,0,0,1,1.917,0,1.181,1.181,0,0,1,.292.4,1.294,1.294,0,0,1,.115.479,1.318,1.318,0,0,1-.073.489,1.257,1.257,0,0,1-.25.427,5.09,5.09,0,0,1-1.6,1.1,4.866,4.866,0,0,1-1.938.374,4.783,4.783,0,0,1-1.959-.406,5.221,5.221,0,0,1-2.7-2.7,4.732,4.732,0,0,1-.406-1.938,4.684,4.684,0,0,1,.406-1.917,5.158,5.158,0,0,1,1.1-1.6,5.546,5.546,0,0,1,1.615-1.1A4.632,4.632,0,0,1,898.482,73.911Z" transform="translate(-855.011 -70.681)" fill="#fff"/>
    <path id="Path_8" data-name="Path 8" d="M911.944,73.875a1.406,1.406,0,0,1,1.374,1.4v3.668a2.229,2.229,0,0,0,.188.906,2.352,2.352,0,0,0,1.24,1.239,2.226,2.226,0,0,0,.906.188,2.332,2.332,0,0,0,.875-.167,2.451,2.451,0,0,0,.74-.459,2.1,2.1,0,0,0,.511-.708,2.169,2.169,0,0,0,.188-.9V75.25a1.184,1.184,0,0,1,.208-.708,1.376,1.376,0,0,1,.094-.125c.034-.042.073-.083.114-.125a1.208,1.208,0,0,1,.938-.417,1.34,1.34,0,0,1,.98.417,1.321,1.321,0,0,1,.417.9V78.94a4.887,4.887,0,0,1-.4,1.957,5.088,5.088,0,0,1-2.688,2.688,4.939,4.939,0,0,1-1.979.4,4.4,4.4,0,0,1-1.917-.344A5.184,5.184,0,0,1,911,80.991a4.514,4.514,0,0,1-.417-1.907V75.25a1.333,1.333,0,0,1,.386-.948A1.351,1.351,0,0,1,911.944,73.875Z" transform="translate(-862.373 -70.666)" fill="#fff"/>
    <path id="Path_9" data-name="Path 9" d="M931.191,84.033a1.291,1.291,0,0,1-.938-.365,1.433,1.433,0,0,1-.417-.969V78.845a4.709,4.709,0,0,1,.427-1.886,5.083,5.083,0,0,1,1.083-1.542,5.142,5.142,0,0,1,1.585-1.042,5.454,5.454,0,0,1,1.927-.427,1.3,1.3,0,0,1,.969.4,1.494,1.494,0,0,1,.427.959,1.271,1.271,0,0,1-.4.948,1.427,1.427,0,0,1-.979.407,2.277,2.277,0,0,0-1.626.666,2.4,2.4,0,0,0-.5.74,2.283,2.283,0,0,0-.189.926v3.793a1.348,1.348,0,0,1-.406.9A1.33,1.33,0,0,1,931.191,84.033Z" transform="translate(-870.628 -70.697)" fill="#fff"/>
    <path id="Path_10" data-name="Path 10" d="M943.185,84.033a1.291,1.291,0,0,1-.938-.365,1.434,1.434,0,0,1-.417-.969V78.845a4.715,4.715,0,0,1,.427-1.886,5.087,5.087,0,0,1,1.083-1.542,5.145,5.145,0,0,1,1.586-1.042,5.451,5.451,0,0,1,1.927-.427,1.3,1.3,0,0,1,.969.4,1.491,1.491,0,0,1,.427.959,1.272,1.272,0,0,1-.4.948,1.427,1.427,0,0,1-.979.407,2.278,2.278,0,0,0-1.625.666,2.4,2.4,0,0,0-.5.74,2.28,2.28,0,0,0-.186.926v3.793a1.349,1.349,0,0,1-.406.9A1.331,1.331,0,0,1,943.185,84.033Z" transform="translate(-875.771 -70.697)" fill="#fff"/>
    <path id="Path_11" data-name="Path 11" d="M958.861,73.928a4.859,4.859,0,0,1,1.76.542,4.956,4.956,0,0,1,1.417,1.115,5.292,5.292,0,0,1,.937,1.54,4.893,4.893,0,0,1,.344,1.823v3.688a1.274,1.274,0,0,1-.417.959,1.335,1.335,0,0,1-2.1-.271,1.21,1.21,0,0,0-.187.094,1.9,1.9,0,0,1-.167.094,5.558,5.558,0,0,1-1.02.354,5.09,5.09,0,0,1-1.146.125,4.815,4.815,0,0,1-2.792-.846,5.2,5.2,0,0,1-1.833-2.178,5.484,5.484,0,0,1-.323-.979,4.785,4.785,0,0,1,0-2.084,5.521,5.521,0,0,1,.323-.98,5.112,5.112,0,0,1,1.833-2.188,4.858,4.858,0,0,1,2.792-.833h.3a2.024,2.024,0,0,1,.282.025Zm-.605,7.356a2.326,2.326,0,0,0,.906-.178,2.248,2.248,0,0,0,.74-.489,2.4,2.4,0,0,0,.5-.74,2.279,2.279,0,0,0,.188-.927,2.183,2.183,0,0,0-.187-.886,2.427,2.427,0,0,0-1.261-1.26,2.191,2.191,0,0,0-.885-.188,2.114,2.114,0,0,0-.875.188,2.474,2.474,0,0,0-.74.51,2.437,2.437,0,0,0-.51.75,2.181,2.181,0,0,0-.188.886,2.121,2.121,0,0,0,.2.906,2.442,2.442,0,0,0,.521.74,2.568,2.568,0,0,0,.74.5,2.06,2.06,0,0,0,.854.188Z" transform="translate(-880.652 -70.677)" fill="#fff"/>
    <path id="Path_12" data-name="Path 12" d="M977.482,73.8a5.137,5.137,0,0,1,1.917.365,4.944,4.944,0,0,1,1.6,1.02,5.085,5.085,0,0,1,1.1,1.553,4.536,4.536,0,0,1,.417,1.938v3.854a1.3,1.3,0,0,1-.385.938,1.345,1.345,0,0,1-.948.417,1.4,1.4,0,0,1-.969-.365,1.19,1.19,0,0,1-.406-.927V78.838a2.343,2.343,0,0,0-.178-.906,2.171,2.171,0,0,0-.5-.74,2.537,2.537,0,0,0-.75-.5,2.282,2.282,0,0,0-.927-.188,2.211,2.211,0,0,0-.875.177,2.476,2.476,0,0,0-.729.469,2.185,2.185,0,0,0-.5.708,2.11,2.11,0,0,0-.187.875v3.792a1.284,1.284,0,0,1-.417.948,1.333,1.333,0,0,1-.959.407,1.391,1.391,0,0,1-.959-.375,1.187,1.187,0,0,1-.417-.917V78.835a5.276,5.276,0,0,1,.406-1.959,5.059,5.059,0,0,1,1.063-1.6,4.972,4.972,0,0,1,3.594-1.48Z" transform="translate(-888.888 -70.63)" fill="#fff"/>
    <path id="Path_13" data-name="Path 13" d="M993.121,68.257a1.313,1.313,0,0,1,.979.406,1.553,1.553,0,0,1,.438,1.011v1.585h4a1.257,1.257,0,0,1,.98.417,1.418,1.418,0,0,1,.375.98,1.352,1.352,0,0,1-.417.969,1.282,1.282,0,0,1-.938.427h-4v2.375a2.353,2.353,0,0,0,.177.907,2.509,2.509,0,0,0,.49.76,2.228,2.228,0,0,0,.74.521,2.277,2.277,0,0,0,.927.188,2.627,2.627,0,0,0,.927-.146,1.894,1.894,0,0,0,.678-.438,1.5,1.5,0,0,1,.969-.386,1.4,1.4,0,0,1,.99.406,1.249,1.249,0,0,1,.313.427,1.4,1.4,0,0,1,.114.5,1.421,1.421,0,0,1-.073.51,1.1,1.1,0,0,1-.271.438,5.275,5.275,0,0,1-1.6,1.083,4.707,4.707,0,0,1-1.875.375A5.688,5.688,0,0,1,995,81.208a5.135,5.135,0,0,1-1.688-1.042,4.968,4.968,0,0,1-1.157-1.626,5.316,5.316,0,0,1-.448-2.114V69.569a1.2,1.2,0,0,1,.427-.938A1.454,1.454,0,0,1,993.121,68.257Z" transform="translate(-897.157 -68.256)" fill="#fff"/>
  </g>
</svg>
