<svg id="pulse-logo" xmlns="http://www.w3.org/2000/svg" width="110.232" height="37.563" viewBox="0 0 110.232 37.563">
  <g id="Group_1" data-name="Group 1" transform="translate(84.744)">
    <path id="Path_1" data-name="Path 1" d="M635.6,96.8s-2.145,6.674-2.113,9.477c0,0,2.846-1.564,3.63-.465" transform="translate(-633.483 -87.652)" fill="#fff"/>
    <path id="Path_2" data-name="Path 2" d="M649.094,77.683a11.842,11.842,0,1,0,11.843,11.843,11.843,11.843,0,0,0-11.843-11.843Zm0,18.853a7.009,7.009,0,1,1,7.009-7.009A7.009,7.009,0,0,1,649.094,96.536Z" transform="translate(-635.448 -77.683)" fill="#fff"/>
  </g>
  <g id="Group_2" data-name="Group 2" transform="translate(0 21.381)">
    <path id="Path_3" data-name="Path 3" d="M472.8,127.612a4.722,4.722,0,0,1-1.385,3.484,5.224,5.224,0,0,1-3.863,1.474h-3.06v5.985h-3.1v-15.9h6.164a5.224,5.224,0,0,1,3.863,1.474A4.724,4.724,0,0,1,472.8,127.612Zm-3.1,0a2.105,2.105,0,0,0-.625-1.585,2.312,2.312,0,0,0-1.675-.6h-2.9v4.354h2.9a2.337,2.337,0,0,0,1.675-.592A2.068,2.068,0,0,0,469.691,127.612Z" transform="translate(-461.383 -122.515)" fill="#fff"/>
    <path id="Path_4" data-name="Path 4" d="M511.213,133.111a5.242,5.242,0,0,1-1.675,4.031,6.394,6.394,0,0,1-8.352,0,5.242,5.242,0,0,1-1.675-4.031V122.66h3.1V133a3,3,0,0,0,.737,2.144,2.628,2.628,0,0,0,2.01.781,2.667,2.667,0,0,0,2.021-.781,2.973,2.973,0,0,0,.748-2.144V122.66h3.082Z" transform="translate(-481.265 -122.52)" fill="#fff"/>
    <path id="Path_5" data-name="Path 5" d="M550.856,138.56H540.538v-15.9h3.1v13.13h7.213Z" transform="translate(-502.662 -122.52)" fill="#fff"/>
    <path id="Path_6" data-name="Path 6" d="M585.47,133.718a4.224,4.224,0,0,1-1.664,3.541,6.725,6.725,0,0,1-4.232,1.284,7.8,7.8,0,0,1-5.807-2.1l2.01-2.01a5.2,5.2,0,0,0,3.841,1.34q2.815,0,2.814-1.965a1.729,1.729,0,0,0-.469-1.329,2.584,2.584,0,0,0-1.429-.569l-1.921-.268q-4.221-.581-4.221-4.444a4.45,4.45,0,0,1,1.5-3.493,5.865,5.865,0,0,1,4.042-1.329,7.084,7.084,0,0,1,5.136,1.854l-1.965,1.943a4.521,4.521,0,0,0-3.26-1.094,2.639,2.639,0,0,0-1.818.569,1.848,1.848,0,0,0-.636,1.44,1.525,1.525,0,0,0,.5,1.161,2.6,2.6,0,0,0,1.44.6l1.876.268a5.512,5.512,0,0,1,3.038,1.228A4.419,4.419,0,0,1,585.47,133.718Z" transform="translate(-519.991 -122.367)" fill="#fff"/>
    <path id="Path_7" data-name="Path 7" d="M613.624,135.789H624.1v2.769H613.624Zm0-6.633H624.1v2.769H613.624Zm0-6.5H624.1v2.769H613.624Z" transform="translate(-540.776 -122.519)" fill="#fff"/>
  </g>
</svg>
