<svg id="sohoj-logo" xmlns="http://www.w3.org/2000/svg" width="71.164" height="36.6" viewBox="0 0 71.164 36.6">
  <path id="Path_312" data-name="Path 312" d="M59.843,19.49h-5.6a2.411,2.411,0,0,0-2.423,2.4v8.13a2.411,2.411,0,0,0,2.423,2.4h5.6a2.411,2.411,0,0,0,2.423-2.4v-8.13A2.411,2.411,0,0,0,59.843,19.49ZM58.684,29.4a1.641,1.641,0,0,1-3.281,0V22.506a1.641,1.641,0,0,1,3.281,0Z" transform="translate(-25.48 -9.582)" fill="#fff"/>
  <path id="Path_313" data-name="Path 313" d="M23.694,18.772c.02-.074.029-.114.029-.117a5.8,5.8,0,0,0-.86-4.428l-.025-.035a32.46,32.46,0,0,0-5.217-4.9.351.351,0,0,1-.04-.036,10.2,10.2,0,0,1-1.719-2.273c-1.053-2.052.841-3.311,2.272-4.556a.262.262,0,0,0,.088-.179A2.292,2.292,0,0,0,16.486.015a.343.343,0,0,0-.234.01c-.321.134-.637.279-.946.429l-.042.024A11.943,11.943,0,0,0,12.391,3.05a5.8,5.8,0,0,0-.92,1.7,6.43,6.43,0,0,0,.842,5.547l.025.035a27.162,27.162,0,0,0,3.449,3.476c1.317,1.137,3.657,2.548,3.635,4.584-.02,1.9-2.434,3.86-3.946,4.6-.329.16-.673.307-1.024.446l-.013.007c-2.313,1.311-9.6,2.149-9.6,2.148-1.459.224-3.067.366-4.5.455a.354.354,0,0,0-.015.706,43.84,43.84,0,0,0,11.4-.066c7.939-.981,10.72-5,11.616-6.955a5.048,5.048,0,0,0,.256-.615C23.63,19,23.664,18.888,23.694,18.772Z" transform="translate(-0.001 0.001)" fill="#fff"/>
  <path id="Path_314" data-name="Path 314" d="M117.62,14.735c-.093-.07-2.3-1.748-3.279-2.4l-.108-.07-.11.061a2.785,2.785,0,0,1-1.36.365c-1.545,0-3.316-1.256-4.454-2.23l-.581,2.793a7.835,7.835,0,0,0,4.983,2.013c.061,0,.118,0,.167-.006v8.424h0v2.247h.011v1.138a10.185,10.185,0,0,1-2.447,6.389l-.012.011c-.168.153-.356.312-.578.492a.584.584,0,0,0-.054.05c-1.606,1.716-7.433,4.241-7.538,4.286l-.018.008a57.168,57.168,0,0,1-7.22,2.708l-.033.01a.367.367,0,0,0-.245.429.371.371,0,0,0,.363.287l.044,0c16.023-1.887,21.033-7.891,21.573-12.392a.137.137,0,0,0,0-.025l-.016-3.127V24.641h0V15.579a1.191,1.191,0,0,0,.973-.615l.061-.136Z" transform="translate(-46.578 -5.145)" fill="#fff"/>
  <path id="Path_315" data-name="Path 315" d="M79.662,14.856v5.715H76.185V11.938l-.074-.222-.254-.315-.18-.092H67.343v2.934h5.151v1.092l0,10.4a2.488,2.488,0,0,0,.588,2.178,1.409,1.409,0,0,0,.987.443l1.612-.02.178-.093.251-.314.073-.221V24.019h3.477v3.709l.074.222.254.315.18.092h2.674l.18-.092.254-.315.074-.222V14.856Z" transform="translate(-33.111 -5.56)" fill="#fff"/>
  <path id="Path_316" data-name="Path 316" d="M111.943,19.49h-5.6a2.411,2.411,0,0,0-2.423,2.4v8.13a2.411,2.411,0,0,0,2.423,2.4h5.6a2.411,2.411,0,0,0,2.423-2.4v-8.13A2.411,2.411,0,0,0,111.943,19.49ZM110.785,29.4a1.64,1.64,0,0,1-3.281,0V22.506a1.64,1.64,0,0,1,3.281,0Z" transform="translate(-51.097 -9.582)" fill="#fff"/>
</svg>
