<svg id="ssd-tech-logo" xmlns="http://www.w3.org/2000/svg" width="108.428" height="21.874" viewBox="0 0 108.428 21.874">
  <path id="Path_317" data-name="Path 317" d="M275.694-272.236a4.064,4.064,0,0,1,2.759,1.444l.195.2,1.568-1.686-.184-.182a6.164,6.164,0,0,0-4.239-2.085,4.141,4.141,0,0,0-3.05,1.216,4.126,4.126,0,0,0-1.215,3.033,4.275,4.275,0,0,0,.759,2.489,7.891,7.891,0,0,0,2.773,2.158,8.142,8.142,0,0,1,2.275,1.546,2.039,2.039,0,0,1,.468,1.315,2.094,2.094,0,0,1-.706,1.574,2.41,2.41,0,0,1-1.729.675,3.818,3.818,0,0,1-2.835-1.571l-.2-.236-1.516,1.783.128.17a5.53,5.53,0,0,0,1.986,1.644,5.658,5.658,0,0,0,2.519.6,4.48,4.48,0,0,0,3.331-1.371,4.632,4.632,0,0,0,1.333-3.344,4.348,4.348,0,0,0-.788-2.534,8.766,8.766,0,0,0-2.935-2.249,7.336,7.336,0,0,1-2.175-1.526,1.95,1.95,0,0,1-.476-1.238,1.678,1.678,0,0,1,.571-1.266A1.912,1.912,0,0,1,275.694-272.236Z" transform="translate(-270.813 280.029)" fill="#fff"/>
  <path id="Path_318" data-name="Path 318" d="M290.076-272.236a4.068,4.068,0,0,1,2.764,1.444l.2.2,1.562-1.686-.184-.182a6.152,6.152,0,0,0-4.234-2.085,4.161,4.161,0,0,0-3.055,1.216,4.134,4.134,0,0,0-1.21,3.033,4.26,4.26,0,0,0,.756,2.488,7.86,7.86,0,0,0,2.773,2.158,8.147,8.147,0,0,1,2.274,1.545,2.046,2.046,0,0,1,.464,1.315,2.093,2.093,0,0,1-.7,1.575,2.4,2.4,0,0,1-1.728.675,3.814,3.814,0,0,1-2.832-1.571l-.2-.236-1.513,1.783.127.171a5.513,5.513,0,0,0,1.985,1.644,5.575,5.575,0,0,0,2.519.6,4.5,4.5,0,0,0,3.334-1.371,4.645,4.645,0,0,0,1.329-3.344,4.319,4.319,0,0,0-.788-2.534,8.726,8.726,0,0,0-2.936-2.248,7.307,7.307,0,0,1-2.171-1.528,1.931,1.931,0,0,1-.479-1.236,1.687,1.687,0,0,1,.574-1.266A1.909,1.909,0,0,1,290.076-272.236Z" transform="translate(-274.58 280.029)" fill="#fff"/>
  <path id="Path_319" data-name="Path 319" d="M313.94-273.853a7.363,7.363,0,0,0-2.14-1.809,6.871,6.871,0,0,0-3.359-.83,7.322,7.322,0,0,0-5.479,2.4,8.091,8.091,0,0,0-2.269,5.755,8.24,8.24,0,0,0,2.248,5.827,7.226,7.226,0,0,0,5.451,2.41,7.225,7.225,0,0,0,3.305-.771,7.938,7.938,0,0,0,2.243-1.74v2.14h2.42v-21.5h-2.42Zm-1.467,1.456a5.869,5.869,0,0,1,1.573,4.193,6.2,6.2,0,0,1-.7,2.959,5.267,5.267,0,0,1-2,2.068,5.379,5.379,0,0,1-2.753.765,5.078,5.078,0,0,1-2.688-.768,5.561,5.561,0,0,1-2-2.158,6.131,6.131,0,0,1-.751-2.919,6.1,6.1,0,0,1,.743-2.919,5.462,5.462,0,0,1,1.992-2.13,5.144,5.144,0,0,1,2.723-.757A5.122,5.122,0,0,1,312.473-272.4Z" transform="translate(-278.637 281.973)" fill="#fff"/>
  <rect id="Rectangle_41" data-name="Rectangle 41" width="7.903" height="2.236" transform="translate(40.189 12.413)" fill="#fff"/>
  <path id="Path_320" data-name="Path 320" d="M343.025-281.671h-2.417v5.634h-2.567v2.2h2.567v13.45h2.417v-13.45h2.955v-2.2h-2.955Z" transform="translate(-288.416 281.894)" fill="#fff"/>
  <path id="Path_321" data-name="Path 321" d="M366.363-266.2a8.671,8.671,0,0,0-1.658-5.313,7.35,7.35,0,0,0-6.144-3.032,7.122,7.122,0,0,0-5.969,2.963,8.538,8.538,0,0,0-1.751,5.276,8.636,8.636,0,0,0,2.062,5.638,7.089,7.089,0,0,0,5.758,2.515,8.047,8.047,0,0,0,2.967-.522A7.346,7.346,0,0,0,364-260.2a9.253,9.253,0,0,0,1.842-2.612l.114-.23-2.03-1.107-.131.224a8.867,8.867,0,0,1-1.532,2.067,5.443,5.443,0,0,1-1.7,1.011,5.777,5.777,0,0,1-2.061.38,4.794,4.794,0,0,1-3.661-1.6,5.94,5.94,0,0,1-1.53-3.866h13.059Zm-3.633-3.993a6.054,6.054,0,0,1,.959,2.06H353.57a5.994,5.994,0,0,1,1.523-2.665,4.954,4.954,0,0,1,3.492-1.36,5.331,5.331,0,0,1,2.352.545A4.889,4.889,0,0,1,362.729-270.195Z" transform="translate(-291.768 280.029)" fill="#fff"/>
  <path id="Path_322" data-name="Path 322" d="M388.3-263.029a6.045,6.045,0,0,1-5.016,2.561,5.988,5.988,0,0,1-3.023-.77,5.558,5.558,0,0,1-2.117-2.164,6.047,6.047,0,0,1-.772-2.99,5.641,5.641,0,0,1,1.678-4.143,5.693,5.693,0,0,1,4.219-1.7,5.887,5.887,0,0,1,5.027,2.557l.148.206,1.909-1.233-.128-.22a6.677,6.677,0,0,0-1.661-1.93,8.015,8.015,0,0,0-2.358-1.221,8.987,8.987,0,0,0-2.872-.47,8.6,8.6,0,0,0-4.3,1.09,7.952,7.952,0,0,0-3.024,3.031,8.416,8.416,0,0,0-1.1,4.2,7.8,7.8,0,0,0,2.355,5.718,8.046,8.046,0,0,0,5.915,2.353,9.025,9.025,0,0,0,4.131-.929,7.36,7.36,0,0,0,2.9-2.626l.139-.217-1.905-1.3Z" transform="translate(-298.072 280.029)" fill="#fff"/>
  <path id="Path_323" data-name="Path 323" d="M412.411-273.154a5.377,5.377,0,0,0-1.954-2.431,5.258,5.258,0,0,0-3.026-.907,6.13,6.13,0,0,0-3.067.808,7.885,7.885,0,0,0-2.09,1.787v-8.076h-2.417v21.5h2.417v-5.81a20.808,20.808,0,0,1,.257-4.044,5.3,5.3,0,0,1,1.673-2.754,4.17,4.17,0,0,1,2.843-1.1,3.346,3.346,0,0,1,2.207.7,3.739,3.739,0,0,1,1.163,2.11,19.6,19.6,0,0,1,.19,3.427v7.476h2.422v-8.036A13.064,13.064,0,0,0,412.411-273.154Z" transform="translate(-304.602 281.973)" fill="#fff"/>
</svg>
