<svg xmlns="http://www.w3.org/2000/svg" width="126.081" height="53.672" viewBox="0 0 126.081 53.672">
  <g id="telenor" transform="translate(-138.461 -203.524)">
    <path id="Path_1222" data-name="Path 1222" d="M167.923,219.928c.834.131,1-.044,1.114-.834a18.711,18.711,0,0,1,1.624-5.314,16.373,16.373,0,0,1,5.264-6.359,26.169,26.169,0,0,1,8-3.441,19.363,19.363,0,0,1,5.836-.386c3.509.317,5.45,1.319,6.427,2.613a2.848,2.848,0,0,1,.56,1.487A2.948,2.948,0,0,1,195.566,210a16.969,16.969,0,0,1-5.444,2.682c-2.719.9-6.434,1.86-10.142,2.713a57.678,57.678,0,0,0-6.346,1.823c-2.451.834-3.192,3.273-1.667,4.019a23.109,23.109,0,0,1,4.772,3.123,42.255,42.255,0,0,1,6.359,6.253c2.308,2.818,6.085,8.194,7.435,13.414,1.506,5.73.566,11.162-2.675,12.68-3.179,1.493-7.417-.659-10.391-3.752-2.825-2.918-4.8-6.371-6.67-11.672a51.636,51.636,0,0,1-2.258-14.671c0-1.157,0-1.4.031-2.445.106-.908-2.346-1.667-4.977.031-3,1.929-5.93,5.419-7.665,7.454-.753.89-1.779,2.19-2.862,3.553a26.976,26.976,0,0,1-4.442,4.7c-2.153,1.537-5.631,2.2-8.076.473a5.7,5.7,0,0,1-2.084-4.654,7.073,7.073,0,0,1,.958-3.659,18.132,18.132,0,0,1,4.287-4.729,37.521,37.521,0,0,1,9.233-5.264c5.37-2.159,11.15-2.837,14.982-2.153Z" transform="translate(0 0)" fill="#fff"/>
    <path id="Path_1223" data-name="Path 1223" d="M565.212,328.046a2.195,2.195,0,0,1-2.451-2.451V316.58H560.95c-.168,0-.168-.286-.168-.523s0-.547.168-.547h1.811v-3.117c0-.143.4-.143.641-.143s.641,0,.641.143v3.117h2.806c.143,0,.143.261.143.547s0,.523-.143.523h-2.806v8.966c0,1,.429,1.381,1.474,1.381h1.307c.168,0,.212.05.212.523,0,.523-.05.6-.212.6Zm4.878-5.8v1.238c0,2.283,1.213,3.69,3.665,3.69a7.509,7.509,0,0,0,3.9-1c.193-.093.784.927.548,1.07a8.86,8.86,0,0,1-4.4,1.1c-3.142,0-5-1.761-5-4.76v-3.926a4.543,4.543,0,0,1,4.735-4.76c2.9,0,4.878,1.854,4.878,5.021v2.333Zm7.037-2.445a3.448,3.448,0,0,0-3.59-3.783,3.356,3.356,0,0,0-3.447,3.708V321.2h7.043v-1.4Zm6.614,8.25a2.206,2.206,0,0,1-2.451-2.451V310.37c0-.143.4-.143.641-.143s.641,0,.641.143v15.175c0,1,.454,1.406,1.5,1.406h.641c.168,0,.212.05.212.523,0,.523-.05.572-.212.572Zm4-5.8v1.238c0,2.283,1.213,3.69,3.665,3.69a7.509,7.509,0,0,0,3.9-1c.193-.093.784.927.547,1.07a8.859,8.859,0,0,1-4.4,1.1c-3.142,0-5-1.761-5-4.76v-3.926a4.543,4.543,0,0,1,4.735-4.76c2.9,0,4.878,1.854,4.878,5.021v2.333Zm7.037-2.445a3.449,3.449,0,0,0-3.59-3.783,3.356,3.356,0,0,0-3.447,3.708V321.2h7.043v-1.4Zm12.705,8.35c-.236,0-.641,0-.641-.143v-8.736c0-2.115-.927-3.092-2.476-3.092-1.643,0-3.167,1.406-4.094,2.763V328c0,.143-.4.143-.641.143s-.641,0-.641-.143V315.2c0-.143.4-.143.641-.143s.616,0,.616.143v2.308a5.64,5.64,0,0,1,4.5-2.619c2.072,0,3.378,1.549,3.378,3.808V328c0,.143-.4.143-.641.143Zm3.378-4.449v-4.162c0-3,1.81-4.642,4.946-4.642,3.167,0,5,1.643,5,4.642V323.7c0,2.974-1.829,4.641-5,4.641-3.136-.006-4.946-1.667-4.946-4.641Zm4.946-7.64c-2.283,0-3.665.977-3.665,3.69v3.733c0,2.688,1.381,3.708,3.665,3.708,2.308,0,3.708-.977,3.708-3.708v-3.733C619.523,317.059,618.116,316.057,615.808,316.057Zm12.419.38c-1.045,0-1.929.952-3.235,2.949V328c0,.143-.4.143-.641.143s-.616,0-.616-.143V315.2c0-.143.38-.143.616-.143s.6,0,.6.143v2.881c1.425-2.165,2.19-2.974,3.615-2.974h.473c.143,0,.143.454.143.691s-.05.641-.193.641h-.759Z" transform="translate(-364.637 -92.129)" fill="#fff"/>
  </g>
</svg>
