<svg id="yahoo" xmlns="http://www.w3.org/2000/svg" width="135.476" height="37.621" viewBox="0 0 135.476 37.621">
  <path id="Path_21" data-name="Path 21" d="M106.2,116.883V87.13c.253-.083,6.629-.113,7.218-.032.01.138.028.288.028.436q0,5.057,0,10.114c0,.15.013.3.025.51a2.153,2.153,0,0,0,.235-.182,6.589,6.589,0,0,1,3.891-2.092,6.958,6.958,0,0,1,5.723,1.363,6.7,6.7,0,0,1,2.057,3,9.729,9.729,0,0,1,.584,3.358q0,6.452,0,12.9v.376c-.32.1-6.859.1-7.2,0v-.443q0-5.362,0-10.723a4.374,4.374,0,0,0-.429-1.97,2.459,2.459,0,0,0-3.984-.532,3.3,3.3,0,0,0-.828,1.788,6.526,6.526,0,0,0-.068,1q-.007,5.216,0,10.435v.446C113.106,116.983,106.5,116.978,106.2,116.883Z" transform="translate(-57.59 -87.05)" fill="#fff"/>
  <path id="Path_22" data-name="Path 22" d="M104.507,95.3V93.574c.168-.016.295-.038.42-.038q3.057,0,6.114,0c.036,0,.071,0,.108,0,.272.015.292.036.305.322,0,.06,0,.119,0,.179q0,9.864,0,19.727c0,.139-.013.279-.02.407-.337.093-6.587.09-6.92-.007V112.3a2.015,2.015,0,0,0-.243.187,6.461,6.461,0,0,1-4.167,2.193,9,9,0,0,1-5.608-.928,9.688,9.688,0,0,1-3.845-3.687A12.16,12.16,0,0,1,90.3,98.5a9.771,9.771,0,0,1,4.953-4.743,9.08,9.08,0,0,1,4.613-.649,7.191,7.191,0,0,1,3.7,1.461c.235.182.446.394.667.593l.18.161Zm.123,8.669c-.009-.153-.013-.26-.022-.366a4.15,4.15,0,0,0-2.156-3.447,4.288,4.288,0,0,0-2.342-.5,4.408,4.408,0,0,0-2.038.574,4.327,4.327,0,0,0,4.567,7.351A4.174,4.174,0,0,0,104.631,103.969Z" transform="translate(-65.374 -84.334)" fill="#fff"/>
  <path id="Path_23" data-name="Path 23" d="M86.129,121.806H78.372c.061-.157.107-.286.161-.413.96-2.244,1.917-4.488,2.889-6.727a.847.847,0,0,0,0-.739q-2.493-5.844-4.966-11.7-1.8-4.24-3.6-8.479c-.041-.1-.07-.2-.122-.349.147-.007.259-.019.37-.019h7.187c.392,0,.392,0,.536.373Q83,99.33,85.178,104.9c.058.15.123.295.186.442h.093c.058-.134.122-.267.177-.4q2.146-5.43,4.292-10.856c.328-.825.092-.69,1.031-.694,2.169-.007,4.337,0,6.507,0h.424C97.861,93.67,86.36,121.443,86.129,121.806Z" transform="translate(-72.735 -84.185)" fill="#fff"/>
  <path id="Path_24" data-name="Path 24" d="M148.145,114.789a11.375,11.375,0,0,1-6.494-1.874,10.15,10.15,0,0,1-4.493-6.929,11.043,11.043,0,0,1,.731-6.468,10.271,10.271,0,0,1,7.767-6.245,11.608,11.608,0,0,1,3.129-.2,11.082,11.082,0,0,1,7.139,3.047,10,10,0,0,1,2.8,4.934,12.3,12.3,0,0,1,.35,3.506,10.262,10.262,0,0,1-3.077,7.1,10.862,10.862,0,0,1-5.489,2.879A12.83,12.83,0,0,1,148.145,114.789Zm-.078-6.613a6.267,6.267,0,0,0,.641-.044,4.282,4.282,0,0,0,3.538-3.758,4.21,4.21,0,0,0-4.122-4.657,3.982,3.982,0,0,0-4.143,3.5A4.184,4.184,0,0,0,148.067,108.176Z" transform="translate(-43.664 -84.336)" fill="#fff"/>
  <path id="Path_25" data-name="Path 25" d="M131.549,114.788a10.931,10.931,0,0,1-6.878-2.532,10.092,10.092,0,0,1-3.617-6.339,11.171,11.171,0,0,1,.9-6.76,10.259,10.259,0,0,1,6.949-5.738,11.66,11.66,0,0,1,3.79-.343,11.16,11.16,0,0,1,6.743,2.687,10.116,10.116,0,0,1,3.264,5.572,11.6,11.6,0,0,1,.263,3.55,10.173,10.173,0,0,1-6.175,8.882A11.865,11.865,0,0,1,131.549,114.788Zm4.616-10.823a4.191,4.191,0,0,0-4.188-4.25,4.03,4.03,0,0,0-4.147,4.234,4.135,4.135,0,0,0,4.2,4.228A4.253,4.253,0,0,0,136.166,103.965Z" transform="translate(-50.944 -84.337)" fill="#fff"/>
  <path id="Path_26" data-name="Path 26" d="M171.115,87.059c-.171.421-.309.773-.455,1.121q-2.719,6.576-5.441,13.154l-1.708,4.119c-.142.343-.144.344-.524.344h-7.934c-.1,0-.209-.012-.349-.019.033-.115.049-.2.083-.286l4.693-11.305q1.39-3.345,2.782-6.689c.032-.077.067-.153.093-.231a.276.276,0,0,1,.325-.211,2.129,2.129,0,0,0,.215,0h8.22Z" transform="translate(-35.639 -87.048)" fill="#fff"/>
  <path id="Path_27" data-name="Path 27" d="M162.564,106.116a4.839,4.839,0,1,1-4.875-4.869A4.808,4.808,0,0,1,162.564,106.116Z" transform="translate(-36.461 -80.625)" fill="#fff"/>
</svg>
